{
.appVersion = "3222";
.formatVersion = 3;
axes = (
{
name = wght;
tag = wght;
}
);
classes = (
{

glyphs = (
{
glyphname = A;
lastChange = "2023-09-29 01:26:03 +0000";
layers = (
{
anchors = (
{
name = bottom;
pos = (638,0);
},
{
name = ogonek;
pos = (1195,10);
},
{
name = top;
pos = (849,2008);
}
);
layerId = m01;
shapes = (
{
closed = 1;
nodes = (
(94,-7,o),
(121,23,o),
(142,70,cs),
(559,1024,l),
(1017,1024,l),
(1151,73,ls),
(1158,25,o),
(1171,-4,o),
(1226,0,cs),
(1273,4,o),
(1285,36,o),
(1277,87,cs),
(994,1946,ls),
(988,1987,o),
(977,2008,o),
(928,2008,cs),
(883,2008,o),
(860,1993,o),
(840,1948,cs),
(23,112,ls),
(-6,48,o),
(14,14,o),
(54,3,cs)
);
},
{
closed = 1;
nodes = (
(765,1504,l),
(906,1834,l),
(951,1504,l),
(1001,1137,l),
(608,1137,l)
);
}
);
vertWidth = 0;
width = 1390;
},
{
anchors = (
{
name = bottom;
pos = (727,0);
},
{
name = ogonek;
pos = (1338,10);
},
{
name = top;
pos = (938,2008);
}
);
background = {
shapes = (
{
closed = 1;
nodes = (
(229,-21,o),
(326,10,o),
(364,101,cs),
(722,951,l),
(1032,951,l),
(1134,151,ls),
(1149,36,o),
(1209,-16,o),
(1311,0,cs),
(1397,13,o),
(1436,81,o),
(1420,187,cs),
(1152,1912,ls),
(1142,1975,o),
(1090,2008,o),
(1004,2008,cs),
(908,2008,o),
(879,1974,o),
(848,1904,cs),
(83,203,ls),
(43,113,o),
(86,34,o),
(156,5,cs)
);
},
{
closed = 1;
nodes = (
(905,1459,l),
(980,1694,l),
(989,1455,l),
(1009,1185,l),
(800,1185,l)
);
}
);
};
layerId = m002;
shapes = (
{
closed = 1;
nodes = (
(229,-21,o),
(326,10,o),
(364,101,cs),
(684,861,l),
(1043,861,l),
(1134,151,ls),
(1149,36,o),
(1209,-16,o),
(1311,0,cs),
(1397,13,o),
(1436,81,o),
(1420,187,cs),
(1152,1912,ls),
(1142,1975,o),
(1090,2008,o),
(1004,2008,cs),
(908,2008,o),
(879,1974,o),
(848,1904,cs),
(83,203,ls),
(43,113,o),
(86,34,o),
(156,5,cs)
);
},
{
closed = 1;
nodes = (
(905,1459,l),
(973,1644,l),
(989,1455,l),
(1017,1082,l),
(769,1082,l)
);
}
);
vertWidth = 0;
width = 1577;
},
{
associatedMasterId = m01;
layerId = "CC05ECD8-6904-4D4D-92AC-3DF3C05EEB87";
name = background;
shapes = (
{
closed = 1;
nodes = (
(349,743,ls),
(354,756,o),
(343,772,o),
(321,772,cs),
(295,772,o),
(293,759,o),
(286,743,cs),
(-31,38,ls),
(-42,14,o),
(-26,0,o),
(-8,0,cs),
(15,0,o),
(21,8,o),
(30,30,cs),
(348,735,l)
);
},
{
closed = 1;
nodes = (
(366,388,l),
(356,442,l),
(200,442,l),
(177,388,l)
);
},
{
closed = 1;
nodes = (
(305,669,l),
(405,23,ls),
(406,11,o),
(411,0,o),
(437,0,c),
(459,0,o),
(465,13,o),
(462,31,cs),
(350,754,l)
);
},
{
closed = 1;
nodes = (
(349,743,ls),
(354,756,o),
(343,772,o),
(321,772,cs),
(295,772,o),
(293,759,o),
(286,743,cs),
(-31,38,ls),
(-42,14,o),
(-26,0,o),
(-8,0,cs),
(15,0,o),
(21,8,o),
(30,30,cs),
(348,735,l)
);
},
{
closed = 1;
nodes = (
(366,388,l),
(356,442,l),
(200,442,l),
(177,388,l)
);
},
{
closed = 1;
nodes = (
(305,669,l),
(405,23,ls),
(406,11,o),
(411,0,o),
(437,0,c),
(459,0,o),
(465,13,o),
(462,31,cs),
(350,754,l)
);
}
);
vertWidth = 0;
width = 594;
},
{
associatedMasterId = m002;
layerId = "11FF2575-6263-44BF-95EA-B853E43D43A6";
name = background;
shapes = (
{
closed = 1;
nodes = (
(426,718,l),
(430,748,o),
(404,772,o),
(367,772,cs),
(327,772,o),
(318,756,o),
(309,732,c),
(14,78,ls),
(-1,44,o),
(15,13,o),
(43,2,cs),
(70,-8,o),
(108,4,o),
(122,39,cs),
(350,584,l)
);
},
{
closed = 1;
nodes = (
(390,347,l),
(373,442,l),
(274,442,l),
(234,347,l)
);
},
{
closed = 1;
nodes = (
(343,601,l),
(418,58,ls),
(424,14,o),
(448,-6,o),
(486,0,cs),
(519,5,o),
(535,31,o),
(529,72,cs),
(425,735,l)
);
}
);
vertWidth = 0;
width = 594;
}
);
unicode = 65;
},
{
glyphname = B;
lastChange = "2023-09-28 18:31:05 +0000";
layers = (
{
anchors = (
{
name = bottom;
pos = (756,0);
},
{
name = center;
pos = (862,1004);
},
{
name = top;
pos = (967,2008);
}
);
layerId = m01;
shapes = (
{
closed = 1;
nodes = (
(963,0,o),
(1401,223,o),
(1439,564,cs),
(1463,811,o),
(1300,1005,o),
(944,1082,c),
(1366,1168,o),
(1417,1319,o),
(1439,1498,cs),
(1482,1841,o),
(1137,2037,o),
(471,2006,cs),
(423,2003,o),
(402,1987,o),
(397,1936,cs),
(203,80,ls),
(198,33,o),
(224,0,o),
(261,0,cs)
);
},
{
closed = 1;
nodes = (
(425,1008,l),
(1081,1055,o),
(1341,850,o),
(1313,583,cs),
(1287,319,o),
(950,124,o),
(330,114,c)
);
},
{
closed = 1;
nodes = (
(520,1900,l),
(1089,1918,o),
(1342,1733,o),
(1313,1507,cs),
(1288,1309,o),
(1178,1145,o),
(436,1113,c)
);
}
);
vertWidth = 0;
width = 1512;
},
{
anchors = (
{
name = bottom;
pos = (781,0);
},
{
name = center;
pos = (887,1004);
},
{
name = top;
pos = (992,2008);
}
);
layerId = m002;
shapes = (
{
closed = 1;
nodes = (
(1062,0,o),
(1530,213,o),
(1572,562,cs),
(1595,788,o),
(1464,977,o),
(1203,1085,c),
(1489,1171,o),
(1545,1311,o),
(1574,1496,cs),
(1629,1839,o),
(1243,2036,o),
(531,2008,cs),
(428,2004,o),
(372,1987,o),
(359,1860,cs),
(180,164,ls),
(170,70,o),
(232,0,o),
(326,0,cs)
);
},
{
closed = 1;
nodes = (
(560,938,l),
(1019,940,o),
(1276,774,o),
(1252,603,cs),
(1231,439,o),
(981,321,o),
(493,302,c)
);
},
{
closed = 1;
nodes = (
(644,1731,l),
(1085,1728,o),
(1285,1590,o),
(1262,1433,cs),
(1243,1305,o),
(1146,1211,o),
(586,1184,c)
);
}
);
vertWidth = 0;
width = 1650;
},
{
associatedMasterId = m01;
layerId = "B07E2D77-9B76-46A5-9AD8-52245F6FEE2E";
name = background;
shapes = (
{
closed = 1;
nodes = (
(470,356,o),
(498,436,o),
(512,564,cs),
(527,704,o),
(400,772,o),
(133,772,c),
(126,718,l),
(347,718,o),
(463,671,o),
(453,567,cs),
(443,481,o),
(434,416,o),
(116,416,c),
(110,356,l)
);
},
{
closed = 1;
nodes = (
(397,0,o),
(486,37,o),
(500,171,cs),
(516,321,o),
(361,416,o),
(112,416,c),
(107,356,l),
(333,356,o),
(451,284,o),
(441,179,cs),
(430,78,o),
(305,55,o),
(56,55,c),
(51,0,l)
);
},
{
closed = 1;
nodes = (
(162,762,o),
(156,772,o),
(133,772,cs),
(113,772,o),
(102,764,o),
(100,740,cs),
(26,37,ls),
(24,17,o),
(37,0,o),
(57,0,cs),
(74,0,o),
(83,11,o),
(86,34,cs),
(159,735,ls)
);
}
);
vertWidth = 0;
width = 594;
},
{
associatedMasterId = m002;
layerId = "41C18EEF-24E8-472E-9093-D1506CBD8D1D";
name = background;
shapes = (
{
closed = 1;
nodes = (
(498,335,o),
(526,456,o),
(537,549,cs),
(548,651,o),
(495,772,o),
(135,772,c),
(122,664,l),
(451,664,o),
(429,587,o),
(424,555,cs),
(418,517,o),
(388,425,o),
(151,425,c),
(141,335,l)
);
},
{
closed = 1;
nodes = (
(413,0,o),
(524,25,o),
(541,179,cs),
(557,339,o),
(367,425,o),
(145,425,c),
(134,335,l),
(345,335,o),
(437,286,o),
(429,200,cs),
(421,118,o),
(334,114,o),
(75,114,c),
(65,0,l)
);
},
{
closed = 1;
nodes = (
(204,764,o),
(166,772,o),
(138,772,cs),
(109,772,o),
(84,763,o),
(80,723,cs),
(10,63,ls),
(6,27,o),
(34,0,o),
(70,0,cs),
(97,0,o),
(124,13,o),
(128,52,cs),
(198,712,ls)
);
}
);
vertWidth = 0;
width = 594;
}
);
metricLeft = H;
unicode = 66;
},
{
glyphname = C;
kernLeft = O_left;
lastChange = "2023-09-28 19:26:55 +0000";
layers = (
{
anchors = (
{
name = bottom;
pos = (595,0);
},
{
name = top;
pos = (806,2008);
}
);
layerId = m01;
shapes = (
{
closed = 1;
nodes = (
(884,-20,o),
(1118,182,o),
(1213,373,cs),
(1253,449,o),
(1257,480,o),
(1214,504,cs),
(1171,525,o),
(1142,500,o),
(1109,432,cs),
(1027,275,o),
(860,95,o),
(603,95,cs),
(294,95,o),
(151,425,o),
(261,1038,cs),
(351,1517,o),
(545,1887,o),
(909,1887,cs),
(1062,1887,o),
(1186,1798,o),
(1251,1752,c),
(1280,1727,o),
(1323,1711,o),
(1358,1750,cs),
(1390,1788,o),
(1373,1822,o),
(1346,1846,cs),
(1261,1923,o),
(1135,2008,o),
(898,2008,cs),
(478,2008,o),
(238,1587,o),
(138,1050,cs),
(9,381,o),
(185,-20,o),
(612,-20,cs)
);
}
);
vertWidth = 0;
width = 1304;
},
{
anchors = (
{
name = bottom;
pos = (712,0);
},
{
name = top;
pos = (923,2008);
}
);
layerId = m002;
shapes = (
{
closed = 1;
nodes = (
(1083,-20,o),
(1341,162,o),
(1445,352,cs),
(1515,482,o),
(1468,584,o),
(1393,623,cs),
(1315,664,o),
(1244,633,o),
(1208,552,cs),
(1135,402,o),
(987,253,o),
(750,253,cs),
(518,253,o),
(425,504,o),
(490,1022,cs),
(544,1474,o),
(734,1749,o),
(1067,1749,cs),
(1187,1749,o),
(1315,1676,o),
(1380,1630,cs),
(1447,1583,o),
(1525,1593,o),
(1575,1679,cs),
(1627,1773,o),
(1588,1864,o),
(1531,1905,cs),
(1455,1963,o),
(1234,2028,o),
(1047,2028,cs),
(563,2028,o),
(271,1688,o),
(177,1058,cs),
(81,408,o),
(274,-20,o),
(745,-20,cs)
);
}
);
vertWidth = 0;
width = 1597;
},
{
associatedMasterId = m01;
layerId = "52EFED00-95E8-43A2-983B-57F1EBD9EA9F";
name = background;
shapes = (
{
closed = 1;
nodes = (
(557,695,o),
(577,690,o),
(587,710,cs),
(596,729,o),
(584,743,o),
(573,747,cs),
(536,763,o),
(498,771,o),
(394,771,cs),
(210,771,o),
(116,606,o),
(96,402,cs),
(95,378,o),
(82,259,o),
(86,204,cs),
(93,101,o),
(134,-5,o),
(284,-5,cs),
(391,-5,o),
(486,71,o),
(520,141,cs),
(538,181,o),
(542,195,o),
(522,206,cs),
(497,217,o),
(482,203,o),
(469,176,cs),
(438,116,o),
(365,50,o),
(279,50,cs),
(171,50,o),
(150,135,o),
(145,203,cs),
(140,267,o),
(153,368,o),
(159,415,cs),
(175,575,o),
(257,716,o),
(398,716,cs),
(491,716,o),
(519,709,o),
(545,700,cs)
);
}
);
vertWidth = 0;
width = 594;
},
{
associatedMasterId = m002;
layerId = "66F140A1-F38A-450F-A5C8-1AF38644720C";
name = background;
shapes = (
{
closed = 1;
nodes = (
(444,-5,o),
(549,69,o),
(580,151,cs),
(605,223,o),
(608,261,o),
(550,276,cs),
(499,287,o),
(489,254,o),
(473,209,cs),
(453,156,o),
(390,114,o),
(308,114,cs),
(235,114,o),
(208,143,o),
(203,198,cs),
(200,261,o),
(211,368,o),
(219,412,cs),
(232,536,o),
(279,653,o),
(438,653,cs),
(473,653,o),
(531,649,o),
(576,638,cs),
(596,633,o),
(631,638,o),
(643,677,cs),
(653,714,o),
(639,737,o),
(618,746,cs),
(571,766,o),
(491,772,o),
(430,772,cs),
(192,772,o),
(115,590,o),
(97,413,cs),
(93,388,o),
(81,260,o),
(84,200,cs),
(90,124,o),
(139,-5,o),
(315,-5,cs)
);
}
);
vertWidth = 0;
width = 594;
}
);
unicode = 67;
},
{
glyphname = D;
lastChange = "2023-09-28 18:31:05 +0000";
layers = (
{
anchors = (
{
name = bottom;
pos = (743,0);
},
{
name = center;
pos = (849,1004);
},
{
name = top;
pos = (954,2008);
}
);
layerId = m01;
shapes = (
{
closed = 1;
nodes = (
(461,0,ls),
(1068,0,o),
(1395,401,o),
(1469,1053,cs),
(1533,1621,o),
(1219,2008,o),
(646,2008,cs),
(472,2008,ls),
(414,2008,o),
(403,1985,o),
(398,1938,cs),
(200,66,ls),
(196,25,o),
(213,0,o),
(263,0,cs)
);
},
{
closed = 1;
nodes = (
(519,1898,l),
(667,1898,ls),
(1137,1898,o),
(1401,1539,o),
(1348,1062,cs),
(1277,463,o),
(998,113,o),
(450,113,cs),
(329,113,l)
);
}
);
vertWidth = 0;
width = 1485;
},
{
anchors = (
{
name = bottom;
pos = (779,0);
},
{
name = center;
pos = (885,1004);
},
{
name = top;
pos = (990,2008);
}
);
layerId = m002;
shapes = (
{
closed = 1;
nodes = (
(564,0,ls),
(1160,0,o),
(1550,398,o),
(1617,1038,cs),
(1675,1615,o),
(1323,2008,o),
(730,2008,cs),
(512,2008,ls),
(416,2007,o),
(371,1965,o),
(361,1881,cs),
(179,151,ls),
(171,67,o),
(235,0,o),
(327,0,cs)
);
},
{
closed = 1;
nodes = (
(659,1737,l),
(697,1737,ls),
(1110,1737,o),
(1360,1511,o),
(1318,1048,cs),
(1271,536,o),
(985,276,o),
(546,276,cs),
(504,276,l)
);
}
);
vertWidth = 0;
width = 1645;
},
{
associatedMasterId = m01;
layerId = "65D45964-139F-42EA-844B-768674C9B4E8";
name = background;
shapes = (
{
closed = 1;
nodes = (
(143,0,ls),
(371,0,o),
(510,152,o),
(537,417,cs),
(560,619,o),
(412,772,o),
(188,772,cs),
(146,772,l),
(139,718,l),
(196,718,ls),
(385,718,o),
(495,581,o),
(479,416,cs),
(454,184,o),
(331,55,o),
(139,55,cs),
(74,55,l),
(67,0,l)
);
},
{
closed = 1;
nodes = (
(173,757,o),
(171,772,o),
(146,772,cs),
(120,772,o),
(114,759,o),
(112,740,cs),
(37,32,ls),
(34,14,o),
(45,0,o),
(67,0,cs),
(93,0,o),
(95,18,o),
(96,30,cs),
(171,735,ls)
);
}
);
vertWidth = 0;
width = 594;
}
);
metricLeft = H;
unicode = 68;
},
{
glyphname = E;
lastChange = "2023-09-28 19:26:08 +0000";
layers = (
{
anchors = (
{
name = bottom;
pos = (702,0);
},
{
name = ogonek;
pos = (1218,10);
},
{
name = top;
pos = (913,2008);
},
{
name = topleft;
pos = (288,2008);
}
);
layerId = m01;
shapes = (
{
closed = 1;
nodes = (
(1233,0,ls),
(1285,0,o),
(1301,25,o),
(1301,60,cs),
(1301,92,o),
(1285,113,o),
(1233,113,cs),
(328,113,l),
(424,1024,l),
(1262,1024,ls),
(1318,1024,o),
(1341,1051,o),
(1341,1082,cs),
(1341,1113,o),
(1323,1137,o),
(1270,1137,cs),
(436,1137,l),
(516,1898,l),
(1433,1898,ls),
(1485,1898,o),
(1501,1921,o),
(1501,1953,cs),
(1501,1984,o),
(1485,2008,o),
(1433,2008,cs),
(470,2008,ls),
(413,2008,o),
(402,1985,o),
(397,1938,cs),
(200,66,l),
(193,25,o),
(213,0,o),
(263,0,cs)
);
}
);
vertWidth = 0;
width = 1453;
},
{
anchors = (
{
name = bottom;
pos = (742,0);
},
{
name = ogonek;
pos = (1361,10);
},
{
name = top;
pos = (953,2008);
},
{
name = topleft;
pos = (200,2008);
}
);
layerId = m002;
shapes = (
{
closed = 1;
nodes = (
(1330,0,ls),
(1424,0,o),
(1476,81,o),
(1476,161,cs),
(1476,234,o),
(1418,294,o),
(1320,294,cs),
(505,294,l),
(574,951,l),
(1340,951,ls),
(1439,951,o),
(1496,1010,o),
(1496,1083,cs),
(1496,1164,o),
(1429,1213,o),
(1338,1213,cs),
(602,1213,l),
(655,1714,l),
(1512,1714,ls),
(1606,1714,o),
(1660,1792,o),
(1660,1873,cs),
(1660,1951,o),
(1598,2008,o),
(1502,2008,cs),
(521,2008,ls),
(425,2008,o),
(371,1974,o),
(362,1888,cs),
(180,153,ls),
(171,68,o),
(212,0,o),
(321,0,cs)
);
}
);
vertWidth = 0;
width = 1631;
}
);
metricLeft = H;
unicode = 69;
},
{
glyphname = F;
lastChange = "2023-09-29 01:23:56 +0000";
layers = (
{
anchors = (
{
name = bottom;
pos = (702,0);
},
{
name = top;
pos = (913,2008);
}
);
layerId = m01;
shapes = (
{
closed = 1;
nodes = (
(318,0,o),
(321,43,o),
(324,74,cs),
(426,1024,l),
(1240,1024,ls),
(1294,1024,o),
(1311,1050,o),
(1311,1082,cs),
(1311,1113,o),
(1294,1137,o),
(1240,1137,cs),
(437,1137,l),
(518,1899,l),
(1433,1899,ls),
(1485,1899,o),
(1502,1922,o),
(1502,1954,cs),
(1502,1985,o),
(1485,2009,o),
(1433,2009,cs),
(471,2009,ls),
(413,2009,o),
(403,1986,o),
(398,1939,cs),
(201,75,ls),
(197,34,o),
(213,0,o),
(264,0,cs)
);
}
);
vertWidth = 0;
width = 1454;
},
{
anchors = (
{
name = bottom;
pos = (764,0);
},
{
name = top;
pos = (975,2008);
}
);
layerId = m002;
shapes = (
{
closed = 1;
nodes = (
(428,0,o),
(480,65,o),
(490,159,cs),
(575,951,l),
(1380,951,ls),
(1478,951,o),
(1523,1009,o),
(1523,1084,cs),
(1523,1162,o),
(1458,1214,o),
(1364,1214,cs),
(603,1214,l),
(654,1714,l),
(1544,1714,ls),
(1638,1714,o),
(1703,1776,o),
(1703,1868,cs),
(1703,1953,o),
(1638,2008,o),
(1541,2008,cs),
(514,2008,ls),
(418,2008,o),
(370,1972,o),
(361,1886,cs),
(181,166,ls),
(172,83,o),
(214,0,o),
(303,0,cs)
);
}
);
vertWidth = 0;
width = 1675;
}
);
metricLeft = E;
metricRight = E;
unicode = 70;
},
{
glyphname = G;
lastChange = "2023-09-29 01:22:43 +0000";
layers = (
{
anchors = (
{
name = bottom;
pos = (678,0);
},
{
name = top;
pos = (889,2008);
}
);
layerId = m01;
shapes = (
{
closed = 1;
nodes = (
(794,-20,o),
(1012,165,o),
(1225,693,c),
(1162,96,ls),
(1155,33,o),
(1164,0,o),
(1213,0,cs),
(1273,0,o),
(1281,36,o),
(1288,99,cs),
(1382,1001,ls),
(1386,1044,o),
(1358,1067,o),
(1311,1067,cs),
(1270,1067,o),
(1263,1046,o),
(1245,1003,cs),
(1025,490,o),
(854,93,o),
(567,93,cs),
(284,93,o),
(169,508,o),
(256,1035,cs),
(327,1464,o),
(586,1890,o),
(937,1890,cs),
(1120,1890,o),
(1254,1771,o),
(1322,1700,cs),
(1352,1670,o),
(1384,1664,o),
(1413,1691,cs),
(1444,1720,o),
(1447,1758,o),
(1419,1795,cs),
(1343,1898,o),
(1167,2008,o),
(960,2008,cs),
(508,2008,o),
(222,1535,o),
(135,1050,cs),
(22,438,o),
(185,-20,o),
(539,-20,cs)
);
}
);
vertWidth = 0;
width = 1584;
},
{
anchors = (
{
name = bottom;
pos = (802,0);
},
{
name = top;
pos = (1013,2008);
}
);
layerId = m002;
shapes = (
{
closed = 1;
nodes = (
(867,-13,o),
(1055,205,o),
(1219,535,c),
(1170,151,ls),
(1158,56,o),
(1210,0,o),
(1316,0,cs),
(1423,0,o),
(1454,55,o),
(1464,130,cs),
(1555,988,ls),
(1566,1085,o),
(1501,1144,o),
(1405,1144,cs),
(1288,1144,o),
(1275,1116,o),
(1113,838,cs),
(1020,671,o),
(778,263,o),
(658,263,cs),
(502,263,o),
(450,528,o),
(510,1017,cs),
(559,1428,o),
(661,1727,o),
(1012,1727,cs),
(1163,1727,o),
(1254,1678,o),
(1285,1600,cs),
(1324,1506,o),
(1392,1470,o),
(1493,1498,cs),
(1579,1519,o),
(1600,1607,o),
(1579,1683,cs),
(1522,1904,o),
(1293,2008,o),
(1012,2008,cs),
(518,2008,o),
(284,1641,o),
(198,1056,cs),
(104,429,o),
(193,-13,o),
(637,-13,cs)
);
}
);
vertWidth = 0;
width = 1728;
},
{
associatedMasterId = m002;
layerId = "38D35BBD-0824-4139-A76A-CF2BFBC65422";
name = background;
shapes = (
{
closed = 1;
nodes = (
(491,440,o),
(485,429,o),
(423,322,cs),
(386,258,o),
(293,101,o),
(247,101,cs),
(214,101,o),
(207,135,o),
(203,184,cs),
(198,254,o),
(210,361,o),
(216,421,cs),
(228,529,o),
(247,665,o),
(443,665,cs),
(470,665,o),
(497,637,o),
(501,617,cs),
(511,579,o),
(554,570,o),
(582,577,cs),
(614,587,o),
(623,619,o),
(614,649,cs),
(593,733,o),
(516,772,o),
(435,772,cs),
(156,772,o),
(114,579,o),
(95,405,cs),
(93,381,o),
(80,252,o),
(84,179,cs),
(90,94,o),
(126,-5,o),
(240,-5,cs),
(353,-5,o),
(457,182,o),
(532,315,c),
(536,440,l)
);
},
{
closed = 1;
nodes = (
(596,417,o),
(571,440,o),
(535,440,cs),
(488,440,o),
(475,407,o),
(473,388,cs),
(438,58,ls),
(435,21,o),
(460,0,o),
(500,0,cs),
(542,0,o),
(554,21,o),
(557,50,cs),
(593,380,ls)
);
}
);
vertWidth = 0;
width = 594;
}
);
metricRight = H;
unicode = 71;
},
{
glyphname = H;
lastChange = "2023-09-28 18:30:43 +0000";
layers = (
{
anchors = (
{
name = bottom;
pos = (776,0);
},
{
name = center;
pos = (882,1004);
},
{
name = top;
pos = (987,2008);
},
{
name = topleft;
pos = (288,2008);
}
);
layerId = m01;
shapes = (
{
closed = 1;
nodes = (
(317,0,o),
(325,33,o),
(328,64,cs),
(427,1024,l),
(1341,1024,l),
(1242,67,ls),
(1238,33,o),
(1245,0,o),
(1305,0,cs),
(1352,0,o),
(1362,28,o),
(1365,55,cs),
(1563,1937,ls),
(1568,1984,o),
(1554,2008,o),
(1502,2008,cs),
(1454,2008,o),
(1441,1983,o),
(1438,1954,cs),
(1353,1137,l),
(439,1137,l),
(520,1928,ls),
(525,1981,o),
(512,2008,o),
(470,2008,cs),
(420,2008,o),
(402,1983,o),
(397,1938,cs),
(200,66,ls),
(196,25,o),
(213,0,o),
(263,0,cs)
);
}
);
vertWidth = 0;
width = 1666;
},
{
anchors = (
{
name = bottom;
pos = (835,0);
},
{
name = center;
pos = (941,1004);
},
{
name = top;
pos = (1046,2008);
},
{
name = topleft;
pos = (200,2008);
}
);
layerId = m002;
shapes = (
{
closed = 1;
nodes = (
(439,0,o),
(481,62,o),
(488,125,cs),
(577,959,l),
(1301,959,l),
(1217,151,ls),
(1208,62,o),
(1264,0,o),
(1365,0,cs),
(1456,0,o),
(1518,52,o),
(1524,114,cs),
(1706,1852,ls),
(1716,1951,o),
(1651,2008,o),
(1555,2008,cs),
(1469,2008,o),
(1406,1961,o),
(1399,1894,cs),
(1327,1206,l),
(602,1206,l),
(668,1844,ls),
(679,1953,o),
(624,2008,o),
(535,2008,cs),
(452,2008,o),
(370,1969,o),
(361,1881,cs),
(179,151,ls),
(170,65,o),
(236,0,o),
(335,0,cs)
);
}
);
vertWidth = 0;
width = 1789;
}
);
unicode = 72;
},
{
glyphname = I;
lastChange = "2023-09-28 18:31:05 +0000";
layers = (
{
anchors = (
{
name = bottom;
pos = (257,0);
},
{
name = ogonek;
pos = (417,10);
},
{
name = top;
pos = (468,2008);
},
{
name = topleft;
pos = (288,2008);
}
);
layerId = m01;
shapes = (
{
closed = 1;
nodes = (
(317,0,o),
(324,34,o),
(327,65,cs),
(523,1929,ls),
(529,1983,o),
(524,2008,o),
(473,2008,cs),
(419,2008,o),
(402,1984,o),
(397,1938,cs),
(200,66,ls),
(196,25,o),
(215,0,o),
(261,0,cs)
);
}
);
vertWidth = 0;
width = 627;
},
{
anchors = (
{
name = bottom;
pos = (315,0);
},
{
name = ogonek;
pos = (592,10);
},
{
name = top;
pos = (526,2008);
},
{
name = topleft;
pos = (200,2008);
}
);
layerId = m002;
shapes = (
{
closed = 1;
nodes = (
(415,0,o),
(477,55,o),
(484,120,cs),
(665,1844,ls),
(679,1974,o),
(602,2008,o),
(524,2008,cs),
(433,2008,o),
(370,1969,o),
(361,1881,cs),
(179,151,ls),
(170,65,o),
(218,0,o),
(311,0,cs)
);
}
);
vertWidth = 0;
width = 748;
}
);
metricLeft = H;
metricRight = H;
unicode = 73;
},
{
glyphname = J;
lastChange = "2023-09-28 18:31:05 +0000";
layers = (
{
anchors = (
{
name = bottom;
pos = (451,0);
},
{
name = top;
pos = (662,2008);
}
);
layerId = m01;
shapes = (
{
closed = 1;
nodes = (
(697,0,o),
(842,183,o),
(890,637,cs),
(1025,1927,ls),
(1031,1980,o),
(1025,2008,o),
(973,2008,cs),
(919,2008,o),
(908,1980,o),
(903,1936,cs),
(766,633,ls),
(727,265,o),
(604,113,o),
(392,113,cs),
(255,113,o),
(175,193,o),
(112,273,cs),
(81,312,o),
(48,320,o),
(21,291,cs),
(-11,261,o),
(-5,228,o),
(22,194,cs),
(111,82,o),
(230,0,o),
(392,0,cs)
);
}
);
vertWidth = 0;
width = 1130;
},
{
anchors = (
{
name = bottom;
pos = (591,0);
},
{
name = top;
pos = (802,2008);
}
);
layerId = m002;
shapes = (
{
closed = 1;
nodes = (
(835,-13,o),
(1068,166,o),
(1113,596,cs),
(1244,1844,ls),
(1258,1974,o),
(1181,2008,o),
(1103,2008,cs),
(1015,2008,o),
(948,1969,o),
(939,1881,cs),
(812,671,ls),
(776,330,o),
(687,263,o),
(523,263,cs),
(427,263,o),
(344,364,o),
(297,411,cs),
(237,471,o),
(118,460,o),
(71,395,cs),
(24,330,o),
(37,242,o),
(81,195,cs),
(136,135,o),
(258,-13,o),
(534,-13,cs)
);
}
);
vertWidth = 0;
width = 1327;
},
{
associatedMasterId = m01;
layerId = "9959F246-042E-4193-B1B9-CF1C12FB95A6";
name = background;
shapes = (
{
closed = 1;
nodes = (
(340,244,ls),
(334,187,o),
(323,125,o),
(287,90,cs),
(266,68,o),
(232,55,o),
(191,55,cs),
(160,55,o),
(132,76,o),
(109,105,cs),
(94,125,o),
(69,134,o),
(56,122,cs),
(38,107,o),
(44,91,o),
(67,65,cs),
(96,31,o),
(139,0,o),
(195,0,cs),
(255,0,o),
(298,15,o),
(328,44,cs),
(372,86,o),
(390,156,o),
(399,244,cs),
(450,740,ls),
(453,762,o),
(448,777,o),
(424,777,cs),
(400,777,o),
(393,764,o),
(391,745,cs)
);
}
);
vertWidth = 0;
width = 594;
},
{
associatedMasterId = m002;
layerId = "134A83CF-652C-4B20-B6C4-B0C20135E8F6";
name = background;
shapes = (
{
closed = 1;
nodes = (
(333,328,ls),
(324,253,o),
(326,181,o),
(291,145,cs),
(271,122,o),
(233,112,o),
(208,112,cs),
(165,112,o),
(135,140,o),
(124,151,cs),
(100,173,o),
(56,175,o),
(34,141,cs),
(23,125,o),
(27,93,o),
(44,75,cs),
(65,52,o),
(112,-5,o),
(219,-5,cs),
(284,-5,o),
(343,24,o),
(386,70,cs),
(440,127,o),
(438,219,o),
(449,318,cs),
(491,709,ls),
(495,759,o),
(467,772,o),
(437,772,cs),
(403,772,o),
(378,757,o),
(374,723,cs)
);
}
);
vertWidth = 0;
width = 594;
}
);
metricRight = H;
unicode = 74;
},
{
glyphname = K;
lastChange = "2023-09-28 18:31:05 +0000";
layers = (
{
anchors = (
{
name = bottom;
pos = (713,0);
},
{
name = top;
pos = (924,2008);
}
);
layerId = m01;
shapes = (
{
closed = 1;
nodes = (
(317,0,o),
(325,42,o),
(329,83,cs),
(434,1065,l),
(1184,54,ls),
(1207,24,o),
(1236,0,o),
(1269,0,cs),
(1296,0,o),
(1316,12,o),
(1321,40,cs),
(1325,60,o),
(1322,77,o),
(1301,106,cs),
(596,1080,l),
(1465,1823,ls),
(1498,1851,o),
(1517,1873,o),
(1517,1898,cs),
(1517,1929,o),
(1498,1950,o),
(1466,1950,cs),
(1440,1950,o),
(1415,1944,o),
(1381,1915,cs),
(436,1104,l),
(520,1929,ls),
(525,1983,o),
(519,2008,o),
(470,2008,cs),
(418,2008,o),
(402,1984,o),
(397,1938,cs),
(202,82,ls),
(198,40,o),
(216,0,o),
(265,0,cs)
);
}
);
vertWidth = 0;
width = 1425;
},
{
anchors = (
{
name = bottom;
pos = (765,0);
},
{
name = top;
pos = (976,2008);
}
);
layerId = m002;
shapes = (
{
closed = 1;
nodes = (
(439,0,o),
(483,60,o),
(491,138,cs),
(575,946,l),
(1219,78,ls),
(1259,24,o),
(1316,0,o),
(1368,0,cs),
(1447,0,o),
(1518,50,o),
(1518,125,cs),
(1518,156,o),
(1507,191,o),
(1479,229,cs),
(845,1080,l),
(1633,1737,ls),
(1680,1776,o),
(1700,1823,o),
(1700,1866,cs),
(1701,1943,o),
(1639,2008,o),
(1556,2008,cs),
(1516,2008,o),
(1472,1989,o),
(1427,1951,cs),
(606,1250,l),
(668,1844,ls),
(681,1966,o),
(600,2008,o),
(525,2008,cs),
(444,2008,o),
(370,1969,o),
(361,1881,cs),
(181,166,ls),
(171,75,o),
(244,0,o),
(343,0,cs)
);
}
);
vertWidth = 0;
width = 1617;
}
);
metricLeft = H;
unicode = 75;
},
{
glyphname = L;
lastChange = "2023-09-29 01:23:56 +0000";
layers = (
{
anchors = (
{
name = bottom;
pos = (680,0);
},
{
name = center;
pos = (786,1004);
},
{
name = top;
pos = (891,2008);
},
{
name = topright;
pos = (1493,2008);
}
);
layerId = m01;
shapes = (
{
closed = 1;
nodes = (
(1193,0,ls),
(1241,0,o),
(1258,28,o),
(1258,66,cs),
(1258,104,o),
(1239,123,o),
(1190,123,cs),
(331,123,l),
(521,1929,ls),
(527,1983,o),
(521,2008,o),
(471,2008,cs),
(416,2008,o),
(402,1984,o),
(397,1938,cs),
(201,66,ls),
(197,25,o),
(215,0,o),
(264,0,cs)
);
}
);
vertWidth = 0;
width = 1409;
},
{
anchors = (
{
name = bottom;
pos = (719,0);
},
{
name = center;
pos = (825,1004);
},
{
name = top;
pos = (930,2008);
},
{
name = topright;
pos = (1660,2008);
}
);
layerId = m002;
shapes = (
{
closed = 1;
nodes = (
(1290,0,ls),
(1381,0,o),
(1433,68,o),
(1433,143,cs),
(1433,216,o),
(1362,281,o),
(1269,281,cs),
(503,281,l),
(668,1844,ls),
(682,1974,o),
(603,2008,o),
(525,2008,cs),
(436,2008,o),
(370,1969,o),
(361,1881,cs),
(179,151,ls),
(170,65,o),
(218,0,o),
(312,0,cs)
);
}
);
vertWidth = 0;
width = 1586;
}
);
metricLeft = E;
metricRight = E;
unicode = 76;
},
{
glyphname = M;
lastChange = "2023-09-28 18:31:05 +0000";
layers = (
{
anchors = (
{
name = bottom;
pos = (1167,0);
},
{
name = top;
pos = (1378,2008);
}
);
layerId = m01;
shapes = (
{
closed = 1;
nodes = (
(318,0,o),
(321,35,o),
(325,73,cs),
(497,1707,l),
(1104,50,ls),
(1114,22,o),
(1136,0,o),
(1173,0,cs),
(1205,0,o),
(1213,17,o),
(1231,48,cs),
(2190,1682,l),
(2024,66,ls),
(2021,34,o),
(2035,0,o),
(2082,0,cs),
(2138,0,o),
(2145,34,o),
(2148,65,cs),
(2343,1929,ls),
(2349,1982,o),
(2339,2008,o),
(2295,2008,cs),
(2253,2008,o),
(2245,1999,o),
(2225,1966,cs),
(1180,197,l),
(540,1937,ls),
(520,1990,o),
(509,2008,o),
(471,2008,cs),
(427,2008,o),
(402,1989,o),
(397,1938,cs),
(202,66,ls),
(198,25,o),
(215,0,o),
(265,0,cs)
);
}
);
vertWidth = 0;
width = 2448;
},
{
anchors = (
{
name = bottom;
pos = (1230,0);
},
{
name = top;
pos = (1441,2008);
}
);
layerId = m002;
shapes = (
{
closed = 1;
nodes = (
(426,0,o),
(484,60,o),
(491,130,cs),
(613,1306,l),
(1048,143,ls),
(1087,40,o),
(1150,0,o),
(1261,0,cs),
(1373,0,o),
(1415,65,o),
(1456,133,cs),
(2127,1284,l),
(2005,138,ls),
(1997,60,o),
(2062,0,o),
(2161,0,cs),
(2265,0,o),
(2308,60,o),
(2315,125,cs),
(2496,1844,ls),
(2506,1943,o),
(2455,2008,o),
(2351,2008,cs),
(2247,2008,o),
(2204,1981,o),
(2154,1896,cs),
(1265,377,l),
(705,1896,ls),
(675,1977,o),
(614,2008,o),
(520,2008,cs),
(421,2008,o),
(370,1966,o),
(361,1881,cs),
(182,151,ls),
(173,65,o),
(237,0,o),
(325,0,cs)
);
}
);
vertWidth = 0;
width = 2579;
}
);
metricLeft = H;
metricRight = H;
unicode = 77;
},
{
glyphname = N;
lastChange = "2023-09-28 18:31:05 +0000";
layers = (
{
anchors = (
{
name = bottom;
pos = (881,0);
},
{
name = top;
pos = (1092,2008);
}
);
layerId = m01;
shapes = (
{
closed = 1;
nodes = (
(317,0,o),
(320,35,o),
(324,73,cs),
(507,1792,l),
(1446,47,ls),
(1463,16,o),
(1482,0,o),
(1518,0,cs),
(1563,0,o),
(1571,18,o),
(1576,65,cs),
(1772,1929,ls),
(1778,1983,o),
(1771,2008,o),
(1722,2008,cs),
(1667,2008,o),
(1653,1984,o),
(1648,1938,cs),
(1470,259,l),
(554,1954,ls),
(536,1987,o),
(516,2008,o),
(469,2008,cs),
(413,2008,o),
(402,1985,o),
(397,1938,cs),
(201,66,ls),
(197,25,o),
(214,0,o),
(264,0,cs)
);
}
);
vertWidth = 0;
width = 1876;
},
{
anchors = (
{
name = bottom;
pos = (901,0);
},
{
name = top;
pos = (1112,2008);
}
);
layerId = m002;
shapes = (
{
closed = 1;
nodes = (
(423,0,o),
(481,60,o),
(488,130,cs),
(625,1419,l),
(1363,86,ls),
(1394,31,o),
(1441,0,o),
(1516,0,cs),
(1623,0,o),
(1650,60,o),
(1657,125,cs),
(1838,1844,ls),
(1848,1943,o),
(1794,2008,o),
(1692,2008,cs),
(1607,2008,o),
(1540,1969,o),
(1531,1881,cs),
(1398,635,l),
(686,1920,ls),
(650,1985,o),
(593,2008,o),
(523,2008,cs),
(424,2008,o),
(370,1966,o),
(361,1881,cs),
(179,151,ls),
(170,65,o),
(231,0,o),
(322,0,cs)
);
}
);
vertWidth = 0;
width = 1921;
}
);
metricLeft = H;
metricRight = H;
unicode = 78;
},
{
glyphname = O;
lastChange = "2023-09-28 18:13:18 +0000";
layers = (
{
anchors = (
{
name = bottom;
pos = (653,0);
},
{
name = center;
pos = (759,1004);
},
{
name = ogonek;
pos = (1222,10);
},
{
name = top;
pos = (864,2008);
},
{
name = topleft;
pos = (174,2008);
},
{
name = topright;
pos = (1554,2008);
}
);
layerId = m01;
shapes = (
{
closed = 1;
nodes = (
(1011,-20,o),
(1325,766,o),
(1385,1347,cs),
(1424,1690,o),
(1238,2008,o),
(872,2008,cs),
(392,2008,o),
(180,1396,o),
(180,851,cs),
(180,400,o),
(276,-20,o),
(524,-20,cs)
);
},
{
closed = 1;
nodes = (
(367,93,o),
(293,470,o),
(303,853,cs),
(316,1331,o),
(469,1898,o),
(857,1898,cs),
(1167,1898,o),
(1294,1644,o),
(1259,1312,cs),
(1212,867,o),
(935,93,o),
(511,93,cs)
);
}
);
vertWidth = 0;
width = 1420;
},
{
anchors = (
{
name = bottom;
pos = (737,0);
},
{
name = center;
pos = (843,1004);
},
{
name = ogonek;
pos = (1373,10);
},
{
name = top;
pos = (948,2008);
},
{
name = topleft;
pos = (174,2008);
},
{
name = topright;
pos = (1722,2008);
}
);
layerId = m002;
shapes = (
{
closed = 1;
nodes = (
(1069,-20,o),
(1503,655,o),
(1571,1327,cs),
(1607,1693,o),
(1371,2028,o),
(936,2028,cs),
(491,2028,o),
(179,1610,o),
(179,848,cs),
(179,372,o),
(265,-20,o),
(635,-20,cs)
);
},
{
closed = 1;
nodes = (
(507,258,o),
(489,577,o),
(489,853,cs),
(489,1353,o),
(655,1749,o),
(944,1749,cs),
(1196,1749,o),
(1282,1566,o),
(1259,1319,cs),
(1215,869,o),
(874,258,o),
(666,258,cs)
);
}
);
vertWidth = 0;
width = 1588;
},
{
associatedMasterId = m01;
layerId = "20C156BE-152D-4B18-BA16-9023BA2DA609";
name = background;
shapes = (
{
closed = 1;
nodes = (
(399,-5,o),
(522,293,o),
(545,517,cs),
(560,651,o),
(486,772,o),
(334,772,cs),
(188,772,o),
(125,662,o),
(87,486,cs),
(77,438,o),
(70,383,o),
(70,330,cs),
(67,170,o),
(105,-5,o),
(208,-5,cs)
);
},
{
closed = 1;
nodes = (
(147,50,o),
(129,211,o),
(129,318,cs),
(131,368,o),
(134,422,o),
(143,461,cs),
(176,625,o),
(226,718,o),
(329,718,cs),
(473,718,o),
(495,607,o),
(485,505,cs),
(465,312,o),
(347,50,o),
(203,50,cs)
);
}
);
vertWidth = 0;
width = 594;
},
{
associatedMasterId = m002;
layerId = "FECD28BB-41F6-409F-998E-C3EA8BC308B1";
name = background;
shapes = (
{
closed = 1;
nodes = (
(434,-5,o),
(582,287,o),
(605,510,cs),
(619,651,o),
(513,775,o),
(361,775,cs),
(209,775,o),
(125,659,o),
(87,487,cs),
(77,440,o),
(70,386,o),
(70,336,cs),
(68,178,o),
(89,-5,o),
(232,-5,cs)
);
},
{
closed = 1;
nodes = (
(194,102,o),
(188,222,o),
(189,320,cs),
(189,366,o),
(194,413,o),
(201,449,cs),
(232,600,o),
(272,668,o),
(364,668,cs),
(487,668,o),
(492,575,o),
(485,507,cs),
(466,334,o),
(335,102,o),
(244,102,cs)
);
}
);
vertWidth = 0;
width = 594;
}
);
unicode = 79;
},
{
glyphname = P;
lastChange = "2023-09-28 18:31:05 +0000";
layers = (
{
anchors = (
{
name = bottom;
pos = (713,0);
},
{
name = top;
pos = (924,2008);
}
);
layerId = m01;
shapes = (
{
closed = 1;
nodes = (
(318,0,o),
(322,46,o),
(325,78,cs),
(427,1025,l),
(992,1028,o),
(1425,1120,o),
(1466,1499,cs),
(1502,1833,o),
(1109,2038,o),
(472,2004,cs),
(417,2001,o),
(403,1983,o),
(398,1934,cs),
(201,79,ls),
(197,37,o),
(216,0,o),
(264,0,cs)
);
},
{
closed = 1;
nodes = (
(519,1897,l),
(1066,1918,o),
(1371,1736,o),
(1343,1511,cs),
(1306,1204,o),
(945,1137,o),
(438,1135,c)
);
}
);
vertWidth = 0;
width = 1425;
},
{
anchors = (
{
name = bottom;
pos = (714,0);
},
{
name = top;
pos = (925,2008);
}
);
layerId = m002;
shapes = (
{
closed = 1;
nodes = (
(441,0,o),
(483,70,o),
(490,138,cs),
(574,945,l),
(1010,954,o),
(1493,992,o),
(1544,1444,cs),
(1591,1860,o),
(1165,2026,o),
(501,2008,cs),
(420,2006,o),
(370,1969,o),
(361,1881,cs),
(181,166,ls),
(172,83,o),
(233,0,o),
(334,0,cs)
);
},
{
closed = 1;
nodes = (
(656,1733,l),
(1113,1727,o),
(1256,1638,o),
(1235,1459,cs),
(1212,1263,o),
(905,1232,o),
(603,1224,c)
);
}
);
vertWidth = 0;
width = 1515;
},
{
associatedMasterId = m01;
layerId = "02DD8EBC-8F3A-4034-A466-F24C24D63358";
name = background;
shapes = (
{
closed = 1;
nodes = (
(329,361,o),
(512,381,o),
(531,565,cs),
(545,709,o),
(383,772,o),
(150,772,c),
(153,718,l),
(368,718,o),
(482,666,o),
(472,571,cs),
(457,436,o),
(301,416,o),
(129,416,c),
(125,361,l)
);
},
{
closed = 1;
nodes = (
(172,757,o),
(170,772,o),
(145,772,cs),
(119,772,o),
(113,759,o),
(110,740,cs),
(36,32,ls),
(33,14,o),
(44,-5,o),
(65,-5,cs),
(91,-5,o),
(94,18,o),
(95,30,cs),
(170,735,ls)
);
}
);
vertWidth = 0;
width = 594;
}
);
metricLeft = H;
unicode = 80;
},
{
glyphname = Q;
lastChange = "2023-09-28 18:13:18 +0000";
layers = (
{
anchors = (
{
name = bottom;
pos = (652,0);
},
{
name = top;
pos = (863,2008);
}
);
layerId = m01;
shapes = (
{
closed = 1;
nodes = (
(180,400,o),
(273,-20,o),
(521,-20,cs),
(627,-20,o),
(724,34,o),
(815,104,c),
(1051,-119,ls),
(1069,-136,o),
(1110,-143,o),
(1135,-116,cs),
(1159,-90,o),
(1160,-50,o),
(1143,-34,cs),
(909,187,l),
(1166,455,o),
(1341,946,o),
(1382,1347,cs),
(1421,1690,o),
(1235,2008,o),
(869,2008,cs),
(389,2008,o),
(180,1396,o),
(180,851,cs)
);
},
{
closed = 1;
nodes = (
(306,1312,o),
(462,1898,o),
(854,1898,cs),
(1164,1898,o),
(1291,1644,o),
(1256,1312,cs),
(1221,988,o),
(1063,501,o),
(834,258,c),
(668,416,ls),
(649,435,o),
(604,445,o),
(578,414,cs),
(553,385,o),
(555,351,o),
(576,331,cs),
(736,179,l),
(669,134,o),
(590,93,o),
(520,93,cs),
(367,93,o),
(287,461,o),
(296,865,cs)
);
}
);
vertWidth = 0;
width = 1417;
},
{
anchors = (
{
name = bottom;
pos = (737,0);
},
{
name = top;
pos = (948,2008);
}
);
layerId = m002;
shapes = (
{
closed = 1;
nodes = (
(179,372,o),
(265,-20,o),
(635,-20,cs),
(730,-20,o),
(825,12,o),
(916,70,c),
(1087,-94,ls),
(1160,-164,o),
(1264,-185,o),
(1321,-117,cs),
(1376,-52,o),
(1372,30,o),
(1306,94,cs),
(1132,261,l),
(1358,520,o),
(1530,924,o),
(1571,1327,cs),
(1607,1693,o),
(1332,2028,o),
(936,2028,cs),
(491,2028,o),
(179,1610,o),
(179,848,cs)
);
},
{
closed = 1;
nodes = (
(489,1353,o),
(655,1749,o),
(944,1749,cs),
(1217,1749,o),
(1282,1566,o),
(1259,1319,cs),
(1231,1032,o),
(1082,679,o),
(924,461,c),
(895,489,ls),
(814,567,o),
(710,562,o),
(658,497,cs),
(609,440,o),
(611,364,o),
(687,291,cs),
(712,267,l),
(696,261,o),
(681,258,o),
(666,258,cs),
(507,258,o),
(489,577,o),
(489,853,cs)
);
}
);
vertWidth = 0;
width = 1588;
},
{
associatedMasterId = m002;
layerId = "0DB79B60-F0F0-4AE5-8CEA-03AE86B091EC";
name = background;
shapes = (
{
closed = 1;
nodes = (
(525,-20,o),
(523,11,o),
(498,36,cs),
(340,188,l),
(307,214,o),
(270,216,o),
(249,191,cs),
(230,169,o),
(230,139,o),
(260,112,cs),
(415,-36,ls),
(443,-62,o),
(482,-71,o),
(504,-45,cs)
);
},
{
closed = 1;
nodes = (
(429,-5,o),
(577,287,o),
(600,510,cs),
(614,651,o),
(508,775,o),
(356,775,cs),
(204,775,o),
(120,659,o),
(82,487,cs),
(72,440,o),
(65,386,o),
(65,336,cs),
(63,178,o),
(84,-5,o),
(227,-5,cs)
);
},
{
closed = 1;
nodes = (
(189,102,o),
(183,222,o),
(184,320,cs),
(184,366,o),
(189,413,o),
(196,449,cs),
(227,600,o),
(267,668,o),
(359,668,cs),
(482,668,o),
(487,573,o),
(480,505,cs),
(461,331,o),
(330,102,o),
(239,102,cs)
);
}
);
vertWidth = 0;
width = 594;
}
);
metricLeft = O;
metricRight = O;
unicode = 81;
},
{
glyphname = R;
lastChange = "2023-09-28 18:31:05 +0000";
layers = (
{
anchors = (
{
name = bottom;
pos = (691,0);
},
{
name = top;
pos = (902,2008);
}
);
layerId = m01;
shapes = (
{
closed = 1;
nodes = (
(317,0,o),
(321,36,o),
(326,83,cs),
(422,989,l),
(1145,54,ls),
(1175,16,o),
(1207,0,o),
(1229,0,cs),
(1256,0,o),
(1276,15,o),
(1282,36,cs),
(1287,56,o),
(1283,85,o),
(1249,129,cs),
(546,1037,l),
(1051,1073,o),
(1411,1218,o),
(1436,1502,cs),
(1466,1864,o),
(1130,2035,o),
(472,2004,cs),
(420,2002,o),
(404,1981,o),
(399,1934,cs),
(202,84,ls),
(197,37,o),
(215,0,o),
(263,0,cs)
);
},
{
closed = 1;
nodes = (
(519,1895,l),
(1065,1926,o),
(1339,1765,o),
(1310,1514,cs),
(1283,1274,o),
(916,1149,o),
(437,1134,c)
);
}
);
vertWidth = 0;
width = 1381;
},
{
anchors = (
{
name = bottom;
pos = (751,0);
},
{
name = top;
pos = (962,2008);
}
);
layerId = m002;
shapes = (
{
closed = 1;
nodes = (
(422,0,o),
(478,55,o),
(490,164,cs),
(561,829,l),
(1146,70,ls),
(1196,5,o),
(1250,0,o),
(1291,0,cs),
(1348,0,o),
(1408,29,o),
(1432,81,cs),
(1450,120,o),
(1456,178,o),
(1426,218,cs),
(854,987,l),
(1270,1031,o),
(1582,1133,o),
(1606,1457,cs),
(1640,1922,o),
(1234,2044,o),
(526,2008,cs),
(430,2003,o),
(370,1969,o),
(361,1881,cs),
(183,185,ls),
(172,83,o),
(212,0,o),
(313,0,cs)
);
},
{
closed = 1;
nodes = (
(660,1748,l),
(1174,1766,o),
(1318,1689,o),
(1296,1480,cs),
(1272,1295,o),
(1014,1230,o),
(602,1210,c)
);
}
);
vertWidth = 0;
width = 1590;
},
{
associatedMasterId = m01;
layerId = "10B39192-80BD-4D86-8859-A41096DFFBAE";
name = background;
shapes = (
{
closed = 1;
nodes = (
(342,361,o),
(535,381,o),
(554,565,cs),
(568,709,o),
(400,784,o),
(151,772,c),
(154,718,l),
(375,729,o),
(505,665,o),
(494,571,cs),
(480,437,o),
(312,416,o),
(121,416,c),
(116,361,l)
);
},
{
closed = 1;
nodes = (
(115,379,l),
(436,23,ls),
(449,7,o),
(459,0,o),
(468,0,cs),
(480,0,o),
(492,8,o),
(494,18,cs),
(497,27,o),
(499,40,o),
(491,50,cs),
(195,379,l)
);
},
{
closed = 1;
nodes = (
(173,757,o),
(171,772,o),
(146,772,cs),
(120,772,o),
(114,759,o),
(112,740,cs),
(38,39,ls),
(36,19,o),
(45,0,o),
(67,0,cs),
(93,0,o),
(95,19,o),
(97,37,cs),
(171,735,ls)
);
}
);
vertWidth = 0;
width = 594;
}
);
metricLeft = H;
unicode = 82;
},
{
glyphname = S;
lastChange = "2023-09-28 18:13:18 +0000";
layers = (
{
anchors = (
{
name = bottom;
pos = (583,0);
},
{
name = top;
pos = (794,2008);
}
);
layerId = m01;
shapes = (
{
closed = 1;
nodes = (
(868,-20,o),
(1121,160,o),
(1156,501,cs),
(1186,794,o),
(1004,987,o),
(758,1126,cs),
(504,1273,o),
(338,1399,o),
(358,1583,cs),
(377,1768,o),
(556,1895,o),
(856,1895,cs),
(1020,1895,o),
(1121,1812,o),
(1162,1696,cs),
(1175,1660,o),
(1209,1647,o),
(1245,1658,cs),
(1278,1669,o),
(1284,1704,o),
(1264,1756,cs),
(1215,1898,o),
(1086,2008,o),
(849,2008,cs),
(459,2008,o),
(264,1816,o),
(239,1592,cs),
(217,1353,o),
(413,1180,o),
(655,1043,cs),
(932,885,o),
(1055,734,o),
(1035,522,cs),
(1008,241,o),
(784,93,o),
(563,93,cs),
(360,93,o),
(237,199,o),
(212,304,cs),
(201,347,o),
(170,361,o),
(130,350,cs),
(93,339,o),
(89,303,o),
(102,256,cs),
(139,104,o),
(304,-20,o),
(513,-20,cs)
);
}
);
vertWidth = 0;
width = 1280;
},
{
anchors = (
{
name = bottom;
pos = (707,0);
},
{
name = top;
pos = (918,2008);
}
);
layerId = m002;
shapes = (
{
closed = 1;
nodes = (
(1013,-20,o),
(1357,159,o),
(1396,520,cs),
(1435,882,o),
(1201,1074,o),
(990,1199,cs),
(800,1311,o),
(582,1444,o),
(597,1571,cs),
(613,1688,o),
(740,1751,o),
(928,1751,cs),
(1107,1751,o),
(1183,1711,o),
(1209,1641,cs),
(1242,1550,o),
(1323,1516,o),
(1414,1545,cs),
(1489,1571,o),
(1518,1633,o),
(1497,1709,cs),
(1435,1933,o),
(1281,2027,o),
(974,2027,cs),
(548,2027,o),
(311,1868,o),
(280,1579,cs),
(249,1282,o),
(590,1074,o),
(790,960,cs),
(1008,838,o),
(1118,702,o),
(1102,531,cs),
(1086,377,o),
(925,276,o),
(707,276,cs),
(514,276,o),
(462,317,o),
(433,382,cs),
(394,476,o),
(290,505,o),
(215,479,cs),
(147,458,o),
(96,391,o),
(116,315,cs),
(171,105,o),
(363,-20,o),
(709,-20,cs)
);
}
);
vertWidth = 0;
width = 1528;
},
{
associatedMasterId = m002;
layerId = "978B32C5-E304-42DF-BBEA-C5F78DFF1767";
name = background;
shapes = (
{
closed = 1;
nodes = (
(204,112,o),
(184,122,o),
(177,147,cs),
(168,182,o),
(127,190,o),
(102,183,cs),
(72,176,o),
(62,150,o),
(70,121,cs),
(90,40,o),
(146,0,o),
(234,0,cs),
(397,0,o),
(524,61,o),
(541,207,cs),
(554,339,o),
(453,405,o),
(375,457,cs),
(312,500,o),
(221,548,o),
(219,581,cs),
(215,626,o),
(290,666,o),
(383,666,cs),
(435,666,o),
(455,658,o),
(461,631,cs),
(469,595,o),
(514,587,o),
(539,594,cs),
(569,604,o),
(577,628,o),
(571,657,cs),
(549,744,o),
(488,778,o),
(371,778,cs),
(207,778,o),
(96,687,o),
(103,576,cs),
(112,472,o),
(234,418,o),
(302,372,cs),
(381,316,o),
(431,270,o),
(426,219,cs),
(419,145,o),
(362,112,o),
(278,112,cs)
);
}
);
vertWidth = 0;
width = 594;
}
);
unicode = 83;
},
{
glyphname = T;
lastChange = "2023-09-28 18:13:18 +0000";
layers = (
{
anchors = (
{
name = bottom;
pos = (556,0);
},
{
name = center;
pos = (662,1004);
},
{
name = top;
pos = (767,2008);
}
);
layerId = m01;
shapes = (
{
closed = 1;
nodes = (
(606,0,o),
(622,43,o),
(627,91,cs),
(814,1885,l),
(1282,1885,ls),
(1334,1885,o),
(1343,1911,o),
(1343,1948,cs),
(1343,1980,o),
(1328,2008,o),
(1275,2008,cs),
(242,2008,ls),
(190,2008,o),
(179,1981,o),
(179,1948,cs),
(179,1914,o),
(198,1885,o),
(252,1885,cs),
(688,1885,l),
(501,97,ls),
(495,39,o),
(507,0,o),
(553,0,cs)
);
}
);
vertWidth = 0;
width = 1226;
},
{
anchors = (
{
name = bottom;
pos = (597,0);
},
{
name = center;
pos = (703,1004);
},
{
name = top;
pos = (808,2008);
}
);
layerId = m002;
shapes = (
{
closed = 1;
nodes = (
(708,0,o),
(756,68,o),
(763,133,cs),
(931,1730,l),
(1319,1730,ls),
(1418,1730,o),
(1465,1792,o),
(1465,1865,cs),
(1465,1946,o),
(1392,2008,o),
(1299,2008,cs),
(263,2008,ls),
(170,2008,o),
(123,1946,o),
(120,1865,cs),
(118,1792,o),
(185,1730,o),
(284,1730,cs),
(620,1730,l),
(456,151,ls),
(447,65,o),
(511,0,o),
(607,0,cs)
);
}
);
vertWidth = 0;
width = 1307;
}
);
unicode = 84;
},
{
glyphname = U;
lastChange = "2023-09-28 18:31:05 +0000";
layers = (
{
anchors = (
{
name = bottom;
pos = (777,0);
},
{
name = ogonek;
pos = (1354,10);
},
{
name = top;
pos = (988,2008);
},
{
name = topright;
pos = (1688,2008);
}
);
layerId = m01;
shapes = (
{
closed = 1;
nodes = (
(696,-20,o),
(1049,341,o),
(1348,1077,c),
(1241,70,ls),
(1236,22,o),
(1267,1,o),
(1304,1,cs),
(1336,1,o),
(1363,19,o),
(1367,59,cs),
(1564,1929,ls),
(1568,1970,o),
(1554,2008,o),
(1504,2008,cs),
(1460,2008,o),
(1445,1968,o),
(1441,1933,cs),
(1403,1598,l),
(1137,533,o),
(626,93,o),
(495,93,cs),
(344,93,o),
(357,360,o),
(378,559,cs),
(522,1929,ls),
(526,1971,o),
(504,2008,o),
(467,2008,cs),
(425,2008,o),
(401,1975,o),
(396,1930,cs),
(252,562,ls),
(210,164,o),
(308,-20,o),
(484,-20,cs)
);
}
);
vertWidth = 0;
width = 1668;
},
{
anchors = (
{
name = bottom;
pos = (836,0);
},
{
name = ogonek;
pos = (1530,10);
},
{
name = top;
pos = (1047,2008);
},
{
name = topright;
pos = (1893,2008);
}
);
layerId = m002;
shapes = (
{
closed = 1;
nodes = (
(789,-20,o),
(1037,272,o),
(1278,711,c),
(1220,151,ls),
(1209,49,o),
(1285,0,o),
(1373,0,cs),
(1449,0,o),
(1517,36,o),
(1527,135,cs),
(1709,1860,ls),
(1718,1946,o),
(1660,2008,o),
(1556,2008,cs),
(1470,2008,o),
(1407,1961,o),
(1400,1891,cs),
(1371,1611,l),
(1270,991,o),
(718,258,o),
(591,258,cs),
(521,258,o),
(517,388,o),
(539,603,cs),
(667,1855,ls),
(676,1943,o),
(610,2008,o),
(519,2008,cs),
(417,2011,o),
(366,1927,o),
(360,1873,cs),
(227,603,ls),
(182,177,o),
(287,-20,o),
(549,-20,cs)
);
}
);
vertWidth = 0;
width = 1790;
},
{
associatedMasterId = m01;
layerId = "85A0CC84-4628-44F1-A8D5-F145C07A2F77";
name = background;
shapes = (
{
closed = 1;
nodes = (
(244,-5,o),
(373,140,o),
(465,336,c),
(492,388,l),
(525,618,l),
(513,618,l),
(510,605,l),
(495,555,o),
(437,417,o),
(422,380,cs),
(352,228,o),
(215,50,o),
(156,50,cs),
(100,50,o),
(108,138,o),
(116,214,cs),
(176,735,ls),
(178,753,o),
(166,772,o),
(149,772,cs),
(129,772,o),
(118,756,o),
(115,737,cs),
(57,217,ls),
(39,62,o),
(82,-5,o),
(152,-5,cs)
);
},
{
closed = 1;
nodes = (
(481,-1,o),
(494,8,o),
(497,26,cs),
(573,741,ls),
(575,759,o),
(564,772,o),
(543,772,cs),
(522,772,o),
(514,758,o),
(513,744,cs),
(437,32,ls),
(435,10,o),
(450,-1,o),
(467,-1,cs)
);
}
);
vertWidth = 0;
width = 594;
},
{
associatedMasterId = m002;
layerId = "C456C70A-B9F0-4BB4-8B22-984771EF7C04";
name = background;
shapes = (
{
closed = 1;
nodes = (
(299,-5,o),
(400,116,o),
(504,307,c),
(544,645,l),
(522,645,l),
(514,606,ls),
(495,503,o),
(461,432,o),
(441,400,cs),
(390,315,o),
(266,102,o),
(210,102,cs),
(188,102,o),
(185,149,o),
(194,220,cs),
(248,713,ls),
(252,747,o),
(226,772,o),
(191,772,cs),
(152,773,o),
(132,741,o),
(129,720,cs),
(75,232,ls),
(57,68,o),
(112,-5,o),
(198,-5,cs)
);
},
{
closed = 1;
nodes = (
(544,0,o),
(570,14,o),
(574,52,cs),
(645,715,ls),
(649,748,o),
(626,772,o),
(586,772,cs),
(552,772,o),
(529,754,o),
(526,727,cs),
(456,58,ls),
(453,19,o),
(481,0,o),
(514,0,cs)
);
}
);
vertWidth = 0;
width = 594;
}
);
metricLeft = H;
metricRight = H;
unicode = 85;
},
{
glyphname = V;
lastChange = "2023-09-28 19:05:32 +0000";
layers = (
{
anchors = (
{
name = bottom;
pos = (593,0);
},
{
name = top;
pos = (804,2008);
}
);
layerId = m01;
shapes = (
{
closed = 1;
nodes = (
(616,0,o),
(621,23,o),
(639,69,cs),
(1380,1930,ls),
(1401,1984,o),
(1382,2008,o),
(1342,2008,cs),
(1289,2008,o),
(1270,1992,o),
(1250,1942,cs),
(664,475,l),
(589,274,l),
(561,477,l),
(335,1948,ls),
(330,1978,o),
(321,2008,o),
(264,2008,cs),
(216,2008,o),
(206,1986,o),
(212,1944,cs),
(494,73,ls),
(499,37,o),
(521,0,o),
(567,0,cs)
);
}
);
vertWidth = 0;
width = 1299;
},
{
anchors = (
{
name = bottom;
pos = (706,0);
},
{
name = top;
pos = (917,2008);
}
);
layerId = m002;
shapes = (
{
closed = 1;
nodes = (
(771,-5,o),
(821,47,o),
(844,104,cs),
(1554,1826,ls),
(1596,1933,o),
(1528,2008,o),
(1429,2008,cs),
(1341,2008,o),
(1279,1972,o),
(1253,1909,cs),
(844,939,l),
(750,673,l),
(717,939,l),
(563,1886,ls),
(553,1956,o),
(488,2008,o),
(389,2008,cs),
(298,2008,o),
(241,1959,o),
(256,1868,cs),
(529,135,ls),
(542,60,o),
(589,-3,o),
(683,-5,cs)
);
}
);
vertWidth = 0;
width = 1536;
}
);
metricLeft = A;
metricRight = A;
unicode = 86;
},
{
glyphname = W;
lastChange = "2023-09-28 19:05:20 +0000";
layers = (
{
anchors = (
{
name = bottom;
pos = (1113,0);
},
{
name = top;
pos = (1324,2008);
}
);
layerId = m01;
shapes = (
{
closed = 1;
nodes = (
(612,0,o),
(622,38,o),
(635,71,cs),
(1204,1534,l),
(1287,1769,l),
(1324,1521,l),
(1540,65,ls),
(1545,29,o),
(1564,0,o),
(1608,0,cs),
(1656,0,o),
(1665,25,o),
(1683,69,cs),
(2422,1930,ls),
(2444,1985,o),
(2415,2008,o),
(2376,2008,cs),
(2326,2008,o),
(2313,1998,o),
(2291,1942,cs),
(1752,575,l),
(1628,248,l),
(1583,591,l),
(1386,1948,ls),
(1381,1980,o),
(1371,2008,o),
(1307,2008,cs),
(1266,2008,o),
(1245,1977,o),
(1233,1945,cs),
(704,580,l),
(582,265,l),
(532,583,l),
(335,1948,ls),
(331,1978,o),
(321,2008,o),
(264,2008,cs),
(216,2008,o),
(205,1986,o),
(211,1944,cs),
(489,73,ls),
(496,28,o),
(522,0,o),
(560,0,cs)
);
}
);
vertWidth = 0;
width = 2340;
},
{
anchors = (
{
name = bottom;
pos = (1228,0);
},
{
name = top;
pos = (1439,2008);
}
);
layerId = m002;
shapes = (
{
closed = 1;
nodes = (
(789,0,o),
(859,44,o),
(895,133,cs),
(1327,1272,l),
(1379,1431,l),
(1395,1272,l),
(1572,99,ls),
(1579,47,o),
(1637,0,o),
(1728,0,cs),
(1824,0,o),
(1866,36,o),
(1892,101,cs),
(2599,1826,ls),
(2630,1901,o),
(2583,2008,o),
(2466,2008,cs),
(2368,2008,o),
(2316,1946,o),
(2297,1904,c),
(1879,853,l),
(1783,596,l),
(1754,853,l),
(1606,1886,l),
(1592,1961,o),
(1530,2008,o),
(1423,2008,cs),
(1325,2008,o),
(1278,1959,o),
(1252,1891,cs),
(854,856,l),
(745,555,l),
(706,866,l),
(563,1886,ls),
(555,1956,o),
(490,2008,o),
(391,2008,cs),
(300,2008,o),
(240,1959,o),
(256,1868,cs),
(518,135,ls),
(529,47,o),
(591,0,o),
(693,0,cs)
);
}
);
vertWidth = 0;
width = 2579;
}
);
metricLeft = A;
metricRight = A;
unicode = 87;
},
{
glyphname = X;
lastChange = "2023-09-28 19:04:11 +0000";
layers = (
{
anchors = (
{
name = bottom;
pos = (630,0);
},
{
name = top;
pos = (841,2008);
}
);
layerId = m01;
shapes = (
{
closed = 1;
nodes = (
(103,-8,o),
(143,-7,o),
(169,32,cs),
(731,886,l),
(1102,56,ls),
(1125,4,o),
(1168,-8,o),
(1204,11,cs),
(1228,23,o),
(1241,50,o),
(1223,91,cs),
(818,991,l),
(1414,1901,ls),
(1440,1941,o),
(1434,1975,o),
(1410,1992,cs),
(1380,2015,o),
(1336,2013,o),
(1310,1973,cs),
(759,1125,l),
(383,1962,ls),
(361,2011,o),
(322,2014,o),
(292,2002,cs),
(261,1989,o),
(242,1971,o),
(265,1919,cs),
(670,1020,l),
(61,93,ls),
(41,62,o),
(47,35,o),
(73,15,cs)
);
}
);
vertWidth = 0;
width = 1373;
},
{
anchors = (
{
name = bottom;
pos = (716,0);
},
{
name = top;
pos = (927,2008);
}
);
layerId = m002;
shapes = (
{
closed = 1;
nodes = (
(223,-10,o),
(350,-26,o),
(394,49,c),
(814,707,l),
(1091,86,ls),
(1130,-3,o),
(1260,-18,o),
(1331,18,cs),
(1393,52,o),
(1419,112,o),
(1385,187,cs),
(1021,1000,l),
(1554,1787,ls),
(1604,1860,o),
(1583,1925,o),
(1523,1974,cs),
(1466,2024,o),
(1341,2026,o),
(1292,1951,cs),
(884,1306,l),
(608,1925,ls),
(569,2011,o),
(459,2021,o),
(392,2000,c),
(311,1969,o),
(277,1907,o),
(321,1810,cs),
(677,1013,l),
(134,213,ls),
(90,148,o),
(103,88,o),
(160,39,cs)
);
}
);
vertWidth = 0;
width = 1595;
}
);
unicode = 88;
},
{
glyphname = Y;
lastChange = "2023-09-28 19:04:32 +0000";
layers = (
{
anchors = (
{
name = bottom;
pos = (600,0);
},
{
name = top;
pos = (811,2008);
},
{
name = topleft;
pos = (174,2008);
}
);
layerId = m01;
shapes = (
{
closed = 1;
nodes = (
(191,-4,o),
(231,-7,o),
(255,33,cs),
(1357,1903,ls),
(1381,1943,o),
(1372,1978,o),
(1331,2001,cs),
(1300,2016,o),
(1275,2010,o),
(1250,1967,cs),
(755,1126,l),
(378,1947,ls),
(361,1984,o),
(337,2020,o),
(288,2001,cs),
(245,1986,o),
(240,1951,o),
(260,1907,cs),
(678,994,l),
(151,98,ls),
(132,66,o),
(135,38,o),
(160,19,cs)
);
}
);
vertWidth = 0;
width = 1313;
},
{
anchors = (
{
name = bottom;
pos = (723,0);
},
{
name = top;
pos = (934,2008);
},
{
name = topleft;
pos = (214,2008);
}
);
layerId = m002;
shapes = (
{
closed = 1;
nodes = (
(377,-21,o),
(506,-4,o),
(549,68,cs),
(1576,1787,ls),
(1620,1860,o),
(1597,1946,o),
(1516,1992,cs),
(1451,2026,o),
(1349,2009,o),
(1300,1927,cs),
(877,1224,l),
(567,1917,ls),
(536,1987,o),
(451,2028,o),
(354,1995,cs),
(258,1963,o),
(244,1875,o),
(278,1802,cs),
(696,921,l),
(281,231,ls),
(242,166,o),
(257,78,o),
(314,29,cs)
);
}
);
vertWidth = 0;
width = 1560;
},
{
associatedMasterId = m01;
layerId = "97930EFF-4ECB-41E8-9E11-FCC2E8932513";
name = background;
shapes = (
{
closed = 1;
nodes = (
(304,403,l),
(151,748,ls),
(145,763,o),
(127,778,o),
(105,770,cs),
(84,763,o),
(87,747,o),
(95,728,cs),
(270,334,l)
);
},
{
closed = 1;
nodes = (
(489,741,o),
(488,758,o),
(478,766,cs),
(465,776,o),
(438,772,o),
(430,754,cs),
(109,45,ls),
(103,31,o),
(102,15,o),
(114,7,cs),
(127,-4,o),
(152,-5,o),
(160,13,cs),
(481,723,ls)
);
}
);
vertWidth = 0;
width = 539;
}
);
unicode = 89;
},
{
glyphname = Z;
lastChange = "2023-09-28 18:13:18 +0000";
layers = (
{
anchors = (
{
name = bottom;
pos = (624,0);
},
{
name = center;
pos = (730,1004);
},
{
name = top;
pos = (835,2008);
}
);
layerId = m01;
shapes = (
{
closed = 1;
nodes = (
(1140,0,ls),
(1193,0,o),
(1203,26,o),
(1201,62,cs),
(1198,95,o),
(1183,123,o),
(1133,123,cs),
(213,123,l),
(1403,1904,ls),
(1442,1963,o),
(1401,2008,o),
(1354,2008,cs),
(319,2008,ls),
(266,2008,o),
(253,1981,o),
(256,1949,cs),
(258,1914,o),
(275,1885,o),
(326,1885,cs),
(1253,1885,l),
(53,97,ls),
(21,49,o),
(47,0,o),
(108,0,cs)
);
}
);
vertWidth = 0;
width = 1361;
},
{
anchors = (
{
name = bottom;
pos = (700,0);
},
{
name = center;
pos = (806,1004);
},
{
name = top;
pos = (911,2008);
}
);
layerId = m002;
shapes = (
{
closed = 1;
nodes = (
(1215,0,ls),
(1313,0,o),
(1360,60,o),
(1360,133,cs),
(1360,216,o),
(1300,278,o),
(1207,278,cs),
(488,278,l),
(1513,1773,ls),
(1579,1869,o),
(1531,2009,o),
(1398,2009,cs),
(394,2009,ls),
(301,2009,o),
(246,1947,o),
(251,1866,cs),
(254,1793,o),
(316,1731,o),
(415,1731,cs),
(1124,1731,l),
(94,216,ls),
(36,130,o),
(88,0,o),
(224,0,cs)
);
}
);
vertWidth = 0;
width = 1514;
}
);
unicode = 90;
},
{
color = 7;
glyphname = A.ss04;
lastChange = "2023-09-29 01:34:55 +0000";
layers = (
{
background = {
shapes = (
{
closed = 1;
nodes = (
(896,1721,l),
(976,1158,l),
(651,1158,l)
);
},
{
closed = 1;
nodes = (
(999,1139,l),
(911,1758,ls),
(910,1767,o),
(895,1768,o),
(892,1760,cs),
(621,1139,l)
);
}
);
};
layerId = m01;
shapes = (
{
closed = 1;
nodes = (
(1290,-5,o),
(1308,46,o),
(1299,103,cs),
(1021,1925,ls),
(1014,1972,o),
(995,2008,o),
(931,2008,cs),
(874,2008,o),
(852,1978,o),
(830,1930,cs),
(28,140,ls),
(-6,65,o),
(13,17,o),
(66,2,cs),
(121,-12,o),
(161,32,o),
(183,82,cs),
(585,1007,l),
(997,1007,l),
(1125,83,ls),
(1132,32,o),
(1154,-16,o),
(1226,-11,cs)
);
},
{
closed = 1;
nodes = (
(1167,4,o),
(1152,38,o),
(1145,86,cs),
(1014,1027,l),
(572,1027,l),
(165,90,ls),
(145,44,o),
(114,10,o),
(72,22,cs),
(30,33,o),
(16,66,o),
(46,132,cs),
(848,1922,ls),
(868,1967,o),
(885,1988,o),
(931,1988,cs),
(982,1988,o),
(996,1964,o),
(1002,1922,cs),
(1280,101,ls),
(1288,49,o),
(1275,13,o),
(1224,9,cs)
);
},
{
closed = 1;
nodes = (
(999,1139,l),
(911,1758,ls),
(910,1767,o),
(895,1768,o),
(892,1760,cs),
(621,1139,l)
);
},
{
closed = 1;
nodes = (
(896,1721,l),
(976,1158,l),
(651,1158,l)
);
},
{
closed = 1;
nodes = (
(956,1864,o),
(978,1886,o),
(978,1913,cs),
(978,1940,o),
(956,1962,o),
(929,1962,cs),
(902,1962,o),
(880,1940,o),
(880,1913,cs),
(880,1886,o),
(902,1864,o),
(929,1864,cs)
);
}
);
vertWidth = 0;
width = 1411;
},
{
layerId = m002;
shapes = (
{
closed = 1;
nodes = (
(1408,15,o),
(1453,93,o),
(1435,206,cs),
(1172,1897,ls),
(1161,1969,o),
(1100,2008,o),
(1008,2008,cs),
(903,2008,o),
(869,1966,o),
(837,1894,cs),
(87,227,ls),
(43,128,o),
(91,37,o),
(170,7,cs),
(249,-24,o),
(358,11,o),
(399,111,cs),
(681,799,l),
(1026,799,l),
(1116,165,ls),
(1133,43,o),
(1200,-17,o),
(1312,1,cs)
);
},
{
closed = 1;
nodes = (
(1215,25,o),
(1170,65,o),
(1155,171,cs),
(1061,838,l),
(655,838,l),
(363,127,ls),
(330,46,o),
(249,20,o),
(184,43,cs),
(122,69,o),
(88,133,o),
(123,211,cs),
(873,1878,ls),
(903,1944,o),
(923,1968,o),
(1008,1968,cs),
(1086,1968,o),
(1126,1944,o),
(1134,1891,cs),
(1396,200,ls),
(1411,103,o),
(1381,51,o),
(1306,39,cs)
);
},
{
closed = 1;
nodes = (
(1035,1041,l),
(985,1513,ls),
(983,1531,o),
(955,1534,o),
(948,1518,cs),
(741,1041,l)
);
},
{
closed = 1;
nodes = (
(955,1436,l),
(990,1081,l),
(799,1081,l)
);
},
{
closed = 1;
nodes = (
(1043,1825,o),
(1070,1852,o),
(1070,1885,cs),
(1070,1918,o),
(1043,1945,o),
(1010,1945,cs),
(977,1945,o),
(950,1918,o),
(950,1885,cs),
(950,1852,o),
(977,1825,o),
(1010,1825,cs)
);
}
);
vertWidth = 0;
width = 1590;
},
{
associatedMasterId = m01;
layerId = "CC05ECD8-6904-4D4D-92AC-3DF3C05EEB87";
name = background;
shapes = (
{
closed = 1;
nodes = (
(349,743,ls),
(354,756,o),
(343,772,o),
(321,772,cs),
(295,772,o),
(293,759,o),
(286,743,cs),
(-31,38,ls),
(-42,14,o),
(-26,0,o),
(-8,0,cs),
(15,0,o),
(21,8,o),
(30,30,cs),
(348,735,l)
);
},
{
closed = 1;
nodes = (
(366,388,l),
(356,442,l),
(200,442,l),
(177,388,l)
);
},
{
closed = 1;
nodes = (
(305,669,l),
(405,23,ls),
(406,11,o),
(411,0,o),
(437,0,c),
(459,0,o),
(465,13,o),
(462,31,cs),
(350,754,l)
);
},
{
closed = 1;
nodes = (
(349,743,ls),
(354,756,o),
(343,772,o),
(321,772,cs),
(295,772,o),
(293,759,o),
(286,743,cs),
(-31,38,ls),
(-42,14,o),
(-26,0,o),
(-8,0,cs),
(15,0,o),
(21,8,o),
(30,30,cs),
(348,735,l)
);
},
{
closed = 1;
nodes = (
(366,388,l),
(356,442,l),
(200,442,l),
(177,388,l)
);
},
{
closed = 1;
nodes = (
(305,669,l),
(405,23,ls),
(406,11,o),
(411,0,o),
(437,0,c),
(459,0,o),
(465,13,o),
(462,31,cs),
(350,754,l)
);
}
);
vertWidth = 0;
width = 594;
},
{
associatedMasterId = m002;
layerId = "11FF2575-6263-44BF-95EA-B853E43D43A6";
name = background;
shapes = (
{
closed = 1;
nodes = (
(426,718,l),
(430,748,o),
(404,772,o),
(367,772,cs),
(327,772,o),
(318,756,o),
(309,732,c),
(14,78,ls),
(-1,44,o),
(15,13,o),
(43,2,cs),
(70,-8,o),
(108,4,o),
(122,39,cs),
(350,584,l)
);
},
{
closed = 1;
nodes = (
(390,347,l),
(373,442,l),
(274,442,l),
(234,347,l)
);
},
{
closed = 1;
nodes = (
(343,601,l),
(418,58,ls),
(424,14,o),
(448,-6,o),
(486,0,cs),
(519,5,o),
(535,31,o),
(529,72,cs),
(425,735,l)
);
}
);
vertWidth = 0;
width = 594;
}
);
metricLeft = A;
metricRight = A;
},
{
color = 7;
glyphname = B.ss04;
lastChange = "2023-09-29 01:33:01 +0000";
layers = (
{
layerId = m01;
shapes = (
{
closed = 1;
nodes = (
(989,0,o),
(1438,212,o),
(1478,565,cs),
(1502,811,o),
(1358,1001,o),
(1070,1081,c),
(1395,1163,o),
(1458,1341,o),
(1482,1527,cs),
(1522,1840,o),
(1161,2039,o),
(491,2008,cs),
(435,2005,o),
(401,1978,o),
(395,1917,cs),
(206,106,ls),
(200,49,o),
(239,0,o),
(289,0,cs)
);
},
{
closed = 1;
nodes = (
(250,20,o),
(221,57,o),
(226,104,cs),
(414,1915,ls),
(419,1967,o),
(444,1985,o),
(492,1988,cs),
(1153,2019,o),
(1503,1828,o),
(1462,1529,cs),
(1438,1350,o),
(1381,1186,o),
(1028,1087,cs),
(1018,1085,o),
(1018,1078,o),
(1025,1076,cs),
(1340,991,o),
(1482,808,o),
(1458,567,cs),
(1420,227,o),
(984,20,o),
(289,20,cs)
);
},
{
closed = 1;
nodes = (
(969,153,o),
(1297,330,o),
(1323,588,cs),
(1352,856,o),
(1027,1037,o),
(454,998,c),
(363,142,l)
);
},
{
closed = 1;
nodes = (
(472,979,l),
(1026,1013,o),
(1330,841,o),
(1303,590,cs),
(1279,347,o),
(972,177,o),
(385,163,c)
);
},
{
closed = 1;
nodes = (
(518,1864,o),
(540,1886,o),
(540,1913,cs),
(540,1940,o),
(518,1962,o),
(491,1962,cs),
(464,1962,o),
(442,1940,o),
(442,1913,cs),
(442,1886,o),
(464,1864,o),
(491,1864,cs)
);
},
{
closed = 1;
nodes = (
(1194,1149,o),
(1305,1339,o),
(1326,1540,cs),
(1345,1716,o),
(1103,1890,o),
(546,1873,c),
(467,1111,l)
);
},
{
closed = 1;
nodes = (
(564,1854,l),
(1100,1866,o),
(1323,1703,o),
(1306,1542,cs),
(1286,1349,o),
(1183,1172,o),
(489,1133,c)
);
}
);
vertWidth = 0;
width = 1550;
},
{
layerId = m002;
shapes = (
{
closed = 1;
nodes = (
(1073,0,o),
(1543,213,o),
(1586,569,cs),
(1607,781,o),
(1502,987,o),
(1281,1083,c),
(1516,1186,o),
(1568,1299,o),
(1587,1483,cs),
(1624,1838,o),
(1252,2021,o),
(546,2008,cs),
(438,2005,o),
(371,1980,o),
(357,1845,cs),
(182,183,ls),
(171,79,o),
(241,0,o),
(345,0,cs)
);
},
{
closed = 1;
nodes = (
(262,40,o),
(212,95,o),
(221,179,cs),
(396,1841,ls),
(408,1951,o),
(448,1966,o),
(546,1968,cs),
(1230,1983,o),
(1583,1812,o),
(1549,1489,cs),
(1528,1290,o),
(1473,1184,o),
(1189,1090,cs),
(1178,1086,o),
(1178,1079,o),
(1189,1076,cs),
(1450,990,o),
(1568,791,o),
(1547,573,cs),
(1507,242,o),
(1062,40,o),
(345,40,cs)
);
},
{
closed = 1;
nodes = (
(987,312,o),
(1249,432,o),
(1272,608,cs),
(1298,797,o),
(1030,958,o),
(557,943,c),
(488,296,l)
);
},
{
closed = 1;
nodes = (
(592,904,l),
(1030,913,o),
(1254,766,o),
(1233,614,cs),
(1214,467,o),
(990,358,o),
(532,337,c)
);
},
{
closed = 1;
nodes = (
(527,1825,o),
(554,1852,o),
(554,1885,cs),
(554,1918,o),
(527,1945,o),
(494,1945,cs),
(461,1945,o),
(434,1918,o),
(434,1885,cs),
(434,1852,o),
(461,1825,o),
(494,1825,cs)
);
},
{
closed = 1;
nodes = (
(1166,1170,o),
(1262,1249,o),
(1282,1422,cs),
(1302,1593,o),
(1093,1737,o),
(639,1736,c),
(578,1142,l)
);
},
{
closed = 1;
nodes = (
(674,1697,l),
(1087,1690,o),
(1259,1567,o),
(1243,1427,cs),
(1225,1271,o),
(1146,1214,o),
(622,1184,c)
);
}
);
vertWidth = 0;
width = 1663;
},
{
associatedMasterId = m01;
layerId = "B07E2D77-9B76-46A5-9AD8-52245F6FEE2E";
name = background;
shapes = (
{
closed = 1;
nodes = (
(470,356,o),
(498,436,o),
(512,564,cs),
(527,704,o),
(400,772,o),
(133,772,c),
(126,718,l),
(347,718,o),
(463,671,o),
(453,567,cs),
(443,481,o),
(434,416,o),
(116,416,c),
(110,356,l)
);
},
{
closed = 1;
nodes = (
(397,0,o),
(486,37,o),
(500,171,cs),
(516,321,o),
(361,416,o),
(112,416,c),
(107,356,l),
(333,356,o),
(451,284,o),
(441,179,cs),
(430,78,o),
(305,55,o),
(56,55,c),
(51,0,l)
);
},
{
closed = 1;
nodes = (
(162,762,o),
(156,772,o),
(133,772,cs),
(113,772,o),
(102,764,o),
(100,740,cs),
(26,37,ls),
(24,17,o),
(37,0,o),
(57,0,cs),
(74,0,o),
(83,11,o),
(86,34,cs),
(159,735,ls)
);
}
);
vertWidth = 0;
width = 594;
},
{
associatedMasterId = m002;
layerId = "41C18EEF-24E8-472E-9093-D1506CBD8D1D";
name = background;
shapes = (
{
closed = 1;
nodes = (
(498,335,o),
(526,456,o),
(537,549,cs),
(548,651,o),
(495,772,o),
(135,772,c),
(122,664,l),
(451,664,o),
(429,587,o),
(424,555,cs),
(418,517,o),
(388,425,o),
(151,425,c),
(141,335,l)
);
},
{
closed = 1;
nodes = (
(413,0,o),
(524,25,o),
(541,179,cs),
(557,339,o),
(367,425,o),
(145,425,c),
(134,335,l),
(345,335,o),
(437,286,o),
(429,200,cs),
(421,118,o),
(334,114,o),
(75,114,c),
(65,0,l)
);
},
{
closed = 1;
nodes = (
(204,764,o),
(166,772,o),
(138,772,cs),
(109,772,o),
(84,763,o),
(80,723,cs),
(10,63,ls),
(6,27,o),
(34,0,o),
(70,0,cs),
(97,0,o),
(124,13,o),
(128,52,cs),
(198,712,ls)
);
}
);
vertWidth = 0;
width = 594;
}
);
metricLeft = B;
metricRight = B;
},
{
color = 7;
glyphname = C.ss04;
lastChange = "2023-09-29 01:33:01 +0000";
layers = (
{
layerId = m01;
shapes = (
{
closed = 1;
nodes = (
(912,-20,o),
(1153,196,o),
(1249,390,cs),
(1291,469,o),
(1298,520,o),
(1240,551,cs),
(1181,581,o),
(1140,542,o),
(1103,470,cs),
(1025,319,o),
(863,142,o),
(619,142,cs),
(332,142,o),
(202,434,o),
(309,1031,cs),
(397,1501,o),
(582,1860,o),
(925,1860,cs),
(1070,1860,o),
(1185,1753,o),
(1249,1707,cs),
(1282,1680,o),
(1342,1656,o),
(1389,1708,cs),
(1433,1761,o),
(1405,1811,o),
(1375,1838,cs),
(1290,1916,o),
(1158,2028,o),
(915,2028,cs),
(484,2028,o),
(239,1588,o),
(138,1052,cs),
(9,379,o),
(192,-20,o),
(632,-20,cs)
);
},
{
closed = 1;
nodes = (
(206,0,o),
(30,385,o),
(158,1049,cs),
(258,1580,o),
(496,2008,o),
(915,2008,cs),
(1152,2008,o),
(1278,1900,o),
(1362,1823,cs),
(1389,1799,o),
(1408,1763,o),
(1374,1721,cs),
(1337,1680,o),
(1292,1698,o),
(1261,1723,cs),
(1196,1769,o),
(1076,1879,o),
(925,1879,cs),
(569,1879,o),
(378,1508,o),
(290,1034,cs),
(181,429,o),
(318,122,o),
(619,122,cs),
(872,122,o),
(1039,308,o),
(1120,461,cs),
(1153,530,o),
(1185,557,o),
(1231,534,cs),
(1276,509,o),
(1271,474,o),
(1231,399,cs),
(1137,209,o),
(904,0,o),
(632,0,cs)
);
},
{
closed = 1;
nodes = (
(1351,1717,o),
(1373,1739,o),
(1373,1766,cs),
(1373,1793,o),
(1351,1815,o),
(1324,1815,cs),
(1297,1815,o),
(1275,1793,o),
(1275,1766,cs),
(1275,1739,o),
(1297,1717,o),
(1324,1717,cs)
);
}
);
vertWidth = 0;
width = 1338;
},
{
layerId = m002;
shapes = (
{
closed = 1;
nodes = (
(1091,-20,o),
(1349,171,o),
(1454,362,cs),
(1529,501,o),
(1478,611,o),
(1395,654,cs),
(1308,701,o),
(1229,664,o),
(1188,576,cs),
(1120,430,o),
(981,286,o),
(757,286,cs),
(543,286,o),
(458,517,o),
(521,1019,cs),
(573,1458,o),
(751,1716,o),
(1067,1716,cs),
(1180,1716,o),
(1299,1627,o),
(1362,1582,cs),
(1437,1530,o),
(1527,1542,o),
(1581,1636,cs),
(1639,1739,o),
(1594,1839,o),
(1533,1884,cs),
(1456,1943,o),
(1235,2028,o),
(1047,2028,cs),
(562,2028,o),
(269,1685,o),
(177,1061,cs),
(81,414,o),
(275,-20,o),
(752,-20,cs)
);
},
{
closed = 1;
nodes = (
(303,19,o),
(122,423,o),
(215,1055,cs),
(306,1666,o),
(582,1988,o),
(1047,1988,cs),
(1228,1988,o),
(1438,1906,o),
(1509,1853,cs),
(1561,1815,o),
(1594,1739,o),
(1547,1656,cs),
(1504,1581,o),
(1444,1572,o),
(1384,1614,cs),
(1320,1661,o),
(1190,1755,o),
(1067,1755,cs),
(729,1755,o),
(536,1475,o),
(482,1024,cs),
(417,508,o),
(513,247,o),
(757,247,cs),
(998,247,o),
(1149,407,o),
(1223,560,cs),
(1255,632,o),
(1308,656,o),
(1377,619,cs),
(1445,584,o),
(1484,500,o),
(1419,381,cs),
(1320,199,o),
(1077,19,o),
(752,19,cs)
);
},
{
closed = 1;
nodes = (
(1498,1663,o),
(1525,1690,o),
(1525,1723,cs),
(1525,1756,o),
(1498,1783,o),
(1465,1783,cs),
(1432,1783,o),
(1405,1756,o),
(1405,1723,cs),
(1405,1690,o),
(1432,1663,o),
(1465,1663,cs)
);
}
);
vertWidth = 0;
width = 1607;
},
{
associatedMasterId = m01;
layerId = "52EFED00-95E8-43A2-983B-57F1EBD9EA9F";
name = background;
shapes = (
{
closed = 1;
nodes = (
(557,695,o),
(577,690,o),
(587,710,cs),
(596,729,o),
(584,743,o),
(573,747,cs),
(536,763,o),
(498,771,o),
(394,771,cs),
(210,771,o),
(116,606,o),
(96,402,cs),
(95,378,o),
(82,259,o),
(86,204,cs),
(93,101,o),
(134,-5,o),
(284,-5,cs),
(391,-5,o),
(486,71,o),
(520,141,cs),
(538,181,o),
(542,195,o),
(522,206,cs),
(497,217,o),
(482,203,o),
(469,176,cs),
(438,116,o),
(365,50,o),
(279,50,cs),
(171,50,o),
(150,135,o),
(145,203,cs),
(140,267,o),
(153,368,o),
(159,415,cs),
(175,575,o),
(257,716,o),
(398,716,cs),
(491,716,o),
(519,709,o),
(545,700,cs)
);
}
);
vertWidth = 0;
width = 594;
},
{
associatedMasterId = m002;
layerId = "66F140A1-F38A-450F-A5C8-1AF38644720C";
name = background;
shapes = (
{
closed = 1;
nodes = (
(444,-5,o),
(549,69,o),
(580,151,cs),
(605,223,o),
(608,261,o),
(550,276,cs),
(499,287,o),
(489,254,o),
(473,209,cs),
(453,156,o),
(390,114,o),
(308,114,cs),
(235,114,o),
(208,143,o),
(203,198,cs),
(200,261,o),
(211,368,o),
(219,412,cs),
(232,536,o),
(279,653,o),
(438,653,cs),
(473,653,o),
(531,649,o),
(576,638,cs),
(596,633,o),
(631,638,o),
(643,677,cs),
(653,714,o),
(639,737,o),
(618,746,cs),
(571,766,o),
(491,772,o),
(430,772,cs),
(192,772,o),
(115,590,o),
(97,413,cs),
(93,388,o),
(81,260,o),
(84,200,cs),
(90,124,o),
(139,-5,o),
(315,-5,cs)
);
}
);
vertWidth = 0;
width = 594;
}
);
metricLeft = C;
metricRight = C;
},
{
color = 7;
glyphname = D.ss04;
lastChange = "2023-09-29 01:33:01 +0000";
layers = (
{
layerId = m01;
shapes = (
{
closed = 1;
nodes = (
(486,0,ls),
(1099,0,o),
(1433,396,o),
(1507,1049,cs),
(1572,1625,o),
(1246,2008,o),
(666,2008,cs),
(494,2008,ls),
(419,2008,o),
(400,1968,o),
(395,1917,cs),
(203,94,ls),
(197,41,o),
(227,0,o),
(290,0,cs)
);
},
{
closed = 1;
nodes = (
(238,20,o),
(217,48,o),
(222,91,cs),
(414,1915,ls),
(419,1962,o),
(433,1988,o),
(494,1988,cs),
(666,1988,ls),
(1236,1988,o),
(1552,1617,o),
(1488,1052,cs),
(1414,405,o),
(1089,20,o),
(486,20,cs),
(290,20,ls)
);
},
{
closed = 1;
nodes = (
(475,142,ls),
(1014,142,o),
(1288,471,o),
(1358,1062,cs),
(1410,1531,o),
(1149,1869,o),
(687,1869,cs),
(544,1869,l),
(361,142,l)
);
},
{
closed = 1;
nodes = (
(562,1849,l),
(687,1849,ls),
(1137,1849,o),
(1389,1524,o),
(1338,1065,cs),
(1269,480,o),
(1004,162,o),
(475,162,cs),
(383,162,l)
);
},
{
closed = 1;
nodes = (
(518,1864,o),
(540,1886,o),
(540,1913,cs),
(540,1940,o),
(518,1962,o),
(491,1962,cs),
(464,1962,o),
(442,1940,o),
(442,1913,cs),
(442,1886,o),
(464,1864,o),
(491,1864,cs)
);
}
);
vertWidth = 0;
width = 1454;
},
{
layerId = m002;
shapes = (
{
closed = 1;
nodes = (
(578,0,ls),
(1172,0,o),
(1563,399,o),
(1629,1035,cs),
(1687,1612,o),
(1333,2008,o),
(740,2008,cs),
(527,2008,ls),
(423,2006,o),
(370,1958,o),
(359,1866,cs),
(181,170,ls),
(172,76,o),
(244,0,o),
(345,0,cs)
);
},
{
closed = 1;
nodes = (
(264,40,o),
(213,93,o),
(220,166,cs),
(398,1861,ls),
(407,1936,o),
(441,1967,o),
(527,1968,cs),
(740,1968,ls),
(1313,1968,o),
(1646,1596,o),
(1590,1039,cs),
(1525,419,o),
(1154,40,o),
(578,40,cs),
(346,40,ls)
);
},
{
closed = 1;
nodes = (
(560,271,ls),
(1000,271,o),
(1289,534,o),
(1336,1045,cs),
(1378,1512,o),
(1123,1742,o),
(708,1742,cs),
(653,1742,l),
(497,271,l)
);
},
{
closed = 1;
nodes = (
(688,1703,l),
(708,1703,ls),
(1105,1703,o),
(1337,1493,o),
(1297,1049,cs),
(1252,555,o),
(983,310,o),
(560,310,cs),
(541,310,l)
);
},
{
closed = 1;
nodes = (
(527,1825,o),
(554,1852,o),
(554,1885,cs),
(554,1918,o),
(527,1945,o),
(494,1945,cs),
(461,1945,o),
(434,1918,o),
(434,1885,cs),
(434,1852,o),
(461,1825,o),
(494,1825,cs)
);
}
);
vertWidth = 0;
width = 1577;
},
{
associatedMasterId = m01;
layerId = "65D45964-139F-42EA-844B-768674C9B4E8";
name = background;
shapes = (
{
closed = 1;
nodes = (
(143,0,ls),
(371,0,o),
(510,152,o),
(537,417,cs),
(560,619,o),
(412,772,o),
(188,772,cs),
(146,772,l),
(139,718,l),
(196,718,ls),
(385,718,o),
(495,581,o),
(479,416,cs),
(454,184,o),
(331,55,o),
(139,55,cs),
(74,55,l),
(67,0,l)
);
},
{
closed = 1;
nodes = (
(173,757,o),
(171,772,o),
(146,772,cs),
(120,772,o),
(114,759,o),
(112,740,cs),
(37,32,ls),
(34,14,o),
(45,0,o),
(67,0,cs),
(93,0,o),
(95,18,o),
(96,30,cs),
(171,735,ls)
);
}
);
vertWidth = 0;
width = 594;
}
);
metricLeft = D;
},
{
color = 7;
glyphname = E.ss04;
lastChange = "2023-09-29 01:33:01 +0000";
layers = (
{
layerId = m01;
shapes = (
{
closed = 1;
nodes = (
(1250,0,ls),
(1316,0,o),
(1342,42,o),
(1342,84,cs),
(1342,125,o),
(1316,162,o),
(1250,162,cs),
(382,162,l),
(471,999,l),
(1276,999,ls),
(1343,999,o),
(1379,1040,o),
(1379,1081,cs),
(1379,1122,o),
(1349,1160,o),
(1284,1160,cs),
(488,1160,l),
(561,1849,l),
(1446,1849,ls),
(1512,1849,o),
(1538,1888,o),
(1538,1929,cs),
(1538,1969,o),
(1512,2008,o),
(1446,2008,cs),
(493,2008,ls),
(419,2008,o),
(400,1968,o),
(395,1917,cs),
(203,94,ls),
(197,41,o),
(227,0,o),
(290,0,cs)
);
},
{
closed = 1;
nodes = (
(238,20,o),
(217,48,o),
(222,91,cs),
(415,1915,ls),
(420,1962,o),
(433,1988,o),
(493,1988,cs),
(1446,1988,ls),
(1500,1988,o),
(1518,1961,o),
(1518,1929,cs),
(1518,1895,o),
(1500,1869,o),
(1446,1869,cs),
(543,1869,l),
(466,1141,l),
(1284,1141,ls),
(1338,1141,o),
(1359,1114,o),
(1359,1081,cs),
(1359,1049,o),
(1334,1019,o),
(1276,1019,cs),
(453,1019,l),
(360,142,l),
(1250,142,ls),
(1305,142,o),
(1322,118,o),
(1322,84,cs),
(1322,49,o),
(1304,20,o),
(1250,20,cs),
(290,20,ls)
);
},
{
closed = 1;
nodes = (
(518,1864,o),
(540,1886,o),
(540,1913,cs),
(540,1940,o),
(518,1962,o),
(491,1962,cs),
(464,1962,o),
(442,1940,o),
(442,1913,cs),
(442,1886,o),
(464,1864,o),
(491,1864,cs)
);
}
);
vertWidth = 0;
width = 1493;
},
{
layerId = m002;
shapes = (
{
closed = 1;
nodes = (
(1328,0,ls),
(1433,0,o),
(1490,91,o),
(1490,178,cs),
(1490,260,o),
(1425,328,o),
(1318,328,cs),
(541,328,l),
(605,934,l),
(1344,934,ls),
(1451,934,o),
(1516,1001,o),
(1516,1083,cs),
(1516,1175,o),
(1440,1230,o),
(1342,1230,cs),
(636,1230,l),
(684,1680,l),
(1506,1680,ls),
(1611,1680,o),
(1671,1768,o),
(1671,1856,cs),
(1671,1943,o),
(1601,2008,o),
(1496,2008,cs),
(535,2008,ls),
(433,2008,o),
(370,1968,o),
(360,1873,cs),
(181,172,ls),
(171,80,o),
(218,0,o),
(339,0,cs)
);
},
{
closed = 1;
nodes = (
(244,40,o),
(212,91,o),
(220,168,cs),
(399,1868,ls),
(407,1943,o),
(447,1968,o),
(535,1968,cs),
(1496,1968,ls),
(1583,1968,o),
(1632,1923,o),
(1632,1856,cs),
(1632,1782,o),
(1588,1719,o),
(1506,1719,cs),
(649,1719,l),
(593,1190,l),
(1342,1190,ls),
(1424,1190,o),
(1477,1152,o),
(1477,1083,cs),
(1477,1019,o),
(1432,973,o),
(1344,973,cs),
(569,973,l),
(498,289,l),
(1318,289,ls),
(1406,289,o),
(1451,241,o),
(1451,178,cs),
(1451,105,o),
(1409,40,o),
(1328,40,cs),
(339,40,ls)
);
},
{
closed = 1;
nodes = (
(527,1825,o),
(554,1852,o),
(554,1885,cs),
(554,1918,o),
(527,1945,o),
(494,1945,cs),
(461,1945,o),
(434,1918,o),
(434,1885,cs),
(434,1852,o),
(461,1825,o),
(494,1825,cs)
);
}
);
vertWidth = 0;
width = 1644;
}
);
metricLeft = E;
metricRight = E;
},
{
color = 7;
glyphname = F.ss04;
lastChange = "2023-09-29 01:33:01 +0000";
layers = (
{
layerId = m01;
shapes = (
{
closed = 1;
nodes = (
(365,0,o),
(371,56,o),
(374,86,cs),
(471,999,l),
(1255,999,ls),
(1323,999,o),
(1350,1041,o),
(1350,1081,cs),
(1350,1121,o),
(1323,1160,o),
(1255,1160,cs),
(488,1160,l),
(561,1849,l),
(1445,1849,ls),
(1511,1849,o),
(1538,1888,o),
(1538,1929,cs),
(1538,1969,o),
(1511,2008,o),
(1445,2008,cs),
(493,2008,ls),
(418,2008,o),
(400,1968,o),
(395,1917,cs),
(203,93,ls),
(198,41,o),
(226,0,o),
(290,0,cs)
);
},
{
closed = 1;
nodes = (
(238,20,o),
(217,48,o),
(222,91,cs),
(415,1915,ls),
(420,1962,o),
(432,1988,o),
(493,1988,cs),
(1445,1988,ls),
(1499,1988,o),
(1518,1961,o),
(1518,1929,cs),
(1518,1895,o),
(1500,1869,o),
(1445,1869,cs),
(543,1869,l),
(466,1141,l),
(1255,1141,ls),
(1311,1141,o),
(1330,1114,o),
(1330,1081,cs),
(1330,1049,o),
(1311,1019,o),
(1255,1019,cs),
(453,1019,l),
(354,88,ls),
(351,58,o),
(347,20,o),
(290,20,cs)
);
},
{
closed = 1;
nodes = (
(518,1864,o),
(540,1886,o),
(540,1913,cs),
(540,1940,o),
(518,1962,o),
(491,1962,cs),
(464,1962,o),
(442,1940,o),
(442,1913,cs),
(442,1886,o),
(464,1864,o),
(491,1864,cs)
);
}
);
vertWidth = 0;
width = 1493;
},
{
layerId = m002;
shapes = (
{
closed = 1;
nodes = (
(456,0,o),
(514,74,o),
(525,174,cs),
(606,933,l),
(1383,933,ls),
(1491,933,o),
(1543,1000,o),
(1543,1082,cs),
(1543,1171,o),
(1469,1229,o),
(1368,1229,cs),
(638,1229,l),
(685,1680,l),
(1540,1680,ls),
(1642,1680,o),
(1715,1750,o),
(1715,1851,cs),
(1715,1946,o),
(1642,2008,o),
(1537,2008,cs),
(531,2008,ls),
(427,2008,o),
(370,1965,o),
(360,1871,cs),
(183,185,ls),
(174,95,o),
(220,0,o),
(322,0,cs)
);
},
{
closed = 1;
nodes = (
(247,40,o),
(214,105,o),
(222,181,cs),
(399,1866,ls),
(407,1942,o),
(443,1968,o),
(531,1968,cs),
(1537,1968,ls),
(1625,1968,o),
(1676,1925,o),
(1676,1851,cs),
(1676,1769,o),
(1624,1719,o),
(1540,1719,cs),
(650,1719,l),
(594,1190,l),
(1368,1190,ls),
(1453,1190,o),
(1504,1149,o),
(1504,1082,cs),
(1504,1016,o),
(1470,972,o),
(1383,972,cs),
(571,972,l),
(486,178,ls),
(477,92,o),
(435,40,o),
(322,40,cs)
);
},
{
closed = 1;
nodes = (
(527,1825,o),
(554,1852,o),
(554,1885,cs),
(554,1918,o),
(527,1945,o),
(494,1945,cs),
(461,1945,o),
(434,1918,o),
(434,1885,cs),
(434,1852,o),
(461,1825,o),
(494,1825,cs)
);
}
);
vertWidth = 0;
width = 1688;
}
);
metricLeft = F;
metricRight = F;
},
{
color = 7;
glyphname = G.ss04;
lastChange = "2023-09-29 01:33:01 +0000";
layers = (
{
layerId = m01;
shapes = (
{
closed = 1;
nodes = (
(822,-20,o),
(1038,169,o),
(1200,545,c),
(1155,122,ls),
(1148,55,o),
(1161,4,o),
(1229,0,cs),
(1310,-3,o),
(1322,57,o),
(1329,120,cs),
(1420,998,ls),
(1426,1057,o),
(1381,1091,o),
(1325,1091,cs),
(1266,1091,o),
(1254,1054,o),
(1236,1013,cs),
(1020,506,o),
(855,142,o),
(588,142,cs),
(328,142,o),
(220,518,o),
(305,1031,cs),
(374,1449,o),
(622,1862,o),
(954,1862,cs),
(1126,1862,o),
(1251,1730,o),
(1317,1661,cs),
(1354,1625,o),
(1404,1615,o),
(1442,1651,cs),
(1482,1687,o),
(1485,1743,o),
(1451,1787,cs),
(1373,1893,o),
(1189,2028,o),
(977,2028,cs),
(515,2028,o),
(223,1539,o),
(136,1054,cs),
(22,439,o),
(192,-20,o),
(560,-20,cs)
);
},
{
closed = 1;
nodes = (
(207,0,o),
(43,444,o),
(155,1051,cs),
(242,1531,o),
(527,2008,o),
(977,2008,cs),
(1183,2008,o),
(1359,1878,o),
(1435,1775,cs),
(1464,1738,o),
(1461,1696,o),
(1429,1666,cs),
(1399,1637,o),
(1363,1644,o),
(1332,1675,cs),
(1265,1745,o),
(1133,1881,o),
(954,1881,cs),
(610,1881,o),
(355,1457,o),
(285,1034,cs),
(199,514,o),
(312,122,o),
(588,122,cs),
(868,122,o),
(1037,498,o),
(1254,1005,cs),
(1272,1047,o),
(1280,1071,o),
(1325,1071,cs),
(1373,1071,o),
(1405,1046,o),
(1400,1000,cs),
(1310,122,ls),
(1304,60,o),
(1294,17,o),
(1230,20,cs),
(1178,23,o),
(1168,57,o),
(1175,120,cs),
(1227,605,ls),
(1228,611,o),
(1210,615,o),
(1208,610,cs),
(1037,190,o),
(814,0,o),
(560,0,cs)
);
},
{
closed = 1;
nodes = (
(1412,1671,o),
(1434,1693,o),
(1434,1720,cs),
(1434,1747,o),
(1412,1769,o),
(1385,1769,cs),
(1358,1769,o),
(1336,1747,o),
(1336,1720,cs),
(1336,1693,o),
(1358,1671,o),
(1385,1671,cs)
);
}
);
vertWidth = 0;
width = 1623;
},
{
layerId = m002;
shapes = (
{
closed = 1;
nodes = (
(900,-20,o),
(1059,209,o),
(1158,387,c),
(1136,170,ls),
(1125,63,o),
(1199,0,o),
(1313,0,cs),
(1431,0,o),
(1470,66,o),
(1478,145,cs),
(1567,986,ls),
(1578,1094,o),
(1505,1161,o),
(1400,1161,cs),
(1273,1161,o),
(1235,1134,o),
(1097,851,cs),
(1010,672,o),
(791,289,o),
(668,289,cs),
(532,289,o),
(484,538,o),
(543,1014,cs),
(591,1415,o),
(685,1713,o),
(1015,1713,cs),
(1158,1713,o),
(1237,1651,o),
(1265,1581,cs),
(1307,1480,o),
(1383,1439,o),
(1492,1469,cs),
(1589,1493,o),
(1613,1592,o),
(1590,1674,cs),
(1531,1902,o),
(1297,2028,o),
(1015,2028,cs),
(518,2028,o),
(283,1637,o),
(198,1058,cs),
(105,438,o),
(195,-20,o),
(648,-20,cs)
);
},
{
closed = 1;
nodes = (
(229,19,o),
(145,441,o),
(237,1052,cs),
(321,1621,o),
(542,1988,o),
(1015,1988,cs),
(1286,1988,o),
(1498,1872,o),
(1552,1664,cs),
(1571,1595,o),
(1555,1525,o),
(1482,1507,cs),
(1390,1482,o),
(1336,1510,o),
(1301,1595,cs),
(1267,1680,o),
(1170,1752,o),
(1015,1752,cs),
(657,1752,o),
(552,1426,o),
(504,1019,cs),
(444,532,o),
(496,250,o),
(668,250,cs),
(818,250,o),
(1044,653,o),
(1131,832,cs),
(1270,1117,o),
(1298,1122,o),
(1400,1122,cs),
(1487,1122,o),
(1537,1076,o),
(1528,990,cs),
(1439,150,ls),
(1432,80,o),
(1407,40,o),
(1313,40,cs),
(1216,40,o),
(1167,82,o),
(1175,166,cs),
(1206,473,ls),
(1207,483,o),
(1177,496,o),
(1170,484,cs),
(1027,232,o),
(880,19,o),
(648,19,cs)
);
},
{
closed = 1;
nodes = (
(1480,1541,o),
(1507,1568,o),
(1507,1601,cs),
(1507,1634,o),
(1480,1661,o),
(1447,1661,cs),
(1414,1661,o),
(1387,1634,o),
(1387,1601,cs),
(1387,1568,o),
(1414,1541,o),
(1447,1541,cs)
);
}
);
vertWidth = 0;
width = 1740;
},
{
associatedMasterId = m002;
layerId = "38D35BBD-0824-4139-A76A-CF2BFBC65422";
name = background;
shapes = (
{
closed = 1;
nodes = (
(491,440,o),
(485,429,o),
(423,322,cs),
(386,258,o),
(293,101,o),
(247,101,cs),
(214,101,o),
(207,135,o),
(203,184,cs),
(198,254,o),
(210,361,o),
(216,421,cs),
(228,529,o),
(247,665,o),
(443,665,cs),
(470,665,o),
(497,637,o),
(501,617,cs),
(511,579,o),
(554,570,o),
(582,577,cs),
(614,587,o),
(623,619,o),
(614,649,cs),
(593,733,o),
(516,772,o),
(435,772,cs),
(156,772,o),
(114,579,o),
(95,405,cs),
(93,381,o),
(80,252,o),
(84,179,cs),
(90,94,o),
(126,-5,o),
(240,-5,cs),
(353,-5,o),
(457,182,o),
(532,315,c),
(536,440,l)
);
},
{
closed = 1;
nodes = (
(596,417,o),
(571,440,o),
(535,440,cs),
(488,440,o),
(475,407,o),
(473,388,cs),
(438,58,ls),
(435,21,o),
(460,0,o),
(500,0,cs),
(542,0,o),
(554,21,o),
(557,50,cs),
(593,380,ls)
);
}
);
vertWidth = 0;
width = 594;
}
);
metricLeft = G;
metricRight = G;
},
{
color = 7;
glyphname = H.ss04;
lastChange = "2023-09-29 01:33:01 +0000";
layers = (
{
layerId = m01;
shapes = (
{
closed = 1;
nodes = (
(365,0,o),
(371,56,o),
(374,86,cs),
(471,999,l),
(1327,999,l),
(1234,93,ls),
(1230,56,o),
(1240,0,o),
(1321,0,cs),
(1385,0,o),
(1402,46,o),
(1405,76,cs),
(1598,1910,ls),
(1604,1966,o),
(1579,2008,o),
(1513,2008,cs),
(1449,2008,o),
(1430,1966,o),
(1426,1932,cs),
(1344,1160,l),
(488,1160,l),
(567,1902,ls),
(573,1962,o),
(552,2008,o),
(493,2008,cs),
(431,2008,o),
(400,1969,o),
(395,1917,cs),
(203,94,ls),
(197,41,o),
(227,0,o),
(290,0,cs)
);
},
{
closed = 1;
nodes = (
(238,20,o),
(218,48,o),
(223,91,cs),
(415,1915,ls),
(420,1961,o),
(442,1988,o),
(493,1988,cs),
(538,1988,o),
(554,1958,o),
(548,1904,cs),
(466,1141,l),
(1361,1141,l),
(1445,1930,ls),
(1448,1960,o),
(1463,1988,o),
(1513,1988,cs),
(1567,1988,o),
(1583,1960,o),
(1578,1912,cs),
(1385,78,ls),
(1382,51,o),
(1370,20,o),
(1321,20,cs),
(1257,20,o),
(1249,57,o),
(1253,91,cs),
(1349,1019,l),
(454,1019,l),
(355,88,ls),
(352,58,o),
(348,20,o),
(290,20,cs)
);
},
{
closed = 1;
nodes = (
(510,1864,o),
(532,1886,o),
(532,1913,cs),
(532,1940,o),
(510,1962,o),
(483,1962,cs),
(456,1962,o),
(434,1940,o),
(434,1913,cs),
(434,1886,o),
(456,1864,o),
(483,1864,cs)
);
}
);
vertWidth = 0;
width = 1704;
},
{
layerId = m002;
shapes = (
{
closed = 1;
nodes = (
(468,0,o),
(516,72,o),
(523,141,cs),
(608,941,l),
(1279,941,l),
(1198,170,ls),
(1188,71,o),
(1252,0,o),
(1363,0,cs),
(1461,0,o),
(1531,59,o),
(1538,130,cs),
(1717,1833,ls),
(1729,1943,o),
(1654,2008,o),
(1550,2008,cs),
(1457,2008,o),
(1385,1955,o),
(1377,1878,cs),
(1308,1223,l),
(638,1223,l),
(699,1825,ls),
(711,1944,o),
(647,2008,o),
(549,2008,cs),
(461,2008,o),
(369,1965,o),
(359,1866,cs),
(181,170,ls),
(171,74,o),
(245,0,o),
(353,0,cs)
);
},
{
closed = 1;
nodes = (
(264,40,o),
(212,91,o),
(220,166,cs),
(398,1861,ls),
(406,1937,o),
(472,1968,o),
(549,1968,cs),
(628,1968,o),
(670,1927,o),
(660,1829,cs),
(594,1185,l),
(1343,1185,l),
(1416,1874,ls),
(1422,1931,o),
(1472,1968,o),
(1550,1968,cs),
(1636,1968,o),
(1687,1924,o),
(1678,1837,cs),
(1499,134,ls),
(1493,81,o),
(1445,40,o),
(1363,40,cs),
(1272,40,o),
(1229,88,o),
(1237,166,cs),
(1323,981,l),
(573,981,l),
(484,144,ls),
(478,88,o),
(445,40,o),
(353,40,cs)
);
},
{
closed = 1;
nodes = (
(564,1825,o),
(591,1852,o),
(591,1885,cs),
(591,1918,o),
(564,1945,o),
(531,1945,cs),
(498,1945,o),
(471,1918,o),
(471,1885,cs),
(471,1852,o),
(498,1825,o),
(531,1825,cs)
);
}
);
vertWidth = 0;
width = 1801;
}
);
metricLeft = H;
metricRight = H;
},
{
color = 7;
glyphname = I.ss04;
lastChange = "2023-09-29 01:33:01 +0000";
layers = (
{
layerId = m01;
shapes = (
{
closed = 1;
nodes = (
(365,0,o),
(375,55,o),
(378,86,cs),
(569,1902,ls),
(575,1960,o),
(566,2008,o),
(495,2008,cs),
(427,2008,o),
(400,1969,o),
(395,1917,cs),
(203,94,ls),
(197,41,o),
(229,0,o),
(289,0,cs)
);
},
{
closed = 1;
nodes = (
(240,20,o),
(218,47,o),
(223,91,cs),
(415,1914,ls),
(420,1961,o),
(439,1988,o),
(495,1988,cs),
(549,1988,o),
(555,1959,o),
(549,1904,cs),
(358,88,ls),
(355,58,o),
(348,20,o),
(289,20,cs)
);
},
{
closed = 1;
nodes = (
(511,1864,o),
(533,1886,o),
(533,1913,cs),
(533,1940,o),
(511,1962,o),
(484,1962,cs),
(457,1962,o),
(435,1940,o),
(435,1913,cs),
(435,1886,o),
(457,1864,o),
(484,1864,cs)
);
}
);
vertWidth = 0;
width = 676;
},
{
layerId = m002;
shapes = (
{
closed = 1;
nodes = (
(442,0,o),
(511,62,o),
(519,136,cs),
(697,1825,ls),
(712,1969,o),
(622,2008,o),
(539,2008,cs),
(442,2008,o),
(369,1964,o),
(359,1865,cs),
(181,170,ls),
(171,76,o),
(227,0,o),
(330,0,cs)
);
},
{
closed = 1;
nodes = (
(249,40,o),
(212,89,o),
(220,166,cs),
(399,1862,ls),
(407,1938,o),
(455,1968,o),
(539,1968,cs),
(611,1968,o),
(670,1942,o),
(658,1829,cs),
(480,139,ls),
(474,83,o),
(425,40,o),
(330,40,cs)
);
},
{
closed = 1;
nodes = (
(565,1825,o),
(592,1852,o),
(592,1885,cs),
(592,1918,o),
(565,1945,o),
(532,1945,cs),
(499,1945,o),
(472,1918,o),
(472,1885,cs),
(472,1852,o),
(499,1825,o),
(532,1825,cs)
);
}
);
vertWidth = 0;
width = 782;
}
);
metricLeft = I;
metricRight = I;
},
{
color = 7;
glyphname = J.ss04;
lastChange = "2023-09-29 01:33:01 +0000";
layers = (
{
layerId = m01;
shapes = (
{
closed = 1;
nodes = (
(730,0,o),
(882,180,o),
(930,638,cs),
(1063,1902,ls),
(1069,1961,o),
(1056,2008,o),
(986,2008,cs),
(921,2008,o),
(896,1968,o),
(891,1917,cs),
(758,640,ls),
(721,285,o),
(612,162,o),
(415,162,cs),
(291,162,o),
(219,232,o),
(158,310,cs),
(121,358,o),
(67,369,o),
(30,331,cs),
(-11,291,o),
(-2,241,o),
(29,202,cs),
(121,88,o),
(246,0,o),
(415,0,cs)
);
},
{
closed = 1;
nodes = (
(253,20,o),
(134,102,o),
(45,214,cs),
(18,249,o),
(11,285,o),
(44,317,cs),
(73,347,o),
(111,339,o),
(142,298,cs),
(204,219,o),
(282,142,o),
(415,142,cs),
(622,142,o),
(739,275,o),
(777,638,cs),
(911,1915,ls),
(916,1961,o),
(933,1988,o),
(986,1988,cs),
(1041,1988,o),
(1049,1958,o),
(1043,1904,cs),
(910,640,ls),
(863,189,o),
(720,20,o),
(415,20,cs)
);
},
{
closed = 1;
nodes = (
(1004,1864,o),
(1026,1886,o),
(1026,1913,cs),
(1026,1940,o),
(1004,1962,o),
(977,1962,cs),
(950,1962,o),
(928,1940,o),
(928,1913,cs),
(928,1886,o),
(950,1864,o),
(977,1864,cs)
);
}
);
vertWidth = 0;
width = 1170;
},
{
layerId = m002;
shapes = (
{
closed = 1;
nodes = (
(851,0,o),
(1087,170,o),
(1133,602,cs),
(1262,1825,ls),
(1277,1969,o),
(1188,2008,o),
(1105,2008,cs),
(1011,2008,o),
(935,1964,o),
(925,1866,cs),
(803,680,ls),
(769,354,o),
(691,309,o),
(536,309,cs),
(452,309,o),
(376,402,o),
(329,449,cs),
(261,516,o),
(131,504,o),
(78,431,cs),
(26,359,o),
(40,262,o),
(89,210,cs),
(142,152,o),
(267,0,o),
(547,0,cs)
);
},
{
closed = 1;
nodes = (
(286,39,o),
(172,177,o),
(118,236,cs),
(79,278,o),
(68,350,o),
(109,408,cs),
(150,464,o),
(249,473,o),
(301,421,cs),
(346,376,o),
(433,270,o),
(536,270,cs),
(706,270,o),
(806,329,o),
(842,676,cs),
(964,1861,ls),
(972,1938,o),
(1024,1968,o),
(1105,1968,cs),
(1177,1968,o),
(1235,1943,o),
(1223,1829,cs),
(1094,606,ls),
(1050,193,o),
(835,39,o),
(547,39,cs)
);
},
{
closed = 1;
nodes = (
(1127,1825,o),
(1154,1852,o),
(1154,1885,cs),
(1154,1918,o),
(1127,1945,o),
(1094,1945,cs),
(1061,1945,o),
(1034,1918,o),
(1034,1885,cs),
(1034,1852,o),
(1061,1825,o),
(1094,1825,cs)
);
}
);
vertWidth = 0;
width = 1347;
},
{
associatedMasterId = m01;
layerId = "9959F246-042E-4193-B1B9-CF1C12FB95A6";
name = background;
shapes = (
{
closed = 1;
nodes = (
(340,244,ls),
(334,187,o),
(323,125,o),
(287,90,cs),
(266,68,o),
(232,55,o),
(191,55,cs),
(160,55,o),
(132,76,o),
(109,105,cs),
(94,125,o),
(69,134,o),
(56,122,cs),
(38,107,o),
(44,91,o),
(67,65,cs),
(96,31,o),
(139,0,o),
(195,0,cs),
(255,0,o),
(298,15,o),
(328,44,cs),
(372,86,o),
(390,156,o),
(399,244,cs),
(450,740,ls),
(453,762,o),
(448,777,o),
(424,777,cs),
(400,777,o),
(393,764,o),
(391,745,cs)
);
}
);
vertWidth = 0;
width = 594;
},
{
associatedMasterId = m002;
layerId = "134A83CF-652C-4B20-B6C4-B0C20135E8F6";
name = background;
shapes = (
{
closed = 1;
nodes = (
(333,328,ls),
(324,253,o),
(326,181,o),
(291,145,cs),
(271,122,o),
(233,112,o),
(208,112,cs),
(165,112,o),
(135,140,o),
(124,151,cs),
(100,173,o),
(56,175,o),
(34,141,cs),
(23,125,o),
(27,93,o),
(44,75,cs),
(65,52,o),
(112,-5,o),
(219,-5,cs),
(284,-5,o),
(343,24,o),
(386,70,cs),
(440,127,o),
(438,219,o),
(449,318,cs),
(491,709,ls),
(495,759,o),
(467,772,o),
(437,772,cs),
(403,772,o),
(378,757,o),
(374,723,cs)
);
}
);
vertWidth = 0;
width = 594;
}
);
metricLeft = J;
metricRight = J;
},
{
color = 7;
glyphname = K.ss04;
lastChange = "2023-09-29 01:33:01 +0000";
layers = (
{
layerId = m01;
shapes = (
{
closed = 1;
nodes = (
(365,0,o),
(372,63,o),
(376,104,cs),
(477,1040,l),
(1221,63,ls),
(1245,31,o),
(1282,0,o),
(1325,0,cs),
(1359,0,o),
(1395,21,o),
(1401,60,cs),
(1406,85,o),
(1401,112,o),
(1376,145,cs),
(665,1079,l),
(1542,1839,ls),
(1578,1870,o),
(1602,1899,o),
(1602,1930,cs),
(1602,1971,o),
(1573,2008,o),
(1528,2008,cs),
(1497,2008,o),
(1463,1999,o),
(1426,1967,cs),
(489,1155,l),
(566,1902,ls),
(572,1961,o),
(560,2008,o),
(492,2008,cs),
(426,2008,o),
(400,1969,o),
(395,1917,cs),
(205,109,ls),
(200,58,o),
(228,0,o),
(292,0,cs)
);
},
{
closed = 1;
nodes = (
(241,20,o),
(220,63,o),
(225,107,cs),
(415,1915,ls),
(420,1961,o),
(438,1988,o),
(492,1988,cs),
(544,1988,o),
(553,1958,o),
(547,1904,cs),
(467,1134,ls),
(466,1124,o),
(480,1121,o),
(487,1127,cs),
(1439,1952,ls),
(1474,1982,o),
(1501,1988,o),
(1527,1988,cs),
(1561,1988,o),
(1582,1964,o),
(1582,1932,cs),
(1582,1906,o),
(1562,1882,o),
(1529,1854,cs),
(638,1082,l),
(1360,133,ls),
(1382,104,o),
(1385,84,o),
(1381,63,cs),
(1376,34,o),
(1353,20,o),
(1325,20,cs),
(1290,20,o),
(1259,46,o),
(1237,75,cs),
(481,1066,ls),
(475,1074,o),
(460,1072,o),
(459,1063,cs),
(357,106,ls),
(353,65,o),
(348,20,o),
(292,20,cs)
);
},
{
closed = 1;
nodes = (
(509,1864,o),
(531,1886,o),
(531,1913,cs),
(531,1940,o),
(509,1962,o),
(482,1962,cs),
(455,1962,o),
(433,1940,o),
(433,1913,cs),
(433,1886,o),
(455,1864,o),
(482,1864,cs)
);
}
);
vertWidth = 0;
width = 1506;
},
{
layerId = m002;
shapes = (
{
closed = 1;
nodes = (
(468,0,o),
(517,69,o),
(526,153,cs),
(604,873,l),
(1204,85,ls),
(1244,32,o),
(1308,0,o),
(1372,0,cs),
(1437,0,o),
(1515,35,o),
(1527,111,cs),
(1532,153,o),
(1526,208,o),
(1490,256,cs),
(884,1079,l),
(1638,1708,ls),
(1680,1743,o),
(1718,1788,o),
(1721,1842,cs),
(1724,1923,o),
(1660,2008,o),
(1559,2008,cs),
(1506,2008,o),
(1459,1988,o),
(1411,1947,cs),
(649,1287,l),
(699,1825,ls),
(712,1960,o),
(620,2008,o),
(539,2008,cs),
(453,2008,o),
(369,1964,o),
(359,1866,cs),
(183,185,ls),
(172,84,o),
(253,0,o),
(361,0,cs)
);
},
{
closed = 1;
nodes = (
(272,40,o),
(214,101,o),
(222,181,cs),
(398,1861,ls),
(406,1937,o),
(465,1968,o),
(539,1968,cs),
(608,1968,o),
(670,1936,o),
(660,1829,cs),
(605,1247,ls),
(603,1229,o),
(630,1218,o),
(645,1231,cs),
(1436,1917,ls),
(1479,1954,o),
(1515,1968,o),
(1559,1968,cs),
(1638,1968,o),
(1684,1908,o),
(1682,1844,cs),
(1680,1805,o),
(1652,1771,o),
(1612,1737,cs),
(830,1085,l),
(1459,233,ls),
(1488,194,o),
(1493,153,o),
(1488,117,cs),
(1480,64,o),
(1427,40,o),
(1372,40,cs),
(1318,40,o),
(1268,64,o),
(1235,108,cs),
(598,945,ls),
(591,955,o),
(572,949,o),
(571,938,cs),
(487,158,ls),
(479,86,o),
(445,40,o),
(361,40,cs)
);
},
{
closed = 1;
nodes = (
(558,1825,o),
(585,1852,o),
(585,1885,cs),
(585,1918,o),
(558,1945,o),
(525,1945,cs),
(492,1945,o),
(465,1918,o),
(465,1885,cs),
(465,1852,o),
(492,1825,o),
(525,1825,cs)
);
}
);
vertWidth = 0;
width = 1639;
}
);
metricLeft = K;
metricRight = K;
},
{
color = 7;
glyphname = L.ss04;
lastChange = "2023-09-29 01:33:01 +0000";
layers = (
{
layerId = m01;
shapes = (
{
closed = 1;
nodes = (
(1209,0,ls),
(1273,0,o),
(1298,45,o),
(1298,90,cs),
(1298,139,o),
(1266,171,o),
(1206,171,cs),
(384,171,l),
(567,1902,ls),
(573,1961,o),
(563,2008,o),
(493,2008,cs),
(424,2008,o),
(400,1969,o),
(395,1917,cs),
(203,94,ls),
(197,41,o),
(227,0,o),
(290,0,cs)
);
},
{
closed = 1;
nodes = (
(238,20,o),
(217,48,o),
(222,91,cs),
(414,1915,ls),
(419,1961,o),
(436,1988,o),
(493,1988,cs),
(546,1988,o),
(553,1959,o),
(547,1904,cs),
(362,152,l),
(1206,152,ls),
(1257,152,o),
(1279,130,o),
(1279,90,cs),
(1279,51,o),
(1260,20,o),
(1209,20,cs),
(290,20,ls)
);
},
{
closed = 1;
nodes = (
(508,1864,o),
(530,1886,o),
(530,1913,cs),
(530,1940,o),
(508,1962,o),
(481,1962,cs),
(454,1962,o),
(432,1940,o),
(432,1913,cs),
(432,1886,o),
(454,1864,o),
(481,1864,cs)
);
}
);
vertWidth = 0;
width = 1446;
},
{
layerId = m002;
shapes = (
{
closed = 1;
nodes = (
(1289,0,ls),
(1391,0,o),
(1449,78,o),
(1449,160,cs),
(1449,243,o),
(1370,315,o),
(1269,315,cs),
(540,315,l),
(699,1825,ls),
(714,1969,o),
(622,2008,o),
(540,2008,cs),
(445,2008,o),
(369,1964,o),
(359,1866,cs),
(181,170,ls),
(171,76,o),
(226,0,o),
(331,0,cs)
);
},
{
closed = 1;
nodes = (
(249,40,o),
(212,89,o),
(220,166,cs),
(398,1861,ls),
(406,1938,o),
(458,1968,o),
(540,1968,cs),
(612,1968,o),
(672,1942,o),
(660,1829,cs),
(496,276,l),
(1269,276,ls),
(1352,276,o),
(1410,223,o),
(1410,160,cs),
(1410,93,o),
(1369,40,o),
(1289,40,cs),
(331,40,ls)
);
},
{
closed = 1;
nodes = (
(570,1825,o),
(597,1852,o),
(597,1885,cs),
(597,1918,o),
(570,1945,o),
(537,1945,cs),
(504,1945,o),
(477,1918,o),
(477,1885,cs),
(477,1852,o),
(504,1825,o),
(537,1825,cs)
);
}
);
vertWidth = 0;
width = 1600;
}
);
metricLeft = L;
metricRight = L;
},
{
color = 7;
glyphname = M.ss04;
lastChange = "2023-09-29 01:33:01 +0000";
layers = (
{
layerId = m01;
shapes = (
{
closed = 1;
nodes = (
(365,0,o),
(370,58,o),
(374,94,cs),
(532,1569,l),
(1097,66,ls),
(1109,33,o),
(1139,0,o),
(1188,0,cs),
(1236,0,o),
(1250,30,o),
(1267,59,cs),
(2156,1547,l),
(2007,93,ls),
(2003,53,o),
(2026,0,o),
(2089,0,cs),
(2164,0,o),
(2176,55,o),
(2179,86,cs),
(2370,1902,ls),
(2376,1962,o),
(2360,2008,o),
(2298,2008,cs),
(2244,2008,o),
(2227,1989,o),
(2207,1955,cs),
(1200,276,l),
(585,1921,ls),
(564,1976,o),
(546,2008,o),
(493,2008,cs),
(440,2008,o),
(402,1979,o),
(395,1917,cs),
(203,94,ls),
(197,41,o),
(226,0,o),
(290,0,cs)
);
},
{
closed = 1;
nodes = (
(237,20,o),
(218,48,o),
(223,91,cs),
(415,1915,ls),
(420,1967,o),
(448,1988,o),
(493,1988,cs),
(534,1988,o),
(546,1967,o),
(566,1914,cs),
(1196,231,l),
(2224,1944,ls),
(2243,1976,o),
(2254,1988,o),
(2298,1988,cs),
(2345,1988,o),
(2356,1958,o),
(2350,1904,cs),
(2159,88,ls),
(2156,58,o),
(2148,20,o),
(2089,20,cs),
(2039,20,o),
(2023,58,o),
(2026,91,cs),
(2181,1591,ls),
(2182,1600,o),
(2168,1606,o),
(2163,1597,cs),
(1250,70,ls),
(1232,40,o),
(1223,20,o),
(1188,20,cs),
(1149,20,o),
(1126,44,o),
(1115,73,cs),
(536,1617,ls),
(533,1626,o),
(518,1626,o),
(517,1615,cs),
(354,96,ls),
(350,59,o),
(347,20,o),
(290,20,cs)
);
},
{
closed = 1;
nodes = (
(316,42,o),
(338,64,o),
(338,91,cs),
(338,118,o),
(316,140,o),
(289,140,cs),
(262,140,o),
(240,118,o),
(240,91,cs),
(240,64,o),
(262,42,o),
(289,42,cs)
);
}
);
vertWidth = 0;
width = 2477;
},
{
layerId = m002;
shapes = (
{
closed = 1;
nodes = (
(450,0,o),
(514,68,o),
(522,146,cs),
(636,1215,l),
(1033,154,ls),
(1074,43,o),
(1144,0,o),
(1261,0,cs),
(1381,0,o),
(1429,73,o),
(1468,140,cs),
(2081,1191,l),
(1970,157,ls),
(1960,68,o),
(2035,0,o),
(2143,0,cs),
(2257,0,o),
(2305,69,o),
(2313,141,cs),
(2490,1825,ls),
(2501,1933,o),
(2443,2008,o),
(2329,2008,cs),
(2220,2008,o),
(2171,1977,o),
(2119,1888,cs),
(1268,435,l),
(734,1885,ls),
(702,1973,o),
(633,2008,o),
(534,2008,cs),
(428,2008,o),
(369,1959,o),
(359,1866,cs),
(181,170,ls),
(171,74,o),
(243,0,o),
(340,0,cs)
);
},
{
closed = 1;
nodes = (
(262,40,o),
(212,91,o),
(220,166,cs),
(398,1861,ls),
(406,1937,o),
(445,1968,o),
(534,1968,cs),
(622,1968,o),
(670,1944,o),
(697,1871,cs),
(1260,344,l),
(2153,1868,ls),
(2199,1947,o),
(2232,1968,o),
(2329,1968,cs),
(2421,1968,o),
(2460,1919,o),
(2451,1829,cs),
(2274,144,ls),
(2268,86,o),
(2235,40,o),
(2143,40,cs),
(2053,40,o),
(2002,87,o),
(2009,153,cs),
(2129,1276,ls),
(2131,1296,o),
(2104,1308,o),
(2092,1288,cs),
(1435,160,ls),
(1396,93,o),
(1360,40,o),
(1261,40,cs),
(1157,40,o),
(1106,72,o),
(1070,167,cs),
(644,1307,ls),
(637,1326,o),
(608,1325,o),
(606,1302,cs),
(483,149,ls),
(476,88,o),
(431,40,o),
(340,40,cs)
);
},
{
closed = 1;
nodes = (
(372,78,o),
(399,105,o),
(399,138,cs),
(399,171,o),
(372,198,o),
(339,198,cs),
(306,198,o),
(279,171,o),
(279,138,cs),
(279,105,o),
(306,78,o),
(339,78,cs)
);
}
);
vertWidth = 0;
width = 2575;
}
);
metricLeft = M;
metricRight = M;
},
{
color = 7;
glyphname = N.ss04;
lastChange = "2023-09-29 01:33:01 +0000";
layers = (
{
layerId = m01;
shapes = (
{
closed = 1;
nodes = (
(365,0,o),
(370,58,o),
(374,94,cs),
(546,1689,l),
(1438,60,ls),
(1458,24,o),
(1486,0,o),
(1531,0,cs),
(1593,0,o),
(1609,36,o),
(1614,86,cs),
(1804,1902,ls),
(1810,1961,o),
(1798,2008,o),
(1730,2008,cs),
(1661,2008,o),
(1638,1969,o),
(1632,1917,cs),
(1465,368,l),
(597,1941,ls),
(576,1978,o),
(549,2008,o),
(491,2008,cs),
(420,2008,o),
(400,1968,o),
(395,1917,cs),
(203,94,ls),
(197,41,o),
(226,0,o),
(290,0,cs)
);
},
{
closed = 1;
nodes = (
(238,20,o),
(218,48,o),
(223,91,cs),
(415,1915,ls),
(420,1962,o),
(433,1988,o),
(491,1988,cs),
(541,1988,o),
(561,1965,o),
(579,1932,cs),
(1464,328,ls),
(1470,317,o),
(1481,318,o),
(1482,332,cs),
(1651,1915,ls),
(1656,1961,o),
(1673,1988,o),
(1730,1988,cs),
(1781,1988,o),
(1790,1959,o),
(1784,1904,cs),
(1594,88,ls),
(1589,41,o),
(1578,20,o),
(1531,20,cs),
(1494,20,o),
(1472,37,o),
(1455,69,cs),
(547,1727,ls),
(540,1740,o),
(530,1735,o),
(529,1723,cs),
(355,96,ls),
(351,59,o),
(348,20,o),
(290,20,cs)
);
},
{
closed = 1;
nodes = (
(314,42,o),
(336,64,o),
(336,91,cs),
(336,118,o),
(314,140,o),
(287,140,cs),
(260,140,o),
(238,118,o),
(238,91,cs),
(238,64,o),
(260,42,o),
(287,42,cs)
);
}
);
vertWidth = 0;
width = 1912;
},
{
layerId = m002;
shapes = (
{
closed = 1;
nodes = (
(451,0,o),
(516,68,o),
(524,146,cs),
(650,1347,l),
(1344,95,ls),
(1377,35,o),
(1430,0,o),
(1511,0,cs),
(1630,0,o),
(1662,72,o),
(1669,141,cs),
(1846,1825,ls),
(1857,1932,o),
(1796,2017,o),
(1683,2017,cs),
(1591,2017,o),
(1516,1963,o),
(1506,1866,cs),
(1382,705,l),
(715,1911,ls),
(676,1982,o),
(612,2008,o),
(538,2008,cs),
(431,2008,o),
(369,1959,o),
(359,1866,cs),
(182,170,ls),
(172,74,o),
(241,0,o),
(342,0,cs)
);
},
{
closed = 1;
nodes = (
(261,40,o),
(213,91,o),
(221,166,cs),
(398,1861,ls),
(406,1936,o),
(448,1968,o),
(538,1968,cs),
(603,1968,o),
(648,1950,o),
(680,1892,cs),
(1378,633,ls),
(1387,616,o),
(1413,618,o),
(1415,640,cs),
(1545,1861,ls),
(1553,1939,o),
(1607,1978,o),
(1683,1978,cs),
(1773,1978,o),
(1816,1919,o),
(1807,1829,cs),
(1630,144,ls),
(1624,84,o),
(1603,40,o),
(1511,40,cs),
(1443,40,o),
(1406,64,o),
(1378,114,cs),
(655,1419,ls),
(645,1437,o),
(620,1433,o),
(618,1412,cs),
(485,149,ls),
(479,88,o),
(433,40,o),
(342,40,cs)
);
},
{
closed = 1;
nodes = (
(381,78,o),
(408,105,o),
(408,138,cs),
(408,171,o),
(381,198,o),
(348,198,cs),
(315,198,o),
(288,171,o),
(288,138,cs),
(288,105,o),
(315,78,o),
(348,78,cs)
);
}
);
vertWidth = 0;
width = 1931;
}
);
metricLeft = N;
metricRight = N;
},
{
color = 7;
glyphname = O.ss04;
lastChange = "2023-09-29 01:33:01 +0000";
layers = (
{
layerId = m01;
shapes = (
{
closed = 1;
nodes = (
(1045,-20,o),
(1363,761,o),
(1423,1341,cs),
(1462,1690,o),
(1269,2028,o),
(890,2028,cs),
(396,2028,o),
(180,1398,o),
(180,853,cs),
(180,403,o),
(279,-20,o),
(546,-20,cs)
);
},
{
closed = 1;
nodes = (
(296,0,o),
(200,405,o),
(200,853,cs),
(200,1393,o),
(411,2008,o),
(890,2008,cs),
(1256,2008,o),
(1441,1684,o),
(1403,1343,cs),
(1344,767,o),
(1031,0,o),
(546,0,cs)
);
},
{
closed = 1;
nodes = (
(948,122,o),
(1221,869,o),
(1268,1310,cs),
(1302,1637,o),
(1178,1889,o),
(875,1889,cs),
(496,1889,o),
(345,1328,o),
(332,855,cs),
(322,478,o),
(395,122,o),
(561,122,cs)
);
},
{
closed = 1;
nodes = (
(414,142,o),
(342,479,o),
(352,854,cs),
(364,1324,o),
(512,1869,o),
(875,1869,cs),
(1165,1869,o),
(1282,1631,o),
(1249,1312,cs),
(1202,875,o),
(933,142,o),
(561,142,cs)
);
},
{
closed = 1;
nodes = (
(1274,1717,o),
(1296,1739,o),
(1296,1766,cs),
(1296,1793,o),
(1274,1815,o),
(1247,1815,cs),
(1220,1815,o),
(1198,1793,o),
(1198,1766,cs),
(1198,1739,o),
(1220,1717,o),
(1247,1717,cs)
);
}
);
vertWidth = 0;
width = 1459;
},
{
layerId = m002;
shapes = (
{
closed = 1;
nodes = (
(1084,-20,o),
(1515,653,o),
(1583,1319,cs),
(1619,1687,o),
(1380,2028,o),
(941,2028,cs),
(492,2028,o),
(179,1607,o),
(179,851,cs),
(179,380,o),
(266,-20,o),
(646,-20,cs)
);
},
{
closed = 1;
nodes = (
(299,19,o),
(219,387,o),
(219,851,cs),
(219,1591,o),
(514,1989,o),
(941,1989,cs),
(1357,1989,o),
(1578,1674,o),
(1544,1322,cs),
(1477,669,o),
(1061,19,o),
(646,19,cs)
);
},
{
closed = 1;
nodes = (
(897,252,o),
(1233,865,o),
(1277,1311,cs),
(1300,1561,o),
(1210,1755,o),
(949,1755,cs),
(650,1755,o),
(483,1353,o),
(483,856,cs),
(483,583,o),
(500,252,o),
(676,252,cs)
);
},
{
closed = 1;
nodes = (
(539,291,o),
(522,586,o),
(522,856,cs),
(522,1342,o),
(678,1716,o),
(949,1716,cs),
(1184,1716,o),
(1260,1551,o),
(1238,1315,cs),
(1195,878,o),
(869,291,o),
(676,291,cs)
);
},
{
closed = 1;
nodes = (
(1338,1663,o),
(1365,1690,o),
(1365,1723,cs),
(1365,1756,o),
(1338,1783,o),
(1305,1783,cs),
(1272,1783,o),
(1245,1756,o),
(1245,1723,cs),
(1245,1690,o),
(1272,1663,o),
(1305,1663,cs)
);
}
);
vertWidth = 0;
width = 1601;
},
{
associatedMasterId = m01;
layerId = "20C156BE-152D-4B18-BA16-9023BA2DA609";
name = background;
shapes = (
{
closed = 1;
nodes = (
(399,-5,o),
(522,293,o),
(545,517,cs),
(560,651,o),
(486,772,o),
(334,772,cs),
(188,772,o),
(125,662,o),
(87,486,cs),
(77,438,o),
(70,383,o),
(70,330,cs),
(67,170,o),
(105,-5,o),
(208,-5,cs)
);
},
{
closed = 1;
nodes = (
(147,50,o),
(129,211,o),
(129,318,cs),
(131,368,o),
(134,422,o),
(143,461,cs),
(176,625,o),
(226,718,o),
(329,718,cs),
(473,718,o),
(495,607,o),
(485,505,cs),
(465,312,o),
(347,50,o),
(203,50,cs)
);
}
);
vertWidth = 0;
width = 594;
},
{
associatedMasterId = m002;
layerId = "FECD28BB-41F6-409F-998E-C3EA8BC308B1";
name = background;
shapes = (
{
closed = 1;
nodes = (
(434,-5,o),
(582,287,o),
(605,510,cs),
(619,651,o),
(513,775,o),
(361,775,cs),
(209,775,o),
(125,659,o),
(87,487,cs),
(77,440,o),
(70,386,o),
(70,336,cs),
(68,178,o),
(89,-5,o),
(232,-5,cs)
);
},
{
closed = 1;
nodes = (
(194,102,o),
(188,222,o),
(189,320,cs),
(189,366,o),
(194,413,o),
(201,449,cs),
(232,600,o),
(272,668,o),
(364,668,cs),
(487,668,o),
(492,575,o),
(485,507,cs),
(466,334,o),
(335,102,o),
(244,102,cs)
);
}
);
vertWidth = 0;
width = 594;
}
);
metricLeft = O;
metricRight = O;
},
{
color = 7;
glyphname = P.ss04;
lastChange = "2023-09-29 01:33:01 +0000";
layers = (
{
layerId = m01;
shapes = (
{
closed = 1;
nodes = (
(367,0,o),
(373,69,o),
(376,99,cs),
(472,1002,l),
(1030,1010,o),
(1470,1144,o),
(1504,1506,cs),
(1534,1829,o),
(1132,2008,o),
(492,2008,cs),
(424,2008,o),
(401,1972,o),
(395,1917,cs),
(204,106,ls),
(199,55,o),
(227,0,o),
(291,0,cs)
);
},
{
closed = 1;
nodes = (
(240,20,o),
(218,61,o),
(223,104,cs),
(414,1915,ls),
(419,1964,o),
(436,1988,o),
(493,1988,cs),
(1125,1988,o),
(1514,1817,o),
(1485,1508,cs),
(1452,1156,o),
(1016,1027,o),
(454,1022,c),
(356,101,ls),
(353,70,o),
(349,20,o),
(291,20,cs)
);
},
{
closed = 1;
nodes = (
(517,1864,o),
(539,1886,o),
(539,1913,cs),
(539,1940,o),
(517,1962,o),
(490,1962,cs),
(463,1962,o),
(441,1940,o),
(441,1913,cs),
(441,1886,o),
(463,1864,o),
(490,1864,cs)
);
},
{
closed = 1;
nodes = (
(971,1146,o),
(1324,1250,o),
(1354,1522,cs),
(1375,1713,o),
(1081,1892,o),
(544,1872,c),
(467,1141,l)
);
},
{
closed = 1;
nodes = (
(562,1853,l),
(1079,1868,o),
(1352,1699,o),
(1334,1524,cs),
(1307,1270,o),
(977,1169,o),
(489,1161,c)
);
}
);
vertWidth = 0;
width = 1463;
},
{
layerId = m002;
shapes = (
{
closed = 1;
nodes = (
(470,0,o),
(516,80,o),
(524,153,cs),
(604,925,l),
(1032,944,o),
(1508,973,o),
(1558,1433,cs),
(1604,1859,o),
(1161,2018,o),
(518,2008,cs),
(429,2008,o),
(369,1955,o),
(359,1859,cs),
(182,184,ls),
(172,93,o),
(240,0,o),
(352,0,cs)
);
},
{
closed = 1;
nodes = (
(262,39,o),
(213,106,o),
(221,180,cs),
(398,1854,ls),
(406,1933,o),
(446,1969,o),
(518,1969,cs),
(1152,1979,o),
(1561,1831,o),
(1519,1437,cs),
(1473,1005,o),
(1002,978,o),
(568,962,c),
(485,157,ls),
(478,94,o),
(445,39,o),
(352,39,cs)
);
},
{
closed = 1;
nodes = (
(526,1825,o),
(553,1852,o),
(553,1885,cs),
(553,1918,o),
(526,1945,o),
(493,1945,cs),
(460,1945,o),
(433,1918,o),
(433,1885,cs),
(433,1852,o),
(460,1825,o),
(493,1825,cs)
);
},
{
closed = 1;
nodes = (
(902,1215,o),
(1224,1213,o),
(1255,1448,cs),
(1280,1641,o),
(1121,1734,o),
(649,1738,c),
(593,1197,l)
);
},
{
closed = 1;
nodes = (
(685,1699,l),
(1113,1691,o),
(1238,1613,o),
(1216,1452,cs),
(1187,1235,o),
(801,1245,o),
(636,1239,c)
);
}
);
vertWidth = 0;
width = 1530;
},
{
associatedMasterId = m01;
layerId = "02DD8EBC-8F3A-4034-A466-F24C24D63358";
name = background;
shapes = (
{
closed = 1;
nodes = (
(329,361,o),
(512,381,o),
(531,565,cs),
(545,709,o),
(383,772,o),
(150,772,c),
(153,718,l),
(368,718,o),
(482,666,o),
(472,571,cs),
(457,436,o),
(301,416,o),
(129,416,c),
(125,361,l)
);
},
{
closed = 1;
nodes = (
(172,757,o),
(170,772,o),
(145,772,cs),
(119,772,o),
(113,759,o),
(110,740,cs),
(36,32,ls),
(33,14,o),
(44,-5,o),
(65,-5,cs),
(91,-5,o),
(94,18,o),
(95,30,cs),
(170,735,ls)
);
}
);
vertWidth = 0;
width = 594;
}
);
metricLeft = P;
metricRight = P;
},
{
color = 7;
glyphname = Q.ss04;
lastChange = "2023-09-29 01:33:01 +0000";
layers = (
{
layerId = m01;
shapes = (
{
closed = 1;
nodes = (
(1206,-86,o),
(1195,-24,o),
(1149,20,cs),
(962,199,l),
(1213,468,o),
(1382,949,o),
(1423,1341,cs),
(1462,1690,o),
(1269,2028,o),
(890,2028,cs),
(396,2028,o),
(180,1398,o),
(180,853,cs),
(180,403,o),
(279,-20,o),
(546,-20,cs),
(647,-20,o),
(743,23,o),
(832,84,c),
(1025,-100,ls),
(1070,-142,o),
(1134,-160,o),
(1170,-123,cs)
);
},
{
closed = 1;
nodes = (
(1130,-137,o),
(1079,-125,o),
(1039,-86,cs),
(834,110,l),
(744,44,o),
(648,0,o),
(546,0,cs),
(296,0,o),
(200,405,o),
(200,853,cs),
(200,1393,o),
(411,2008,o),
(890,2008,cs),
(1256,2008,o),
(1441,1684,o),
(1403,1343,cs),
(1362,946,o),
(1189,461,o),
(934,198,c),
(1136,6,ls),
(1176,-32,o),
(1182,-81,o),
(1157,-108,cs)
);
},
{
closed = 1;
nodes = (
(620,122,o),
(682,152,o),
(747,191,c),
(625,308,ls),
(575,355,o),
(564,396,o),
(592,426,cs),
(622,458,o),
(674,444,o),
(721,400,cs),
(853,275,l),
(1094,513,o),
(1234,990,o),
(1268,1310,cs),
(1302,1637,o),
(1178,1889,o),
(875,1889,cs),
(496,1889,o),
(345,1328,o),
(332,855,cs),
(322,478,o),
(405,122,o),
(551,122,cs)
);
},
{
closed = 1;
nodes = (
(424,142,o),
(342,479,o),
(352,854,cs),
(364,1324,o),
(512,1869,o),
(875,1869,cs),
(1165,1869,o),
(1282,1631,o),
(1249,1312,cs),
(1215,1000,o),
(1082,541,o),
(852,303,c),
(735,414,ls),
(684,462,o),
(614,483,o),
(577,439,cs),
(543,400,o),
(557,345,o),
(611,294,cs),
(714,195,l),
(657,165,o),
(608,142,o),
(551,142,cs)
);
},
{
closed = 1;
nodes = (
(1274,1717,o),
(1296,1739,o),
(1296,1766,cs),
(1296,1793,o),
(1274,1815,o),
(1247,1815,cs),
(1220,1815,o),
(1198,1793,o),
(1198,1766,cs),
(1198,1739,o),
(1220,1717,o),
(1247,1717,cs)
);
}
);
vertWidth = 0;
width = 1459;
},
{
layerId = m002;
shapes = (
{
closed = 1;
nodes = (
(1394,-36,o),
(1389,56,o),
(1317,126,cs),
(1158,279,l),
(1377,534,o),
(1543,926,o),
(1583,1319,cs),
(1619,1688,o),
(1341,2029,o),
(941,2029,cs),
(492,2029,o),
(179,1607,o),
(179,851,cs),
(179,380,o),
(258,-20,o),
(638,-20,cs),
(729,-20,o),
(829,17,o),
(916,68,c),
(1076,-86,ls),
(1153,-160,o),
(1268,-185,o),
(1333,-107,cs)
);
},
{
closed = 1;
nodes = (
(1255,-139,o),
(1170,-124,o),
(1102,-58,cs),
(921,117,l),
(830,59,o),
(731,19,o),
(638,19,cs),
(291,19,o),
(219,387,o),
(219,851,cs),
(219,1591,o),
(514,1990,o),
(941,1990,cs),
(1320,1990,o),
(1578,1673,o),
(1544,1322,cs),
(1503,922,o),
(1330,526,o),
(1104,277,c),
(1290,98,ls),
(1349,41,o),
(1352,-24,o),
(1303,-82,cs)
);
},
{
closed = 1;
nodes = (
(700,252,o),
(726,268,o),
(749,282,c),
(710,320,ls),
(642,386,o),
(640,444,o),
(683,495,cs),
(728,551,o),
(806,547,o),
(888,484,c),
(929,444,l),
(1092,656,o),
(1248,1017,o),
(1277,1311,cs),
(1300,1560,o),
(1232,1756,o),
(949,1756,cs),
(650,1756,o),
(483,1353,o),
(483,856,cs),
(483,583,o),
(492,252,o),
(668,252,cs)
);
},
{
closed = 1;
nodes = (
(533,288,o),
(522,586,o),
(522,856,cs),
(522,1342,o),
(678,1717,o),
(949,1717,cs),
(1203,1717,o),
(1260,1552,o),
(1238,1315,cs),
(1211,1043,o),
(1074,715,o),
(924,504,c),
(913,514,l),
(819,587,o),
(712,593,o),
(653,520,cs),
(599,457,o),
(597,370,o),
(672,304,cs),
(688,290,l),
(681,288,o),
(672,288,o),
(667,288,cs)
);
},
{
closed = 1;
nodes = (
(1338,1663,o),
(1365,1690,o),
(1365,1723,cs),
(1365,1756,o),
(1338,1783,o),
(1305,1783,cs),
(1272,1783,o),
(1245,1756,o),
(1245,1723,cs),
(1245,1690,o),
(1272,1663,o),
(1305,1663,cs)
);
}
);
vertWidth = 0;
width = 1601;
},
{
associatedMasterId = m002;
layerId = "0DB79B60-F0F0-4AE5-8CEA-03AE86B091EC";
name = background;
shapes = (
{
closed = 1;
nodes = (
(525,-20,o),
(523,11,o),
(498,36,cs),
(340,188,l),
(307,214,o),
(270,216,o),
(249,191,cs),
(230,169,o),
(230,139,o),
(260,112,cs),
(415,-36,ls),
(443,-62,o),
(482,-71,o),
(504,-45,cs)
);
},
{
closed = 1;
nodes = (
(429,-5,o),
(577,287,o),
(600,510,cs),
(614,651,o),
(508,775,o),
(356,775,cs),
(204,775,o),
(120,659,o),
(82,487,cs),
(72,440,o),
(65,386,o),
(65,336,cs),
(63,178,o),
(84,-5,o),
(227,-5,cs)
);
},
{
closed = 1;
nodes = (
(189,102,o),
(183,222,o),
(184,320,cs),
(184,366,o),
(189,413,o),
(196,449,cs),
(227,600,o),
(267,668,o),
(359,668,cs),
(482,668,o),
(487,573,o),
(480,505,cs),
(461,331,o),
(330,102,o),
(239,102,cs)
);
}
);
vertWidth = 0;
width = 594;
}
);
metricLeft = Q;
metricRight = Q;
},
{
color = 7;
glyphname = R.ss04;
lastChange = "2023-09-29 01:33:01 +0000";
layers = (
{
layerId = m01;
shapes = (
{
closed = 1;
nodes = (
(366,0,o),
(373,57,o),
(378,104,cs),
(472,1002,l),
(1141,63,ls),
(1171,20,o),
(1215,0,o),
(1244,0,cs),
(1280,0,o),
(1313,24,o),
(1321,54,cs),
(1327,79,o),
(1320,117,o),
(1284,168,cs),
(673,1028,l),
(1130,1092,o),
(1458,1292,o),
(1481,1563,cs),
(1507,1872,o),
(1150,2008,o),
(492,2008,cs),
(418,2008,o),
(400,1968,o),
(395,1917,cs),
(205,111,ls),
(199,56,o),
(227,0,o),
(291,0,cs)
);
},
{
closed = 1;
nodes = (
(240,20,o),
(220,60,o),
(225,109,cs),
(414,1915,ls),
(419,1962,o),
(431,1988,o),
(492,1988,cs),
(1145,1988,o),
(1486,1858,o),
(1461,1565,cs),
(1438,1298,o),
(1106,1102,o),
(637,1043,c),
(1268,155,ls),
(1300,110,o),
(1306,80,o),
(1302,59,cs),
(1295,37,o),
(1272,20,o),
(1244,20,cs),
(1221,20,o),
(1185,37,o),
(1157,76,cs),
(458,1053,l),
(358,106,ls),
(353,60,o),
(348,20,o),
(291,20,cs)
);
},
{
closed = 1;
nodes = (
(516,1864,o),
(538,1886,o),
(538,1913,cs),
(538,1940,o),
(516,1962,o),
(489,1962,cs),
(462,1962,o),
(440,1940,o),
(440,1913,cs),
(440,1886,o),
(462,1864,o),
(489,1864,cs)
);
},
{
closed = 1;
nodes = (
(940,1160,o),
(1302,1352,o),
(1328,1578,cs),
(1348,1753,o),
(1109,1873,o),
(543,1871,c),
(468,1141,l)
);
},
{
closed = 1;
nodes = (
(561,1851,l),
(1106,1850,o),
(1325,1738,o),
(1307,1580,cs),
(1284,1370,o),
(946,1186,o),
(490,1162,c)
);
}
);
vertWidth = 0;
width = 1419;
},
{
layerId = m002;
shapes = (
{
closed = 1;
nodes = (
(448,0,o),
(512,63,o),
(524,179,cs),
(592,847,l),
(1133,80,ls),
(1183,9,o),
(1247,0,o),
(1289,0,cs),
(1351,0,o),
(1418,32,o),
(1445,91,cs),
(1465,134,o),
(1469,198,o),
(1437,245,cs),
(926,984,l),
(1290,1068,o),
(1595,1161,o),
(1619,1471,cs),
(1653,1921,o),
(1239,2008,o),
(539,2008,cs),
(437,2008,o),
(370,1963,o),
(360,1866,cs),
(184,203,ls),
(173,96,o),
(217,0,o),
(331,0,cs)
);
},
{
closed = 1;
nodes = (
(244,40,o),
(213,105,o),
(223,199,cs),
(399,1861,ls),
(407,1939,o),
(451,1968,o),
(539,1968,cs),
(1232,1968,o),
(1611,1888,o),
(1580,1473,cs),
(1557,1170,o),
(1244,1086,o),
(858,1009,c),
(1406,222,ls),
(1430,188,o),
(1426,143,o),
(1409,108,cs),
(1389,63,o),
(1340,40,o),
(1289,40,cs),
(1250,40,o),
(1205,48,o),
(1165,104,cs),
(563,948,l),
(485,183,ls),
(475,83,o),
(429,40,o),
(331,40,cs)
);
},
{
closed = 1;
nodes = (
(527,1825,o),
(554,1852,o),
(554,1885,cs),
(554,1918,o),
(527,1945,o),
(494,1945,cs),
(461,1945,o),
(434,1918,o),
(434,1885,cs),
(434,1852,o),
(461,1825,o),
(494,1825,cs)
);
},
{
closed = 1;
nodes = (
(1023,1214,o),
(1288,1287,o),
(1316,1492,cs),
(1344,1691,o),
(1180,1772,o),
(653,1752,c),
(590,1184,l)
);
},
{
closed = 1;
nodes = (
(688,1714,l),
(1173,1729,o),
(1302,1661,o),
(1278,1497,cs),
(1253,1320,o),
(1027,1265,o),
(634,1227,c)
);
}
);
vertWidth = 0;
width = 1601;
},
{
associatedMasterId = m01;
layerId = "10B39192-80BD-4D86-8859-A41096DFFBAE";
name = background;
shapes = (
{
closed = 1;
nodes = (
(342,361,o),
(535,381,o),
(554,565,cs),
(568,709,o),
(400,784,o),
(151,772,c),
(154,718,l),
(375,729,o),
(505,665,o),
(494,571,cs),
(480,437,o),
(312,416,o),
(121,416,c),
(116,361,l)
);
},
{
closed = 1;
nodes = (
(115,379,l),
(436,23,ls),
(449,7,o),
(459,0,o),
(468,0,cs),
(480,0,o),
(492,8,o),
(494,18,cs),
(497,27,o),
(499,40,o),
(491,50,cs),
(195,379,l)
);
},
{
closed = 1;
nodes = (
(173,757,o),
(171,772,o),
(146,772,cs),
(120,772,o),
(114,759,o),
(112,740,cs),
(38,39,ls),
(36,19,o),
(45,0,o),
(67,0,cs),
(93,0,o),
(95,19,o),
(97,37,cs),
(171,735,ls)
);
}
);
vertWidth = 0;
width = 594;
}
);
metricLeft = R;
metricRight = R;
},
{
color = 7;
glyphname = S.ss04;
lastChange = "2023-09-29 01:33:01 +0000";
layers = (
{
layerId = m01;
shapes = (
{
closed = 1;
nodes = (
(893,-20,o),
(1159,153,o),
(1195,503,cs),
(1226,805,o),
(1035,1007,o),
(788,1146,cs),
(539,1290,o),
(387,1407,o),
(405,1574,cs),
(422,1745,o),
(586,1866,o),
(873,1866,cs),
(1025,1866,o),
(1115,1788,o),
(1153,1681,cs),
(1170,1634,o),
(1220,1614,o),
(1265,1628,cs),
(1314,1643,o),
(1321,1698,o),
(1300,1757,cs),
(1248,1904,o),
(1111,2028,o),
(866,2028,cs),
(469,2028,o),
(264,1821,o),
(238,1589,cs),
(214,1339,o),
(420,1159,o),
(662,1021,cs),
(931,868,o),
(1044,728,o),
(1026,529,cs),
(1001,266,o),
(793,142,o),
(583,142,cs),
(392,142,o),
(282,224,o),
(260,316,cs),
(246,373,o),
(196,394,o),
(148,380,cs),
(94,365,o),
(89,309,o),
(102,257,cs),
(142,96,o),
(319,-20,o),
(534,-20,cs)
);
},
{
closed = 1;
nodes = (
(326,0,o),
(159,109,o),
(122,262,cs),
(109,310,o),
(113,350,o),
(153,361,cs),
(194,373,o),
(230,358,o),
(241,312,cs),
(266,211,o),
(385,122,o),
(583,122,cs),
(800,122,o),
(1019,252,o),
(1046,527,cs),
(1065,735,o),
(945,883,o),
(672,1038,cs),
(432,1174,o),
(235,1348,o),
(257,1587,cs),
(283,1810,o),
(478,2008,o),
(866,2008,cs),
(1102,2008,o),
(1233,1892,o),
(1282,1750,cs),
(1302,1698,o),
(1295,1658,o),
(1259,1647,cs),
(1222,1635,o),
(1185,1650,o),
(1172,1687,cs),
(1132,1801,o),
(1033,1886,o),
(873,1886,cs),
(579,1886,o),
(404,1757,o),
(385,1576,cs),
(366,1398,o),
(528,1274,o),
(778,1129,cs),
(1023,991,o),
(1206,798,o),
(1175,505,cs),
(1140,165,o),
(886,0,o),
(534,0,cs)
);
},
{
closed = 1;
nodes = (
(1256,1662,o),
(1278,1684,o),
(1278,1711,cs),
(1278,1738,o),
(1256,1760,o),
(1229,1760,cs),
(1202,1760,o),
(1180,1738,o),
(1180,1711,cs),
(1180,1684,o),
(1202,1662,o),
(1229,1662,cs)
);
}
);
vertWidth = 0;
width = 1319;
},
{
layerId = m002;
shapes = (
{
closed = 1;
nodes = (
(1025,-40,o),
(1371,161,o),
(1411,528,cs),
(1450,894,o),
(1212,1088,o),
(1003,1212,cs),
(817,1322,o),
(614,1445,o),
(628,1557,cs),
(642,1661,o),
(753,1738,o),
(933,1738,cs),
(1103,1738,o),
(1167,1683,o),
(1190,1622,cs),
(1226,1522,o),
(1316,1484,o),
(1415,1516,cs),
(1499,1545,o),
(1532,1616,o),
(1509,1700,cs),
(1446,1929,o),
(1286,2047,o),
(978,2047,cs),
(552,2047,o),
(310,1865,o),
(278,1570,cs),
(246,1265,o),
(591,1056,o),
(788,944,cs),
(998,826,o),
(1099,702,o),
(1084,542,cs),
(1069,402,o),
(928,289,o),
(719,289,cs),
(534,289,o),
(491,345,o),
(465,402,cs),
(423,505,o),
(309,536,o),
(228,508,cs),
(153,485,o),
(95,410,o),
(118,324,cs),
(175,108,o),
(375,-40,o),
(721,-40,cs)
);
},
{
closed = 1;
nodes = (
(387,-1,o),
(207,136,o),
(156,334,cs),
(139,399,o),
(179,452,o),
(240,471,cs),
(308,494,o),
(395,470,o),
(429,387,cs),
(462,314,o),
(523,250,o),
(719,250,cs),
(940,250,o),
(1106,375,o),
(1123,539,cs),
(1139,716,o),
(1026,856,o),
(807,978,cs),
(611,1089,o),
(288,1287,o),
(317,1565,cs),
(346,1839,o),
(566,2008,o),
(978,2008,cs),
(1273,2008,o),
(1413,1902,o),
(1471,1690,cs),
(1490,1622,o),
(1468,1575,o),
(1403,1553,cs),
(1321,1527,o),
(1256,1554,o),
(1226,1635,cs),
(1197,1713,o),
(1115,1777,o),
(933,1777,cs),
(742,1777,o),
(606,1690,o),
(589,1562,cs),
(572,1423,o),
(797,1288,o),
(983,1178,cs),
(1189,1056,o),
(1409,876,o),
(1372,532,cs),
(1335,189,o),
(1014,-1,o),
(721,-1,cs)
);
},
{
closed = 1;
nodes = (
(1391,1590,o),
(1418,1617,o),
(1418,1650,cs),
(1418,1683,o),
(1391,1710,o),
(1358,1710,cs),
(1325,1710,o),
(1298,1683,o),
(1298,1650,cs),
(1298,1617,o),
(1325,1590,o),
(1358,1590,cs)
);
}
);
vertWidth = 0;
width = 1542;
},
{
associatedMasterId = m002;
layerId = "978B32C5-E304-42DF-BBEA-C5F78DFF1767";
name = background;
shapes = (
{
closed = 1;
nodes = (
(204,112,o),
(184,122,o),
(177,147,cs),
(168,182,o),
(127,190,o),
(102,183,cs),
(72,176,o),
(62,150,o),
(70,121,cs),
(90,40,o),
(146,0,o),
(234,0,cs),
(397,0,o),
(524,61,o),
(541,207,cs),
(554,339,o),
(453,405,o),
(375,457,cs),
(312,500,o),
(221,548,o),
(219,581,cs),
(215,626,o),
(290,666,o),
(383,666,cs),
(435,666,o),
(455,658,o),
(461,631,cs),
(469,595,o),
(514,587,o),
(539,594,cs),
(569,604,o),
(577,628,o),
(571,657,cs),
(549,744,o),
(488,778,o),
(371,778,cs),
(207,778,o),
(96,687,o),
(103,576,cs),
(112,472,o),
(234,418,o),
(302,372,cs),
(381,316,o),
(431,270,o),
(426,219,cs),
(419,145,o),
(362,112,o),
(278,112,cs)
);
}
);
vertWidth = 0;
width = 594;
}
);
metricLeft = S;
metricRight = S;
},
{
color = 7;
glyphname = T.ss04;
lastChange = "2023-09-29 01:33:01 +0000";
layers = (
{
layerId = m01;
shapes = (
{
closed = 1;
nodes = (
(647,0,o),
(670,62,o),
(675,112,cs),
(854,1837,l),
(1293,1837,ls),
(1363,1837,o),
(1378,1883,o),
(1378,1924,cs),
(1378,1963,o),
(1354,2008,o),
(1286,2008,cs),
(263,2008,ls),
(194,2008,o),
(176,1962,o),
(176,1924,cs),
(176,1881,o),
(205,1837,o),
(273,1837,cs),
(682,1837,l),
(501,124,ls),
(494,60,o),
(512,0,o),
(577,0,cs)
);
},
{
closed = 1;
nodes = (
(528,20,o),
(515,63,o),
(521,122,cs),
(704,1856,l),
(273,1856,ls),
(217,1856,o),
(196,1888,o),
(196,1924,cs),
(196,1957,o),
(208,1988,o),
(263,1988,cs),
(1286,1988,ls),
(1341,1988,o),
(1358,1957,o),
(1358,1924,cs),
(1358,1887,o),
(1348,1856,o),
(1293,1856,cs),
(836,1856,l),
(655,114,ls),
(650,67,o),
(632,20,o),
(577,20,cs)
);
},
{
closed = 1;
nodes = (
(800,1864,o),
(822,1886,o),
(822,1913,cs),
(822,1940,o),
(800,1962,o),
(773,1962,cs),
(746,1962,o),
(724,1940,o),
(724,1913,cs),
(724,1886,o),
(746,1864,o),
(773,1864,cs)
);
}
);
vertWidth = 0;
width = 1263;
},
{
layerId = m002;
shapes = (
{
closed = 1;
nodes = (
(726,0,o),
(780,78,o),
(787,149,cs),
(950,1697,l),
(1312,1697,ls),
(1422,1697,o),
(1475,1768,o),
(1475,1849,cs),
(1475,1940,o),
(1394,2008,o),
(1293,2008,cs),
(278,2008,ls),
(174,2008,o),
(121,1937,o),
(118,1849,cs),
(116,1766,o),
(191,1697,o),
(298,1697,cs),
(606,1697,l),
(447,170,ls),
(437,74,o),
(509,0,o),
(615,0,cs)
);
},
{
closed = 1;
nodes = (
(529,39,o),
(478,90,o),
(486,166,cs),
(649,1736,l),
(298,1736,ls),
(209,1736,o),
(155,1785,o),
(157,1848,cs),
(160,1921,o),
(196,1969,o),
(278,1969,cs),
(1293,1969,ls),
(1377,1969,o),
(1436,1919,o),
(1436,1849,cs),
(1436,1784,o),
(1400,1736,o),
(1312,1736,cs),
(915,1736,l),
(748,152,ls),
(742,93,o),
(703,39,o),
(615,39,cs)
);
},
{
closed = 1;
nodes = (
(831,1825,o),
(858,1852,o),
(858,1885,cs),
(858,1918,o),
(831,1945,o),
(798,1945,cs),
(765,1945,o),
(738,1918,o),
(738,1885,cs),
(738,1852,o),
(765,1825,o),
(798,1825,cs)
);
}
);
vertWidth = 0;
width = 1319;
}
);
metricLeft = T;
metricRight = T;
},
{
color = 7;
glyphname = U.ss04;
lastChange = "2023-09-29 01:33:01 +0000";
layers = (
{
layerId = m01;
shapes = (
{
closed = 1;
nodes = (
(721,-20,o),
(1063,328,o),
(1320,905,c),
(1233,93,ls),
(1226,31,o),
(1273,0,o),
(1320,0,cs),
(1360,0,o),
(1402,24,o),
(1407,76,cs),
(1601,1917,ls),
(1606,1969,o),
(1578,2008,o),
(1514,2008,cs),
(1454,2008,o),
(1434,1966,o),
(1430,1927,cs),
(1394,1608,l),
(1253,718,o),
(666,142,o),
(518,142,cs),
(384,142,o),
(406,364,o),
(427,560,cs),
(568,1902,ls),
(573,1953,o),
(542,2008,o),
(489,2008,cs),
(434,2008,o),
(399,1961,o),
(394,1909,cs),
(253,569,ls),
(210,165,o),
(318,-20,o),
(507,-20,cs)
);
},
{
closed = 1;
nodes = (
(331,0,o),
(231,172,o),
(273,567,cs),
(414,1907,ls),
(419,1953,o),
(445,1988,o),
(489,1988,cs),
(529,1988,o),
(554,1947,o),
(549,1904,cs),
(407,563,ls),
(386,365,o),
(362,122,o),
(518,122,cs),
(677,122,o),
(1272,709,o),
(1414,1606,c),
(1450,1925,ls),
(1454,1960,o),
(1467,1988,o),
(1514,1988,cs),
(1567,1988,o),
(1586,1962,o),
(1581,1919,cs),
(1387,78,ls),
(1383,37,o),
(1353,20,o),
(1320,20,cs),
(1282,20,o),
(1248,41,o),
(1253,91,cs),
(1347,968,ls),
(1349,985,o),
(1333,986,o),
(1328,973,cs),
(1070,364,o),
(719,0,o),
(507,0,cs)
);
},
{
closed = 1;
nodes = (
(509,1864,o),
(531,1886,o),
(531,1913,cs),
(531,1940,o),
(509,1962,o),
(482,1962,cs),
(455,1962,o),
(433,1940,o),
(433,1913,cs),
(433,1886,o),
(455,1864,o),
(482,1864,cs)
);
}
);
vertWidth = 0;
width = 1706;
},
{
layerId = m002;
shapes = (
{
closed = 1;
nodes = (
(821,-20,o),
(1078,315,o),
(1246,621,c),
(1202,170,ls),
(1191,56,o),
(1277,0,o),
(1372,0,cs),
(1453,0,o),
(1531,41,o),
(1542,150,cs),
(1720,1841,ls),
(1730,1937,o),
(1663,2008,o),
(1550,2008,cs),
(1457,2008,o),
(1387,1955,o),
(1378,1875,cs),
(1348,1597,l),
(1248,995,o),
(727,272,o),
(619,272,cs),
(555,272,o),
(552,400,o),
(573,609,cs),
(699,1836,ls),
(709,1934,o),
(635,2008,o),
(535,2008,cs),
(422,2011,o),
(365,1917,o),
(359,1858,cs),
(228,613,ls),
(183,186,o),
(293,-20,o),
(563,-20,cs)
);
},
{
closed = 1;
nodes = (
(318,19,o),
(224,198,o),
(267,609,cs),
(398,1854,ls),
(403,1902,o),
(445,1971,o),
(534,1968,cs),
(616,1968,o),
(668,1917,o),
(660,1840,cs),
(534,613,ls),
(512,399,o),
(514,233,o),
(619,233,cs),
(753,233,o),
(1285,978,o),
(1387,1591,c),
(1417,1871,ls),
(1423,1931,o),
(1472,1968,o),
(1550,1968,cs),
(1644,1968,o),
(1689,1920,o),
(1681,1845,cs),
(1503,155,ls),
(1494,68,o),
(1441,40,o),
(1372,40,cs),
(1292,40,o),
(1232,78,o),
(1241,166,cs),
(1295,712,ls),
(1298,738,o),
(1273,750,o),
(1259,723,cs),
(1024,297,o),
(789,19,o),
(563,19,cs)
);
},
{
closed = 1;
nodes = (
(563,1825,o),
(590,1852,o),
(590,1885,cs),
(590,1918,o),
(563,1945,o),
(530,1945,cs),
(497,1945,o),
(470,1918,o),
(470,1885,cs),
(470,1852,o),
(497,1825,o),
(530,1825,cs)
);
}
);
vertWidth = 0;
width = 1803;
},
{
associatedMasterId = m01;
layerId = "85A0CC84-4628-44F1-A8D5-F145C07A2F77";
name = background;
shapes = (
{
closed = 1;
nodes = (
(244,-5,o),
(373,140,o),
(465,336,c),
(492,388,l),
(525,618,l),
(513,618,l),
(510,605,l),
(495,555,o),
(437,417,o),
(422,380,cs),
(352,228,o),
(215,50,o),
(156,50,cs),
(100,50,o),
(108,138,o),
(116,214,cs),
(176,735,ls),
(178,753,o),
(166,772,o),
(149,772,cs),
(129,772,o),
(118,756,o),
(115,737,cs),
(57,217,ls),
(39,62,o),
(82,-5,o),
(152,-5,cs)
);
},
{
closed = 1;
nodes = (
(481,-1,o),
(494,8,o),
(497,26,cs),
(573,741,ls),
(575,759,o),
(564,772,o),
(543,772,cs),
(522,772,o),
(514,758,o),
(513,744,cs),
(437,32,ls),
(435,10,o),
(450,-1,o),
(467,-1,cs)
);
}
);
vertWidth = 0;
width = 594;
},
{
associatedMasterId = m002;
layerId = "C456C70A-B9F0-4BB4-8B22-984771EF7C04";
name = background;
shapes = (
{
closed = 1;
nodes = (
(299,-5,o),
(400,116,o),
(504,307,c),
(544,645,l),
(522,645,l),
(514,606,ls),
(495,503,o),
(461,432,o),
(441,400,cs),
(390,315,o),
(266,102,o),
(210,102,cs),
(188,102,o),
(185,149,o),
(194,220,cs),
(248,713,ls),
(252,747,o),
(226,772,o),
(191,772,cs),
(152,773,o),
(132,741,o),
(129,720,cs),
(75,232,ls),
(57,68,o),
(112,-5,o),
(198,-5,cs)
);
},
{
closed = 1;
nodes = (
(544,0,o),
(570,14,o),
(574,52,cs),
(645,715,ls),
(649,748,o),
(626,772,o),
(586,772,cs),
(552,772,o),
(529,754,o),
(526,727,cs),
(456,58,ls),
(453,19,o),
(481,0,o),
(514,0,cs)
);
}
);
vertWidth = 0;
width = 594;
}
);
metricLeft = U;
metricRight = U;
},
{
color = 7;
glyphname = V.ss04;
lastChange = "2023-09-29 01:33:01 +0000";
layers = (
{
layerId = m01;
shapes = (
{
closed = 1;
nodes = (
(652,0,o),
(662,41,o),
(679,84,cs),
(1404,1896,ls),
(1432,1966,o),
(1397,2008,o),
(1344,2008,cs),
(1280,2008,o),
(1252,1983,o),
(1230,1928,cs),
(616,388,l),
(380,1927,ls),
(375,1959,o),
(360,2008,o),
(285,2008,cs),
(221,2008,o),
(201,1968,o),
(209,1916,cs),
(487,94,ls),
(493,52,o),
(524,0,o),
(584,0,cs)
);
},
{
closed = 1;
nodes = (
(536,20,o),
(513,60,o),
(507,97,cs),
(229,1919,ls),
(222,1963,o),
(235,1988,o),
(285,1988,cs),
(345,1988,o),
(356,1954,o),
(361,1924,cs),
(601,352,ls),
(604,332,o),
(615,332,o),
(622,349,cs),
(1248,1920,ls),
(1268,1970,o),
(1289,1988,o),
(1344,1988,cs),
(1386,1988,o),
(1409,1960,o),
(1386,1904,cs),
(660,91,ls),
(642,47,o),
(636,20,o),
(584,20,cs)
);
},
{
closed = 1;
nodes = (
(323,1864,o),
(345,1886,o),
(345,1913,cs),
(345,1940,o),
(323,1962,o),
(296,1962,cs),
(269,1962,o),
(247,1940,o),
(247,1913,cs),
(247,1886,o),
(269,1864,o),
(296,1864,cs)
);
}
);
vertWidth = 0;
width = 1327;
},
{
layerId = m002;
shapes = (
{
closed = 1;
nodes = (
(788,-4,o),
(842,54,o),
(867,115,cs),
(1563,1802,ls),
(1612,1920,o),
(1532,2008,o),
(1423,2008,cs),
(1329,2008,o),
(1261,1968,o),
(1232,1898,cs),
(767,797,l),
(593,1871,ls),
(580,1950,o),
(510,2008,o),
(403,2008,cs),
(304,2008,o),
(238,1950,o),
(254,1848,cs),
(521,149,ls),
(534,69,o),
(587,-2,o),
(691,-4,cs)
);
},
{
closed = 1;
nodes = (
(609,37,o),
(571,87,o),
(560,156,cs),
(292,1854,ls),
(280,1932,o),
(322,1968,o),
(403,1968,cs),
(494,1968,o),
(545,1927,o),
(555,1865,cs),
(738,735,ls),
(744,696,o),
(762,694,o),
(778,731,cs),
(1268,1883,ls),
(1292,1939,o),
(1342,1968,o),
(1423,1968,cs),
(1511,1968,o),
(1565,1910,o),
(1527,1817,cs),
(831,129,ls),
(810,77,o),
(769,35,o),
(692,35,cs)
);
},
{
closed = 1;
nodes = (
(444,1825,o),
(471,1852,o),
(471,1885,cs),
(471,1918,o),
(444,1945,o),
(411,1945,cs),
(378,1945,o),
(351,1918,o),
(351,1885,cs),
(351,1852,o),
(378,1825,o),
(411,1825,cs)
);
}
);
vertWidth = 0;
width = 1549;
}
);
metricLeft = V;
metricRight = V;
},
{
color = 7;
glyphname = W.ss04;
lastChange = "2023-09-29 01:33:01 +0000";
layers = (
{
layerId = m01;
shapes = (
{
closed = 1;
nodes = (
(652,0,o),
(667,55,o),
(680,87,cs),
(1294,1648,l),
(1528,86,ls),
(1534,44,o),
(1562,0,o),
(1620,0,cs),
(1684,0,o),
(1699,40,o),
(1717,84,cs),
(2446,1896,ls),
(2476,1970,o),
(2426,2008,o),
(2377,2008,cs),
(2316,2008,o),
(2293,1987,o),
(2270,1928,cs),
(1654,383,l),
(1422,1927,ls),
(1417,1962,o),
(1401,2008,o),
(1319,2008,cs),
(1265,2008,o),
(1237,1964,o),
(1223,1929,cs),
(612,372,l),
(381,1927,ls),
(376,1959,o),
(362,2008,o),
(287,2008,cs),
(223,2008,o),
(201,1968,o),
(209,1916,cs),
(488,94,ls),
(496,40,o),
(534,0,o),
(583,0,cs)
);
},
{
closed = 1;
nodes = (
(543,20,o),
(514,50,o),
(507,97,cs),
(229,1919,ls),
(222,1963,o),
(236,1988,o),
(287,1988,cs),
(347,1988,o),
(358,1954,o),
(362,1924,cs),
(596,340,ls),
(599,317,o),
(616,316,o),
(624,338,cs),
(1241,1922,ls),
(1254,1955,o),
(1276,1988,o),
(1319,1988,cs),
(1386,1988,o),
(1397,1957,o),
(1402,1924,cs),
(1637,351,ls),
(1640,328,o),
(1658,330,o),
(1666,351,cs),
(2289,1920,ls),
(2311,1976,o),
(2325,1988,o),
(2377,1988,cs),
(2418,1988,o),
(2451,1961,o),
(2428,1904,cs),
(1699,91,ls),
(1681,47,o),
(1671,20,o),
(1620,20,cs),
(1574,20,o),
(1554,52,o),
(1548,89,cs),
(1307,1688,ls),
(1305,1703,o),
(1292,1702,o),
(1287,1689,cs),
(661,94,ls),
(648,61,o),
(638,20,o),
(583,20,cs)
);
},
{
closed = 1;
nodes = (
(321,1864,o),
(343,1886,o),
(343,1913,cs),
(343,1940,o),
(321,1962,o),
(294,1962,cs),
(267,1962,o),
(245,1940,o),
(245,1913,cs),
(245,1886,o),
(267,1864,o),
(294,1864,cs)
);
}
);
vertWidth = 0;
width = 2369;
},
{
layerId = m002;
shapes = (
{
closed = 1;
nodes = (
(803,0,o),
(881,47,o),
(918,143,cs),
(1363,1310,l),
(1544,114,ls),
(1553,53,o),
(1617,0,o),
(1716,0,cs),
(1819,0,o),
(1866,42,o),
(1895,112,cs),
(2588,1802,ls),
(2623,1887,o),
(2569,2008,o),
(2439,2008,cs),
(2333,2008,o),
(2274,1940,o),
(2256,1894,cs),
(1784,710,l),
(1616,1872,ls),
(1604,1956,o),
(1531,2008,o),
(1417,2008,cs),
(1311,2008,o),
(1259,1952,o),
(1231,1880,cs),
(764,670,l),
(594,1871,ls),
(583,1950,o),
(512,2008,o),
(406,2008,cs),
(307,2008,o),
(238,1951,o),
(254,1848,cs),
(511,150,ls),
(526,53,o),
(593,0,o),
(702,0,cs)
);
},
{
closed = 1;
nodes = (
(608,40,o),
(562,77,o),
(550,155,cs),
(293,1854,ls),
(281,1932,o),
(324,1968,o),
(406,1968,cs),
(496,1968,o),
(546,1927,o),
(555,1866,cs),
(735,584,ls),
(739,553,o),
(763,552,o),
(773,579,cs),
(1268,1866,ls),
(1292,1929,o),
(1329,1968,o),
(1417,1968,cs),
(1515,1968,o),
(1567,1931,o),
(1577,1865,cs),
(1753,652,ls),
(1759,612,o),
(1784,612,o),
(1795,640,cs),
(2292,1878,ls),
(2308,1918,o),
(2352,1968,o),
(2439,1968,cs),
(2541,1968,o),
(2579,1883,o),
(2552,1817,cs),
(1859,126,ls),
(1835,67,o),
(1803,40,o),
(1716,40,cs),
(1634,40,o),
(1590,76,o),
(1583,120,cs),
(1390,1392,ls),
(1385,1425,o),
(1363,1426,o),
(1352,1397,cs),
(881,158,ls),
(850,76,o),
(790,40,o),
(702,40,cs)
);
},
{
closed = 1;
nodes = (
(435,1825,o),
(462,1852,o),
(462,1885,cs),
(462,1918,o),
(435,1945,o),
(402,1945,cs),
(369,1945,o),
(342,1918,o),
(342,1885,cs),
(342,1852,o),
(369,1825,o),
(402,1825,cs)
);
}
);
vertWidth = 0;
width = 2571;
}
);
metricLeft = W;
metricRight = W;
},
{
color = 7;
glyphname = X.ss04;
lastChange = "2023-09-29 01:33:01 +0000";
layers = (
{
layerId = m01;
shapes = (
{
closed = 1;
nodes = (
(1246,27,o),
(1270,69,o),
(1246,122,cs),
(856,989,l),
(1431,1867,ls),
(1463,1916,o),
(1453,1967,o),
(1420,1990,cs),
(1382,2019,o),
(1318,2016,o),
(1285,1965,cs),
(773,1175,l),
(429,1945,ls),
(402,2006,o),
(336,2020,o),
(296,2004,cs),
(252,1987,o),
(240,1943,o),
(267,1883,cs),
(654,1022,l),
(68,131,ls),
(41,90,o),
(50,46,o),
(85,20,cs),
(124,-9,o),
(182,-7,o),
(215,43,cs),
(737,836,l),
(1081,67,ls),
(1109,4,o),
(1170,-13,o),
(1216,11,cs)
);
},
{
closed = 1;
nodes = (
(1169,9,o),
(1123,22,o),
(1099,75,cs),
(741,877,l),
(198,54,ls),
(172,14,o),
(128,12,o),
(97,36,cs),
(70,57,o),
(62,87,o),
(84,120,cs),
(676,1020,l),
(285,1891,ls),
(261,1944,o),
(271,1973,o),
(303,1986,cs),
(335,1999,o),
(388,1989,o),
(411,1938,cs),
(770,1134,l),
(1302,1954,ls),
(1329,1996,o),
(1377,1998,o),
(1408,1974,cs),
(1434,1957,o),
(1441,1919,o),
(1414,1878,cs),
(834,991,l),
(1228,114,ls),
(1247,72,o),
(1231,41,o),
(1207,29,cs)
);
},
{
closed = 1;
nodes = (
(372,1864,o),
(394,1886,o),
(394,1913,cs),
(394,1940,o),
(372,1962,o),
(345,1962,cs),
(318,1962,o),
(296,1940,o),
(296,1913,cs),
(296,1886,o),
(318,1864,o),
(345,1864,cs)
);
}
);
vertWidth = 0;
width = 1395;
},
{
layerId = m002;
shapes = (
{
closed = 1;
nodes = (
(1406,58,o),
(1436,128,o),
(1399,211,cs),
(1047,998,l),
(1563,1760,ls),
(1619,1842,o),
(1594,1917,o),
(1529,1970,cs),
(1466,2025,o),
(1328,2029,o),
(1274,1943,cs),
(893,1341,l),
(638,1915,ls),
(595,2012,o),
(472,2024,o),
(402,1999,cs),
(312,1968,o),
(273,1893,o),
(321,1786,cs),
(665,1015,l),
(139,240,ls),
(90,167,o),
(105,97,o),
(168,43,cs),
(237,-10,o),
(373,-27,o),
(427,58,cs),
(819,672,l),
(1075,96,ls),
(1119,-3,o),
(1260,-19,o),
(1337,20,cs)
);
},
{
closed = 1;
nodes = (
(1255,23,o),
(1145,35,o),
(1111,112,cs),
(825,754,l),
(393,78,ls),
(354,18,o),
(250,29,o),
(193,73,cs),
(143,117,o),
(132,161,o),
(171,218,cs),
(710,1011,l),
(356,1802,ls),
(317,1888,o),
(342,1934,o),
(414,1962,cs),
(476,1981,o),
(569,1973,o),
(602,1899,cs),
(887,1259,l),
(1307,1921,ls),
(1348,1986,o),
(1453,1984,o),
(1504,1940,cs),
(1558,1895,o),
(1574,1846,o),
(1531,1782,cs),
(1002,1002,l),
(1363,195,ls),
(1392,130,o),
(1374,85,o),
(1319,55,cs)
);
},
{
closed = 1;
nodes = (
(495,1825,o),
(522,1852,o),
(522,1885,cs),
(522,1918,o),
(495,1945,o),
(462,1945,cs),
(429,1945,o),
(402,1918,o),
(402,1885,cs),
(402,1852,o),
(429,1825,o),
(462,1825,cs)
);
}
);
vertWidth = 0;
width = 1608;
}
);
metricLeft = X;
metricRight = X;
},
{
color = 7;
glyphname = Y.ss04;
lastChange = "2023-09-29 01:33:01 +0000";
layers = (
{
layerId = m01;
shapes = (
{
closed = 1;
nodes = (
(382,-9,o),
(442,-12,o),
(473,41,cs),
(1547,1867,ls),
(1577,1918,o),
(1563,1970,o),
(1512,1999,cs),
(1471,2019,o),
(1428,2008,o),
(1398,1957,cs),
(847,1015,l),
(422,1941,ls),
(404,1980,o),
(369,2033,o),
(302,2007,cs),
(243,1987,o),
(236,1932,o),
(259,1881,cs),
(739,832,l),
(327,131,ls),
(304,92,o),
(308,46,o),
(343,20,cs)
);
},
{
closed = 1;
nodes = (
(327,54,o),
(325,88,o),
(344,121,cs),
(762,831,l),
(278,1889,ls),
(257,1934,o),
(263,1973,o),
(308,1989,cs),
(361,2009,o),
(387,1970,o),
(404,1933,cs),
(845,973,l),
(1415,1946,ls),
(1441,1990,o),
(1470,1997,o),
(1502,1981,cs),
(1545,1958,o),
(1555,1920,o),
(1530,1877,cs),
(456,51,ls),
(431,9,o),
(386,10,o),
(355,36,cs)
);
},
{
closed = 1;
nodes = (
(367,1864,o),
(389,1886,o),
(389,1913,cs),
(389,1940,o),
(367,1962,o),
(340,1962,cs),
(313,1962,o),
(291,1940,o),
(291,1913,cs),
(291,1886,o),
(313,1864,o),
(340,1864,cs)
);
}
);
vertWidth = 0;
width = 1508;
},
{
layerId = m002;
shapes = (
{
closed = 1;
nodes = (
(448,-23,o),
(588,-5,o),
(637,77,cs),
(1643,1761,ls),
(1692,1842,o),
(1667,1940,o),
(1577,1989,cs),
(1506,2028,o),
(1393,2009,o),
(1339,1919,cs),
(911,1205,l),
(597,1907,ls),
(563,1984,o),
(469,2030,o),
(364,1994,cs),
(257,1958,o),
(240,1858,o),
(278,1778,cs),
(709,870,l),
(341,257,ls),
(298,185,o),
(314,88,o),
(377,33,cs)
);
},
{
closed = 1;
nodes = (
(352,107,o),
(340,179,o),
(374,236,cs),
(753,868,l),
(313,1794,ls),
(281,1861,o),
(294,1929,o),
(376,1957,cs),
(464,1986,o),
(533,1953,o),
(561,1891,cs),
(906,1120,l),
(1373,1898,ls),
(1416,1970,o),
(1501,1985,o),
(1558,1955,cs),
(1630,1914,o),
(1649,1846,o),
(1610,1781,cs),
(603,97,ls),
(565,34,o),
(457,20,o),
(402,64,cs)
);
},
{
closed = 1;
nodes = (
(451,1825,o),
(478,1852,o),
(478,1885,cs),
(478,1918,o),
(451,1945,o),
(418,1945,cs),
(385,1945,o),
(358,1918,o),
(358,1885,cs),
(358,1852,o),
(385,1825,o),
(418,1825,cs)
);
}
);
vertWidth = 0;
width = 1631;
},
{
associatedMasterId = m01;
layerId = "97930EFF-4ECB-41E8-9E11-FCC2E8932513";
name = background;
shapes = (
{
closed = 1;
nodes = (
(304,403,l),
(151,748,ls),
(145,763,o),
(127,778,o),
(105,770,cs),
(84,763,o),
(87,747,o),
(95,728,cs),
(270,334,l)
);
},
{
closed = 1;
nodes = (
(489,741,o),
(488,758,o),
(478,766,cs),
(465,776,o),
(438,772,o),
(430,754,cs),
(109,45,ls),
(103,31,o),
(102,15,o),
(114,7,cs),
(127,-4,o),
(152,-5,o),
(160,13,cs),
(481,723,ls)
);
}
);
vertWidth = 0;
width = 539;
}
);
metricLeft = Y;
metricRight = Y;
},
{
color = 7;
glyphname = Z.ss04;
lastChange = "2023-09-29 01:33:01 +0000";
layers = (
{
layerId = m01;
shapes = (
{
closed = 1;
nodes = (
(1158,0,ls),
(1228,0,o),
(1245,46,o),
(1243,88,cs),
(1240,127,o),
(1216,171,o),
(1151,171,cs),
(286,171,l),
(1419,1867,ls),
(1469,1942,o),
(1409,2008,o),
(1349,2008,cs),
(324,2008,ls),
(254,2008,o),
(234,1962,o),
(237,1923,cs),
(239,1881,o),
(266,1837,o),
(331,1837,cs),
(1203,1837,l),
(61,134,ls),
(20,73,o),
(59,0,o),
(136,0,cs)
);
},
{
closed = 1;
nodes = (
(73,20,o),
(44,74,o),
(77,123,cs),
(1240,1856,l),
(331,1856,ls),
(278,1856,o),
(259,1888,o),
(257,1924,cs),
(254,1958,o),
(268,1988,o),
(324,1988,cs),
(1349,1988,ls),
(1398,1988,o),
(1442,1938,o),
(1402,1878,cs),
(249,152,l),
(1151,152,ls),
(1203,152,o),
(1220,120,o),
(1223,87,cs),
(1225,50,o),
(1213,20,o),
(1158,20,cs),
(136,20,ls)
);
},
{
closed = 1;
nodes = (
(358,1874,o),
(380,1896,o),
(380,1923,cs),
(380,1950,o),
(358,1972,o),
(331,1972,cs),
(304,1972,o),
(282,1950,o),
(282,1923,cs),
(282,1896,o),
(304,1874,o),
(331,1874,cs)
);
}
);
vertWidth = 0;
width = 1383;
},
{
layerId = m002;
shapes = (
{
closed = 1;
nodes = (
(1239,0,ls),
(1347,0,o),
(1401,70,o),
(1401,150,cs),
(1401,242,o),
(1333,312,o),
(1231,312,cs),
(564,312,l),
(1523,1746,ls),
(1594,1852,o),
(1541,2008,o),
(1394,2008,cs),
(410,2008,ls),
(307,2008,o),
(245,1938,o),
(250,1848,cs),
(254,1766,o),
(323,1697,o),
(431,1697,cs),
(1089,1697,l),
(124,243,ls),
(59,146,o),
(117,0,o),
(268,0,cs)
);
},
{
closed = 1;
nodes = (
(148,40,o),
(106,145,o),
(157,221,cs),
(1163,1736,l),
(431,1736,ls),
(342,1736,o),
(292,1785,o),
(290,1850,cs),
(285,1921,o),
(328,1969,o),
(410,1969,cs),
(1394,1969,ls),
(1510,1969,o),
(1549,1854,o),
(1491,1768,cs),
(489,273,l),
(1231,273,ls),
(1314,273,o),
(1361,224,o),
(1361,150,cs),
(1361,86,o),
(1325,40,o),
(1239,40,cs),
(268,40,ls)
);
},
{
closed = 1;
nodes = (
(417,1798,o),
(444,1825,o),
(444,1858,cs),
(444,1891,o),
(417,1918,o),
(384,1918,cs),
(351,1918,o),
(324,1891,o),
(324,1858,cs),
(324,1825,o),
(351,1798,o),
(384,1798,cs)
);
}
);
vertWidth = 0;
width = 1553;
}
);
metricLeft = Z;
metricRight = Z;
},
{
color = 6;
glyphname = A.ss05;
lastChange = "2023-09-29 01:34:55 +0000";
layers = (
{
layerId = m01;
shapes = (
{
closed = 1;
nodes = (
(1292,3,o),
(1310,54,o),
(1301,111,cs),
(1023,1925,ls),
(1016,1972,o),
(997,2008,o),
(933,2008,cs),
(876,2008,o),
(854,1978,o),
(832,1930,cs),
(28,138,ls),
(-6,63,o),
(13,15,o),
(66,0,cs),
(121,-14,o),
(161,30,o),
(183,80,cs),
(587,1007,l),
(999,1007,l),
(1127,91,ls),
(1134,40,o),
(1156,-8,o),
(1228,-3,cs)
);
},
{
closed = 1;
nodes = (
(1169,12,o),
(1154,46,o),
(1147,94,cs),
(1016,1027,l),
(574,1027,l),
(165,88,ls),
(145,42,o),
(114,8,o),
(72,20,cs),
(30,31,o),
(16,64,o),
(46,130,cs),
(850,1922,ls),
(870,1967,o),
(887,1988,o),
(933,1988,cs),
(984,1988,o),
(998,1964,o),
(1004,1922,cs),
(1282,109,ls),
(1290,57,o),
(1277,21,o),
(1226,17,cs)
);
},
{
closed = 1;
nodes = (
(898,1721,l),
(978,1158,l),
(653,1158,l)
);
},
{
closed = 1;
nodes = (
(1001,1139,l),
(913,1758,ls),
(912,1767,o),
(897,1768,o),
(894,1760,cs),
(623,1139,l)
);
},
{
closed = 1;
nodes = (
(804,1636,l),
(792,1641,l),
(880,1836,l),
(864,1843,l),
(777,1648,l),
(765,1653,l),
(757,1584,l)
);
},
{
closed = 1;
nodes = (
(958,1864,o),
(980,1886,o),
(980,1913,cs),
(980,1940,o),
(958,1962,o),
(931,1962,cs),
(904,1962,o),
(882,1940,o),
(882,1913,cs),
(882,1886,o),
(904,1864,o),
(931,1864,cs)
);
}
);
vertWidth = 0;
width = 1412;
},
{
layerId = m002;
shapes = (
{
closed = 1;
nodes = (
(1408,11,o),
(1453,89,o),
(1435,202,cs),
(1172,1897,ls),
(1161,1969,o),
(1100,2008,o),
(1008,2008,cs),
(903,2008,o),
(869,1966,o),
(837,1894,cs),
(87,227,ls),
(43,128,o),
(91,37,o),
(170,7,cs),
(249,-24,o),
(358,11,o),
(399,111,cs),
(681,799,l),
(1026,799,l),
(1116,161,ls),
(1133,39,o),
(1200,-21,o),
(1312,-3,cs)
);
},
{
closed = 1;
nodes = (
(1215,21,o),
(1170,61,o),
(1155,167,cs),
(1061,838,l),
(655,838,l),
(363,127,ls),
(330,46,o),
(249,20,o),
(184,43,cs),
(122,69,o),
(88,133,o),
(123,211,cs),
(873,1878,ls),
(903,1944,o),
(923,1968,o),
(1008,1968,cs),
(1086,1968,o),
(1126,1944,o),
(1134,1891,cs),
(1396,196,ls),
(1411,99,o),
(1381,47,o),
(1306,35,cs)
);
},
{
closed = 1;
nodes = (
(955,1436,l),
(990,1081,l),
(799,1081,l)
);
},
{
closed = 1;
nodes = (
(1035,1041,l),
(985,1513,ls),
(983,1531,o),
(955,1534,o),
(948,1518,cs),
(741,1041,l)
);
},
{
closed = 1;
nodes = (
(891,1593,l),
(879,1598,l),
(966,1793,l),
(942,1804,l),
(854,1609,l),
(842,1614,l),
(839,1543,l)
);
},
{
closed = 1;
nodes = (
(1043,1825,o),
(1070,1852,o),
(1070,1885,cs),
(1070,1918,o),
(1043,1945,o),
(1010,1945,cs),
(977,1945,o),
(950,1918,o),
(950,1885,cs),
(950,1852,o),
(977,1825,o),
(1010,1825,cs)
);
}
);
vertWidth = 0;
width = 1591;
},
{
associatedMasterId = m01;
layerId = "CC05ECD8-6904-4D4D-92AC-3DF3C05EEB87";
name = background;
shapes = (
{
closed = 1;
nodes = (
(349,743,ls),
(354,756,o),
(343,772,o),
(321,772,cs),
(295,772,o),
(293,759,o),
(286,743,cs),
(-31,38,ls),
(-42,14,o),
(-26,0,o),
(-8,0,cs),
(15,0,o),
(21,8,o),
(30,30,cs),
(348,735,l)
);
},
{
closed = 1;
nodes = (
(366,388,l),
(356,442,l),
(200,442,l),
(177,388,l)
);
},
{
closed = 1;
nodes = (
(305,669,l),
(405,23,ls),
(406,11,o),
(411,0,o),
(437,0,c),
(459,0,o),
(465,13,o),
(462,31,cs),
(350,754,l)
);
},
{
closed = 1;
nodes = (
(349,743,ls),
(354,756,o),
(343,772,o),
(321,772,cs),
(295,772,o),
(293,759,o),
(286,743,cs),
(-31,38,ls),
(-42,14,o),
(-26,0,o),
(-8,0,cs),
(15,0,o),
(21,8,o),
(30,30,cs),
(348,735,l)
);
},
{
closed = 1;
nodes = (
(366,388,l),
(356,442,l),
(200,442,l),
(177,388,l)
);
},
{
closed = 1;
nodes = (
(305,669,l),
(405,23,ls),
(406,11,o),
(411,0,o),
(437,0,c),
(459,0,o),
(465,13,o),
(462,31,cs),
(350,754,l)
);
}
);
vertWidth = 0;
width = 594;
},
{
associatedMasterId = m002;
layerId = "11FF2575-6263-44BF-95EA-B853E43D43A6";
name = background;
shapes = (
{
closed = 1;
nodes = (
(426,718,l),
(430,748,o),
(404,772,o),
(367,772,cs),
(327,772,o),
(318,756,o),
(309,732,c),
(14,78,ls),
(-1,44,o),
(15,13,o),
(43,2,cs),
(70,-8,o),
(108,4,o),
(122,39,cs),
(350,584,l)
);
},
{
closed = 1;
nodes = (
(390,347,l),
(373,442,l),
(274,442,l),
(234,347,l)
);
},
{
closed = 1;
nodes = (
(343,601,l),
(418,58,ls),
(424,14,o),
(448,-6,o),
(486,0,cs),
(519,5,o),
(535,31,o),
(529,72,cs),
(425,735,l)
);
}
);
vertWidth = 0;
width = 594;
}
);
metricLeft = A;
metricRight = A;
},
{
color = 6;
glyphname = B.ss05;
lastChange = "2023-09-29 01:33:01 +0000";
layers = (
{
layerId = m01;
shapes = (
{
closed = 1;
nodes = (
(989,0,o),
(1438,212,o),
(1478,565,cs),
(1502,811,o),
(1358,1001,o),
(1070,1081,c),
(1395,1163,o),
(1458,1341,o),
(1482,1527,cs),
(1522,1840,o),
(1161,2039,o),
(491,2008,cs),
(435,2005,o),
(401,1978,o),
(395,1917,cs),
(206,106,ls),
(200,49,o),
(239,0,o),
(289,0,cs)
);
},
{
closed = 1;
nodes = (
(250,20,o),
(221,57,o),
(226,104,cs),
(414,1915,ls),
(419,1967,o),
(444,1985,o),
(492,1988,cs),
(1153,2019,o),
(1503,1828,o),
(1462,1529,cs),
(1438,1350,o),
(1381,1186,o),
(1028,1087,cs),
(1018,1085,o),
(1018,1078,o),
(1025,1076,cs),
(1340,991,o),
(1482,808,o),
(1458,567,cs),
(1420,227,o),
(984,20,o),
(289,20,cs)
);
},
{
closed = 1;
nodes = (
(969,153,o),
(1297,330,o),
(1323,588,cs),
(1352,856,o),
(1027,1037,o),
(454,998,c),
(363,142,l)
);
},
{
closed = 1;
nodes = (
(472,979,l),
(1026,1013,o),
(1330,841,o),
(1303,590,cs),
(1279,347,o),
(972,177,o),
(385,163,c)
);
},
{
closed = 1;
nodes = (
(472,1606,l),
(459,1607,l),
(481,1820,l),
(464,1822,l),
(442,1609,l),
(429,1610,l),
(444,1541,l)
);
},
{
closed = 1;
nodes = (
(510,1864,o),
(532,1886,o),
(532,1913,cs),
(532,1940,o),
(510,1962,o),
(483,1962,cs),
(456,1962,o),
(434,1940,o),
(434,1913,cs),
(434,1886,o),
(456,1864,o),
(483,1864,cs)
);
},
{
closed = 1;
nodes = (
(1194,1149,o),
(1305,1339,o),
(1326,1540,cs),
(1345,1716,o),
(1103,1890,o),
(546,1873,c),
(467,1111,l)
);
},
{
closed = 1;
nodes = (
(564,1854,l),
(1100,1866,o),
(1323,1703,o),
(1306,1542,cs),
(1286,1349,o),
(1183,1172,o),
(489,1133,c)
);
}
);
vertWidth = 0;
width = 1550;
},
{
layerId = m002;
shapes = (
{
closed = 1;
nodes = (
(1073,0,o),
(1543,213,o),
(1586,569,cs),
(1607,781,o),
(1502,987,o),
(1281,1083,c),
(1516,1186,o),
(1568,1299,o),
(1587,1483,cs),
(1624,1838,o),
(1252,2021,o),
(546,2008,cs),
(438,2005,o),
(371,1980,o),
(357,1845,cs),
(182,183,ls),
(171,79,o),
(241,0,o),
(345,0,cs)
);
},
{
closed = 1;
nodes = (
(262,40,o),
(212,95,o),
(221,179,cs),
(396,1841,ls),
(408,1951,o),
(448,1966,o),
(546,1968,cs),
(1230,1983,o),
(1583,1812,o),
(1549,1489,cs),
(1528,1290,o),
(1473,1184,o),
(1189,1090,cs),
(1178,1086,o),
(1178,1079,o),
(1189,1076,cs),
(1450,990,o),
(1568,791,o),
(1547,573,cs),
(1507,242,o),
(1062,40,o),
(345,40,cs)
);
},
{
closed = 1;
nodes = (
(987,312,o),
(1249,432,o),
(1272,608,cs),
(1298,797,o),
(1030,958,o),
(557,943,c),
(488,296,l)
);
},
{
closed = 1;
nodes = (
(592,904,l),
(1030,913,o),
(1254,766,o),
(1233,614,cs),
(1214,467,o),
(990,358,o),
(532,337,c)
);
},
{
closed = 1;
nodes = (
(520,1565,l),
(507,1566,l),
(530,1779,l),
(503,1782,l),
(480,1569,l),
(467,1570,l),
(487,1501,l)
);
},
{
closed = 1;
nodes = (
(560,1825,o),
(587,1852,o),
(587,1885,cs),
(587,1918,o),
(560,1945,o),
(527,1945,cs),
(494,1945,o),
(467,1918,o),
(467,1885,cs),
(467,1852,o),
(494,1825,o),
(527,1825,cs)
);
},
{
closed = 1;
nodes = (
(1166,1170,o),
(1262,1249,o),
(1282,1422,cs),
(1302,1593,o),
(1093,1737,o),
(639,1736,c),
(578,1142,l)
);
},
{
closed = 1;
nodes = (
(674,1697,l),
(1087,1690,o),
(1259,1567,o),
(1243,1427,cs),
(1225,1271,o),
(1146,1214,o),
(622,1184,c)
);
}
);
vertWidth = 0;
width = 1663;
},
{
associatedMasterId = m01;
layerId = "B07E2D77-9B76-46A5-9AD8-52245F6FEE2E";
name = background;
shapes = (
{
closed = 1;
nodes = (
(470,356,o),
(498,436,o),
(512,564,cs),
(527,704,o),
(400,772,o),
(133,772,c),
(126,718,l),
(347,718,o),
(463,671,o),
(453,567,cs),
(443,481,o),
(434,416,o),
(116,416,c),
(110,356,l)
);
},
{
closed = 1;
nodes = (
(397,0,o),
(486,37,o),
(500,171,cs),
(516,321,o),
(361,416,o),
(112,416,c),
(107,356,l),
(333,356,o),
(451,284,o),
(441,179,cs),
(430,78,o),
(305,55,o),
(56,55,c),
(51,0,l)
);
},
{
closed = 1;
nodes = (
(162,762,o),
(156,772,o),
(133,772,cs),
(113,772,o),
(102,764,o),
(100,740,cs),
(26,37,ls),
(24,17,o),
(37,0,o),
(57,0,cs),
(74,0,o),
(83,11,o),
(86,34,cs),
(159,735,ls)
);
}
);
vertWidth = 0;
width = 594;
},
{
associatedMasterId = m002;
layerId = "41C18EEF-24E8-472E-9093-D1506CBD8D1D";
name = background;
shapes = (
{
closed = 1;
nodes = (
(498,335,o),
(526,456,o),
(537,549,cs),
(548,651,o),
(495,772,o),
(135,772,c),
(122,664,l),
(451,664,o),
(429,587,o),
(424,555,cs),
(418,517,o),
(388,425,o),
(151,425,c),
(141,335,l)
);
},
{
closed = 1;
nodes = (
(413,0,o),
(524,25,o),
(541,179,cs),
(557,339,o),
(367,425,o),
(145,425,c),
(134,335,l),
(345,335,o),
(437,286,o),
(429,200,cs),
(421,118,o),
(334,114,o),
(75,114,c),
(65,0,l)
);
},
{
closed = 1;
nodes = (
(204,764,o),
(166,772,o),
(138,772,cs),
(109,772,o),
(84,763,o),
(80,723,cs),
(10,63,ls),
(6,27,o),
(34,0,o),
(70,0,cs),
(97,0,o),
(124,13,o),
(128,52,cs),
(198,712,ls)
);
}
);
vertWidth = 0;
width = 594;
}
);
metricLeft = B;
metricRight = B;
},
{
color = 6;
glyphname = C.ss05;
lastChange = "2023-09-29 01:33:01 +0000";
layers = (
{
layerId = m01;
shapes = (
{
closed = 1;
nodes = (
(912,-20,o),
(1153,196,o),
(1249,390,cs),
(1291,469,o),
(1298,520,o),
(1240,551,cs),
(1181,581,o),
(1140,542,o),
(1103,470,cs),
(1025,319,o),
(863,142,o),
(619,142,cs),
(332,142,o),
(202,434,o),
(309,1031,cs),
(397,1501,o),
(582,1860,o),
(925,1860,cs),
(1070,1860,o),
(1185,1753,o),
(1249,1707,cs),
(1282,1680,o),
(1342,1656,o),
(1389,1708,cs),
(1433,1761,o),
(1405,1811,o),
(1375,1838,cs),
(1290,1916,o),
(1158,2028,o),
(915,2028,cs),
(484,2028,o),
(239,1588,o),
(138,1052,cs),
(9,379,o),
(192,-20,o),
(632,-20,cs)
);
},
{
closed = 1;
nodes = (
(206,0,o),
(30,385,o),
(158,1049,cs),
(258,1580,o),
(496,2008,o),
(915,2008,cs),
(1152,2008,o),
(1278,1900,o),
(1362,1823,cs),
(1389,1799,o),
(1408,1763,o),
(1374,1721,cs),
(1337,1680,o),
(1292,1698,o),
(1261,1723,cs),
(1196,1769,o),
(1076,1879,o),
(925,1879,cs),
(569,1879,o),
(378,1508,o),
(290,1034,cs),
(181,429,o),
(318,122,o),
(619,122,cs),
(872,122,o),
(1039,308,o),
(1120,461,cs),
(1153,530,o),
(1185,557,o),
(1231,534,cs),
(1276,509,o),
(1271,474,o),
(1231,399,cs),
(1137,209,o),
(904,0,o),
(632,0,cs)
);
},
{
closed = 1;
nodes = (
(1256,1829,l),
(1204,1871,o),
(1167,1893,o),
(1110,1919,c),
(1116,1930,l),
(1047,1939,l),
(1098,1892,l),
(1103,1903,l),
(1160,1877,o),
(1194,1856,o),
(1245,1814,c)
);
},
{
closed = 1;
nodes = (
(1351,1717,o),
(1373,1739,o),
(1373,1766,cs),
(1373,1793,o),
(1351,1815,o),
(1324,1815,cs),
(1297,1815,o),
(1275,1793,o),
(1275,1766,cs),
(1275,1739,o),
(1297,1717,o),
(1324,1717,cs)
);
}
);
vertWidth = 0;
width = 1338;
},
{
layerId = m002;
shapes = (
{
closed = 1;
nodes = (
(1091,-20,o),
(1349,171,o),
(1454,362,cs),
(1529,501,o),
(1478,611,o),
(1395,654,cs),
(1308,701,o),
(1229,664,o),
(1188,576,cs),
(1120,430,o),
(981,286,o),
(757,286,cs),
(543,286,o),
(458,517,o),
(521,1019,cs),
(573,1458,o),
(751,1716,o),
(1067,1716,cs),
(1180,1716,o),
(1299,1627,o),
(1362,1582,cs),
(1437,1530,o),
(1527,1542,o),
(1581,1636,cs),
(1639,1739,o),
(1594,1839,o),
(1533,1884,cs),
(1456,1943,o),
(1235,2028,o),
(1047,2028,cs),
(562,2028,o),
(269,1685,o),
(177,1061,cs),
(81,414,o),
(275,-20,o),
(752,-20,cs)
);
},
{
closed = 1;
nodes = (
(303,19,o),
(122,423,o),
(215,1055,cs),
(306,1666,o),
(582,1988,o),
(1047,1988,cs),
(1228,1988,o),
(1438,1906,o),
(1509,1853,cs),
(1561,1815,o),
(1594,1739,o),
(1547,1656,cs),
(1504,1581,o),
(1444,1572,o),
(1384,1614,cs),
(1320,1661,o),
(1190,1755,o),
(1067,1755,cs),
(729,1755,o),
(536,1475,o),
(482,1024,cs),
(417,508,o),
(513,247,o),
(757,247,cs),
(998,247,o),
(1149,407,o),
(1223,560,cs),
(1255,632,o),
(1308,656,o),
(1377,619,cs),
(1445,584,o),
(1484,500,o),
(1419,381,cs),
(1320,199,o),
(1077,19,o),
(752,19,cs)
);
},
{
closed = 1;
nodes = (
(1383,1793,l),
(1320,1833,o),
(1252,1857,o),
(1184,1878,c),
(1189,1890,l),
(1117,1886,l),
(1172,1839,l),
(1175,1852,l),
(1243,1832,o),
(1309,1809,o),
(1370,1768,c)
);
},
{
closed = 1;
nodes = (
(1498,1663,o),
(1525,1690,o),
(1525,1723,cs),
(1525,1756,o),
(1498,1783,o),
(1465,1783,cs),
(1432,1783,o),
(1405,1756,o),
(1405,1723,cs),
(1405,1690,o),
(1432,1663,o),
(1465,1663,cs)
);
}
);
vertWidth = 0;
width = 1607;
},
{
associatedMasterId = m01;
layerId = "52EFED00-95E8-43A2-983B-57F1EBD9EA9F";
name = background;
shapes = (
{
closed = 1;
nodes = (
(557,695,o),
(577,690,o),
(587,710,cs),
(596,729,o),
(584,743,o),
(573,747,cs),
(536,763,o),
(498,771,o),
(394,771,cs),
(210,771,o),
(116,606,o),
(96,402,cs),
(95,378,o),
(82,259,o),
(86,204,cs),
(93,101,o),
(134,-5,o),
(284,-5,cs),
(391,-5,o),
(486,71,o),
(520,141,cs),
(538,181,o),
(542,195,o),
(522,206,cs),
(497,217,o),
(482,203,o),
(469,176,cs),
(438,116,o),
(365,50,o),
(279,50,cs),
(171,50,o),
(150,135,o),
(145,203,cs),
(140,267,o),
(153,368,o),
(159,415,cs),
(175,575,o),
(257,716,o),
(398,716,cs),
(491,716,o),
(519,709,o),
(545,700,cs)
);
}
);
vertWidth = 0;
width = 594;
},
{
associatedMasterId = m002;
layerId = "66F140A1-F38A-450F-A5C8-1AF38644720C";
name = background;
shapes = (
{
closed = 1;
nodes = (
(444,-5,o),
(549,69,o),
(580,151,cs),
(605,223,o),
(608,261,o),
(550,276,cs),
(499,287,o),
(489,254,o),
(473,209,cs),
(453,156,o),
(390,114,o),
(308,114,cs),
(235,114,o),
(208,143,o),
(203,198,cs),
(200,261,o),
(211,368,o),
(219,412,cs),
(232,536,o),
(279,653,o),
(438,653,cs),
(473,653,o),
(531,649,o),
(576,638,cs),
(596,633,o),
(631,638,o),
(643,677,cs),
(653,714,o),
(639,737,o),
(618,746,cs),
(571,766,o),
(491,772,o),
(430,772,cs),
(192,772,o),
(115,590,o),
(97,413,cs),
(93,388,o),
(81,260,o),
(84,200,cs),
(90,124,o),
(139,-5,o),
(315,-5,cs)
);
}
);
vertWidth = 0;
width = 594;
}
);
metricLeft = C;
metricRight = C;
},
{
color = 6;
glyphname = D.ss05;
lastChange = "2023-09-29 01:33:01 +0000";
layers = (
{
layerId = m01;
shapes = (
{
closed = 1;
nodes = (
(486,0,ls),
(1099,0,o),
(1433,396,o),
(1507,1049,cs),
(1572,1625,o),
(1246,2008,o),
(666,2008,cs),
(494,2008,ls),
(419,2008,o),
(400,1968,o),
(395,1917,cs),
(203,94,l),
(194,41,o),
(227,0,o),
(290,0,cs)
);
},
{
closed = 1;
nodes = (
(238,20,o),
(215,48,o),
(222,91,c),
(414,1915,ls),
(419,1962,o),
(433,1988,o),
(494,1988,cs),
(666,1988,ls),
(1236,1988,o),
(1552,1617,o),
(1488,1052,cs),
(1414,405,o),
(1089,20,o),
(486,20,cs),
(290,20,ls)
);
},
{
closed = 1;
nodes = (
(475,142,ls),
(1014,142,o),
(1288,471,o),
(1358,1062,cs),
(1410,1531,o),
(1149,1869,o),
(687,1869,cs),
(544,1869,l),
(361,142,l)
);
},
{
closed = 1;
nodes = (
(562,1849,l),
(687,1849,ls),
(1137,1849,o),
(1389,1524,o),
(1338,1065,cs),
(1269,480,o),
(1004,162,o),
(475,162,cs),
(383,162,l)
);
},
{
closed = 1;
nodes = (
(471,1605,l),
(458,1606,l),
(480,1819,l),
(463,1821,l),
(441,1608,l),
(428,1609,l),
(443,1540,l)
);
},
{
closed = 1;
nodes = (
(509,1864,o),
(531,1886,o),
(531,1913,cs),
(531,1940,o),
(509,1962,o),
(482,1962,cs),
(455,1962,o),
(433,1940,o),
(433,1913,cs),
(433,1886,o),
(455,1864,o),
(482,1864,cs)
);
}
);
vertWidth = 0;
width = 1454;
},
{
layerId = m002;
shapes = (
{
closed = 1;
nodes = (
(578,0,ls),
(1172,0,o),
(1563,399,o),
(1629,1035,cs),
(1687,1612,o),
(1333,2008,o),
(740,2008,cs),
(527,2008,ls),
(423,2008,o),
(369,1958,o),
(359,1866,cs),
(181,170,ls),
(171,76,o),
(244,0,o),
(345,0,cs)
);
},
{
closed = 1;
nodes = (
(264,40,o),
(212,93,o),
(220,166,cs),
(398,1861,ls),
(406,1936,o),
(441,1968,o),
(527,1968,cs),
(740,1968,ls),
(1313,1968,o),
(1646,1596,o),
(1590,1039,cs),
(1525,419,o),
(1154,40,o),
(578,40,cs),
(346,40,ls)
);
},
{
closed = 1;
nodes = (
(560,271,ls),
(1000,271,o),
(1289,534,o),
(1336,1045,cs),
(1378,1512,o),
(1123,1742,o),
(708,1742,cs),
(653,1742,l),
(497,271,l)
);
},
{
closed = 1;
nodes = (
(688,1703,l),
(708,1703,ls),
(1105,1703,o),
(1337,1493,o),
(1297,1049,cs),
(1252,555,o),
(983,310,o),
(560,310,cs),
(541,310,l)
);
},
{
closed = 1;
nodes = (
(527,1565,l),
(514,1566,l),
(537,1779,l),
(510,1782,l),
(487,1569,l),
(474,1570,l),
(494,1501,l)
);
},
{
closed = 1;
nodes = (
(569,1825,o),
(596,1852,o),
(596,1885,cs),
(596,1918,o),
(569,1945,o),
(536,1945,cs),
(503,1945,o),
(476,1918,o),
(476,1885,cs),
(476,1852,o),
(503,1825,o),
(536,1825,cs)
);
}
);
vertWidth = 0;
width = 1577;
},
{
associatedMasterId = m01;
layerId = "65D45964-139F-42EA-844B-768674C9B4E8";
name = background;
shapes = (
{
closed = 1;
nodes = (
(143,0,ls),
(371,0,o),
(510,152,o),
(537,417,cs),
(560,619,o),
(412,772,o),
(188,772,cs),
(146,772,l),
(139,718,l),
(196,718,ls),
(385,718,o),
(495,581,o),
(479,416,cs),
(454,184,o),
(331,55,o),
(139,55,cs),
(74,55,l),
(67,0,l)
);
},
{
closed = 1;
nodes = (
(173,757,o),
(171,772,o),
(146,772,cs),
(120,772,o),
(114,759,o),
(112,740,cs),
(37,32,ls),
(34,14,o),
(45,0,o),
(67,0,cs),
(93,0,o),
(95,18,o),
(96,30,cs),
(171,735,ls)
);
}
);
vertWidth = 0;
width = 594;
}
);
metricLeft = D;
},
{
color = 6;
glyphname = E.ss05;
lastChange = "2023-09-29 01:33:01 +0000";
layers = (
{
layerId = m01;
shapes = (
{
closed = 1;
nodes = (
(1250,0,ls),
(1316,0,o),
(1342,42,o),
(1342,84,cs),
(1342,125,o),
(1316,162,o),
(1250,162,cs),
(382,162,l),
(471,999,l),
(1276,999,ls),
(1343,999,o),
(1379,1040,o),
(1379,1081,cs),
(1379,1122,o),
(1349,1160,o),
(1284,1160,cs),
(488,1160,l),
(561,1849,l),
(1446,1849,ls),
(1512,1849,o),
(1538,1888,o),
(1538,1929,cs),
(1538,1969,o),
(1512,2008,o),
(1446,2008,cs),
(493,2008,ls),
(419,2008,o),
(400,1968,o),
(395,1917,cs),
(203,94,ls),
(197,41,o),
(227,0,o),
(290,0,cs)
);
},
{
closed = 1;
nodes = (
(238,20,o),
(217,48,o),
(222,91,cs),
(415,1915,ls),
(420,1962,o),
(433,1988,o),
(493,1988,cs),
(1446,1988,ls),
(1500,1988,o),
(1518,1961,o),
(1518,1929,cs),
(1518,1895,o),
(1500,1869,o),
(1446,1869,cs),
(543,1869,l),
(466,1141,l),
(1284,1141,ls),
(1338,1141,o),
(1359,1114,o),
(1359,1081,cs),
(1359,1049,o),
(1334,1019,o),
(1276,1019,cs),
(453,1019,l),
(360,142,l),
(1250,142,ls),
(1305,142,o),
(1322,118,o),
(1322,84,cs),
(1322,49,o),
(1304,20,o),
(1250,20,cs),
(290,20,ls)
);
},
{
closed = 1;
nodes = (
(471,1605,l),
(458,1606,l),
(480,1819,l),
(463,1821,l),
(441,1608,l),
(428,1609,l),
(443,1540,l)
);
},
{
closed = 1;
nodes = (
(509,1864,o),
(531,1886,o),
(531,1913,cs),
(531,1940,o),
(509,1962,o),
(482,1962,cs),
(455,1962,o),
(433,1940,o),
(433,1913,cs),
(433,1886,o),
(455,1864,o),
(482,1864,cs)
);
}
);
vertWidth = 0;
width = 1493;
},
{
layerId = m002;
shapes = (
{
closed = 1;
nodes = (
(1328,0,ls),
(1433,0,o),
(1490,91,o),
(1490,178,cs),
(1490,260,o),
(1425,328,o),
(1318,328,cs),
(541,328,l),
(605,934,l),
(1344,934,ls),
(1451,934,o),
(1516,1001,o),
(1516,1083,cs),
(1516,1175,o),
(1440,1230,o),
(1342,1230,cs),
(636,1230,l),
(684,1680,l),
(1506,1680,ls),
(1611,1680,o),
(1671,1768,o),
(1671,1856,cs),
(1671,1943,o),
(1601,2008,o),
(1496,2008,cs),
(535,2008,ls),
(433,2008,o),
(370,1968,o),
(360,1873,cs),
(181,172,ls),
(171,80,o),
(218,0,o),
(339,0,cs)
);
},
{
closed = 1;
nodes = (
(244,40,o),
(212,91,o),
(220,168,cs),
(399,1868,ls),
(407,1943,o),
(447,1968,o),
(535,1968,cs),
(1496,1968,ls),
(1583,1968,o),
(1632,1923,o),
(1632,1856,cs),
(1632,1782,o),
(1588,1719,o),
(1506,1719,cs),
(649,1719,l),
(593,1190,l),
(1342,1190,ls),
(1424,1190,o),
(1477,1152,o),
(1477,1083,cs),
(1477,1019,o),
(1432,973,o),
(1344,973,cs),
(569,973,l),
(498,289,l),
(1318,289,ls),
(1406,289,o),
(1451,241,o),
(1451,178,cs),
(1451,105,o),
(1409,40,o),
(1328,40,cs),
(339,40,ls)
);
},
{
closed = 1;
nodes = (
(527,1565,l),
(514,1566,l),
(537,1779,l),
(510,1782,l),
(487,1569,l),
(474,1570,l),
(494,1501,l)
);
},
{
closed = 1;
nodes = (
(569,1825,o),
(596,1852,o),
(596,1885,cs),
(596,1918,o),
(569,1945,o),
(536,1945,cs),
(503,1945,o),
(476,1918,o),
(476,1885,cs),
(476,1852,o),
(503,1825,o),
(536,1825,cs)
);
}
);
vertWidth = 0;
width = 1644;
}
);
metricLeft = E;
metricRight = E;
},
{
color = 6;
glyphname = F.ss05;
lastChange = "2023-09-29 01:33:01 +0000";
layers = (
{
layerId = m01;
shapes = (
{
closed = 1;
nodes = (
(365,0,o),
(371,56,o),
(374,86,cs),
(471,999,l),
(1255,999,ls),
(1323,999,o),
(1350,1041,o),
(1350,1081,cs),
(1350,1121,o),
(1323,1160,o),
(1255,1160,cs),
(488,1160,l),
(561,1849,l),
(1445,1849,ls),
(1511,1849,o),
(1538,1888,o),
(1538,1929,cs),
(1538,1969,o),
(1511,2008,o),
(1445,2008,cs),
(493,2008,ls),
(418,2008,o),
(400,1968,o),
(395,1917,cs),
(203,93,ls),
(198,41,o),
(226,0,o),
(290,0,cs)
);
},
{
closed = 1;
nodes = (
(238,20,o),
(217,48,o),
(222,91,cs),
(415,1915,ls),
(420,1962,o),
(432,1988,o),
(493,1988,cs),
(1445,1988,ls),
(1499,1988,o),
(1518,1961,o),
(1518,1929,cs),
(1518,1895,o),
(1500,1869,o),
(1445,1869,cs),
(543,1869,l),
(466,1141,l),
(1255,1141,ls),
(1311,1141,o),
(1330,1114,o),
(1330,1081,cs),
(1330,1049,o),
(1311,1019,o),
(1255,1019,cs),
(453,1019,l),
(354,88,ls),
(351,58,o),
(347,20,o),
(290,20,cs)
);
},
{
closed = 1;
nodes = (
(471,1605,l),
(458,1606,l),
(480,1819,l),
(463,1821,l),
(441,1608,l),
(428,1609,l),
(443,1540,l)
);
},
{
closed = 1;
nodes = (
(509,1864,o),
(531,1886,o),
(531,1913,cs),
(531,1940,o),
(509,1962,o),
(482,1962,cs),
(455,1962,o),
(433,1940,o),
(433,1913,cs),
(433,1886,o),
(455,1864,o),
(482,1864,cs)
);
}
);
vertWidth = 0;
width = 1493;
},
{
layerId = m002;
shapes = (
{
closed = 1;
nodes = (
(456,0,o),
(514,74,o),
(525,174,cs),
(606,933,l),
(1383,933,ls),
(1491,933,o),
(1543,1000,o),
(1543,1082,cs),
(1543,1171,o),
(1469,1229,o),
(1368,1229,cs),
(638,1229,l),
(685,1680,l),
(1540,1680,ls),
(1642,1680,o),
(1715,1750,o),
(1715,1851,cs),
(1715,1946,o),
(1642,2008,o),
(1537,2008,cs),
(531,2008,ls),
(427,2008,o),
(370,1965,o),
(360,1871,cs),
(183,185,ls),
(174,95,o),
(220,0,o),
(322,0,cs)
);
},
{
closed = 1;
nodes = (
(247,40,o),
(214,105,o),
(222,181,cs),
(399,1866,ls),
(407,1942,o),
(443,1968,o),
(531,1968,cs),
(1537,1968,ls),
(1625,1968,o),
(1676,1925,o),
(1676,1851,cs),
(1676,1769,o),
(1624,1719,o),
(1540,1719,cs),
(650,1719,l),
(594,1190,l),
(1368,1190,ls),
(1453,1190,o),
(1504,1149,o),
(1504,1082,cs),
(1504,1016,o),
(1470,972,o),
(1383,972,cs),
(571,972,l),
(486,178,ls),
(477,92,o),
(435,40,o),
(322,40,cs)
);
},
{
closed = 1;
nodes = (
(527,1565,l),
(514,1566,l),
(537,1779,l),
(510,1782,l),
(487,1569,l),
(474,1570,l),
(494,1501,l)
);
},
{
closed = 1;
nodes = (
(569,1825,o),
(596,1852,o),
(596,1885,cs),
(596,1918,o),
(569,1945,o),
(536,1945,cs),
(503,1945,o),
(476,1918,o),
(476,1885,cs),
(476,1852,o),
(503,1825,o),
(536,1825,cs)
);
}
);
vertWidth = 0;
width = 1688;
}
);
metricLeft = F;
metricRight = F;
},
{
color = 6;
glyphname = G.ss05;
lastChange = "2023-09-29 01:35:12 +0000";
layers = (
{
layerId = m01;
shapes = (
{
closed = 1;
nodes = (
(822,-20,o),
(1038,169,o),
(1200,545,c),
(1155,122,ls),
(1148,55,o),
(1161,4,o),
(1229,0,cs),
(1310,-3,o),
(1322,57,o),
(1329,120,cs),
(1420,998,ls),
(1426,1057,o),
(1381,1091,o),
(1325,1091,cs),
(1266,1091,o),
(1254,1054,o),
(1236,1013,cs),
(1020,506,o),
(855,142,o),
(588,142,cs),
(328,142,o),
(220,518,o),
(305,1031,cs),
(374,1449,o),
(622,1862,o),
(954,1862,cs),
(1126,1862,o),
(1251,1730,o),
(1317,1661,cs),
(1354,1625,o),
(1404,1615,o),
(1442,1651,cs),
(1482,1687,o),
(1485,1743,o),
(1451,1787,cs),
(1373,1893,o),
(1189,2028,o),
(977,2028,cs),
(515,2028,o),
(223,1539,o),
(136,1054,cs),
(22,439,o),
(192,-20,o),
(560,-20,cs)
);
},
{
closed = 1;
nodes = (
(207,0,o),
(43,444,o),
(155,1051,cs),
(242,1531,o),
(527,2008,o),
(977,2008,cs),
(1183,2008,o),
(1359,1878,o),
(1435,1775,cs),
(1464,1738,o),
(1461,1696,o),
(1429,1666,cs),
(1399,1637,o),
(1363,1644,o),
(1332,1675,cs),
(1265,1745,o),
(1133,1881,o),
(954,1881,cs),
(610,1881,o),
(355,1457,o),
(285,1034,cs),
(199,514,o),
(312,122,o),
(588,122,cs),
(868,122,o),
(1037,498,o),
(1254,1005,cs),
(1272,1047,o),
(1280,1071,o),
(1325,1071,cs),
(1373,1071,o),
(1405,1046,o),
(1400,1000,cs),
(1310,122,ls),
(1304,60,o),
(1294,17,o),
(1230,20,cs),
(1178,23,o),
(1168,57,o),
(1175,120,cs),
(1227,605,ls),
(1228,611,o),
(1210,615,o),
(1208,610,cs),
(1037,190,o),
(814,0,o),
(560,0,cs)
);
},
{
closed = 1;
nodes = (
(1412,1671,o),
(1434,1693,o),
(1434,1720,cs),
(1434,1747,o),
(1412,1769,o),
(1385,1769,cs),
(1358,1769,o),
(1336,1747,o),
(1336,1720,cs),
(1336,1693,o),
(1358,1671,o),
(1385,1671,cs)
);
},
{
closed = 1;
nodes = (
(1327,1793,l),
(1280,1842,o),
(1244,1868,o),
(1191,1898,c),
(1198,1908,l),
(1129,1923,l),
(1176,1871,l),
(1183,1881,l),
(1236,1852,o),
(1270,1827,o),
(1316,1780,c)
);
}
);
vertWidth = 0;
width = 1623;
},
{
layerId = m002;
shapes = (
{
closed = 1;
nodes = (
(900,-20,o),
(1059,209,o),
(1158,387,c),
(1136,170,ls),
(1125,63,o),
(1199,0,o),
(1313,0,cs),
(1431,0,o),
(1470,66,o),
(1478,145,cs),
(1567,986,ls),
(1578,1094,o),
(1505,1161,o),
(1400,1161,cs),
(1273,1161,o),
(1235,1134,o),
(1097,851,cs),
(1010,672,o),
(791,289,o),
(668,289,cs),
(532,289,o),
(484,538,o),
(543,1014,cs),
(591,1415,o),
(685,1713,o),
(1015,1713,cs),
(1158,1713,o),
(1237,1651,o),
(1265,1581,cs),
(1307,1480,o),
(1383,1439,o),
(1492,1469,cs),
(1589,1493,o),
(1613,1592,o),
(1590,1674,cs),
(1531,1902,o),
(1297,2028,o),
(1015,2028,cs),
(518,2028,o),
(283,1637,o),
(198,1058,cs),
(105,438,o),
(195,-20,o),
(648,-20,cs)
);
},
{
closed = 1;
nodes = (
(229,19,o),
(145,441,o),
(237,1052,cs),
(321,1621,o),
(542,1988,o),
(1015,1988,cs),
(1286,1988,o),
(1498,1872,o),
(1552,1664,cs),
(1571,1595,o),
(1555,1525,o),
(1482,1507,cs),
(1390,1482,o),
(1336,1510,o),
(1301,1595,cs),
(1267,1680,o),
(1170,1752,o),
(1015,1752,cs),
(657,1752,o),
(552,1426,o),
(504,1019,cs),
(444,532,o),
(496,250,o),
(668,250,cs),
(818,250,o),
(1044,653,o),
(1131,832,cs),
(1270,1117,o),
(1298,1122,o),
(1400,1122,cs),
(1487,1122,o),
(1537,1076,o),
(1528,990,cs),
(1439,150,ls),
(1432,80,o),
(1407,40,o),
(1313,40,cs),
(1216,40,o),
(1167,82,o),
(1175,166,cs),
(1206,473,ls),
(1207,483,o),
(1177,496,o),
(1170,484,cs),
(1027,232,o),
(880,19,o),
(648,19,cs)
);
},
{
closed = 1;
nodes = (
(1480,1541,o),
(1507,1568,o),
(1507,1601,cs),
(1507,1634,o),
(1480,1661,o),
(1447,1661,cs),
(1414,1661,o),
(1387,1634,o),
(1387,1601,cs),
(1387,1568,o),
(1414,1541,o),
(1447,1541,cs)
);
},
{
closed = 1;
nodes = (
(1411,1703,l),
(1362,1766,o),
(1298,1815,o),
(1237,1850,c),
(1243,1861,l),
(1174,1876,l),
(1217,1817,l),
(1222,1829,l),
(1284,1792,o),
(1347,1745,o),
(1392,1686,c)
);
}
);
vertWidth = 0;
width = 1740;
},
{
associatedMasterId = m002;
layerId = "38D35BBD-0824-4139-A76A-CF2BFBC65422";
name = background;
shapes = (
{
closed = 1;
nodes = (
(491,440,o),
(485,429,o),
(423,322,cs),
(386,258,o),
(293,101,o),
(247,101,cs),
(214,101,o),
(207,135,o),
(203,184,cs),
(198,254,o),
(210,361,o),
(216,421,cs),
(228,529,o),
(247,665,o),
(443,665,cs),
(470,665,o),
(497,637,o),
(501,617,cs),
(511,579,o),
(554,570,o),
(582,577,cs),
(614,587,o),
(623,619,o),
(614,649,cs),
(593,733,o),
(516,772,o),
(435,772,cs),
(156,772,o),
(114,579,o),
(95,405,cs),
(93,381,o),
(80,252,o),
(84,179,cs),
(90,94,o),
(126,-5,o),
(240,-5,cs),
(353,-5,o),
(457,182,o),
(532,315,c),
(536,440,l)
);
},
{
closed = 1;
nodes = (
(596,417,o),
(571,440,o),
(535,440,cs),
(488,440,o),
(475,407,o),
(473,388,cs),
(438,58,ls),
(435,21,o),
(460,0,o),
(500,0,cs),
(542,0,o),
(554,21,o),
(557,50,cs),
(593,380,ls)
);
}
);
vertWidth = 0;
width = 594;
}
);
metricLeft = G;
metricRight = G;
},
{
color = 6;
glyphname = H.ss05;
lastChange = "2023-09-29 01:33:01 +0000";
layers = (
{
layerId = m01;
shapes = (
{
closed = 1;
nodes = (
(365,0,o),
(371,56,o),
(374,86,cs),
(471,999,l),
(1327,999,l),
(1234,93,ls),
(1230,56,o),
(1240,0,o),
(1321,0,cs),
(1385,0,o),
(1402,46,o),
(1405,76,cs),
(1598,1910,ls),
(1604,1966,o),
(1579,2008,o),
(1513,2008,cs),
(1449,2008,o),
(1430,1966,o),
(1426,1932,cs),
(1344,1160,l),
(488,1160,l),
(567,1902,ls),
(573,1962,o),
(552,2008,o),
(493,2008,cs),
(431,2008,o),
(400,1969,o),
(395,1917,cs),
(203,94,ls),
(197,41,o),
(227,0,o),
(290,0,cs)
);
},
{
closed = 1;
nodes = (
(238,20,o),
(218,48,o),
(223,91,cs),
(415,1915,ls),
(420,1961,o),
(442,1988,o),
(493,1988,cs),
(538,1988,o),
(554,1958,o),
(548,1904,cs),
(466,1141,l),
(1361,1141,l),
(1445,1930,ls),
(1448,1960,o),
(1463,1988,o),
(1513,1988,cs),
(1567,1988,o),
(1583,1960,o),
(1578,1912,cs),
(1385,78,ls),
(1382,51,o),
(1370,20,o),
(1321,20,cs),
(1257,20,o),
(1249,57,o),
(1253,91,cs),
(1349,1019,l),
(454,1019,l),
(355,88,ls),
(352,58,o),
(348,20,o),
(290,20,cs)
);
},
{
closed = 1;
nodes = (
(471,1605,l),
(458,1606,l),
(480,1819,l),
(463,1821,l),
(441,1608,l),
(428,1609,l),
(443,1540,l)
);
},
{
closed = 1;
nodes = (
(510,1864,o),
(532,1886,o),
(532,1913,cs),
(532,1940,o),
(510,1962,o),
(483,1962,cs),
(456,1962,o),
(434,1940,o),
(434,1913,cs),
(434,1886,o),
(456,1864,o),
(483,1864,cs)
);
}
);
vertWidth = 0;
width = 1704;
},
{
layerId = m002;
shapes = (
{
closed = 1;
nodes = (
(468,0,o),
(516,72,o),
(523,141,cs),
(608,941,l),
(1279,941,l),
(1198,170,ls),
(1188,71,o),
(1252,0,o),
(1363,0,cs),
(1461,0,o),
(1531,59,o),
(1538,130,cs),
(1717,1833,ls),
(1729,1943,o),
(1654,2008,o),
(1550,2008,cs),
(1457,2008,o),
(1385,1955,o),
(1377,1878,cs),
(1308,1223,l),
(638,1223,l),
(699,1825,ls),
(711,1944,o),
(647,2008,o),
(549,2008,cs),
(461,2008,o),
(369,1965,o),
(359,1866,cs),
(181,170,ls),
(171,74,o),
(245,0,o),
(353,0,cs)
);
},
{
closed = 1;
nodes = (
(264,40,o),
(212,91,o),
(220,166,cs),
(398,1861,ls),
(406,1937,o),
(472,1968,o),
(549,1968,cs),
(628,1968,o),
(670,1927,o),
(660,1829,cs),
(594,1185,l),
(1343,1185,l),
(1416,1874,ls),
(1422,1931,o),
(1472,1968,o),
(1550,1968,cs),
(1636,1968,o),
(1687,1924,o),
(1678,1837,cs),
(1499,134,ls),
(1493,81,o),
(1445,40,o),
(1363,40,cs),
(1272,40,o),
(1229,88,o),
(1237,166,cs),
(1323,981,l),
(573,981,l),
(484,144,ls),
(478,88,o),
(445,40,o),
(353,40,cs)
);
},
{
closed = 1;
nodes = (
(527,1565,l),
(514,1566,l),
(537,1779,l),
(510,1782,l),
(487,1569,l),
(474,1570,l),
(494,1501,l)
);
},
{
closed = 1;
nodes = (
(564,1825,o),
(591,1852,o),
(591,1885,cs),
(591,1918,o),
(564,1945,o),
(531,1945,cs),
(498,1945,o),
(471,1918,o),
(471,1885,cs),
(471,1852,o),
(498,1825,o),
(531,1825,cs)
);
}
);
vertWidth = 0;
width = 1801;
}
);
metricLeft = H;
metricRight = H;
},
{
color = 6;
glyphname = I.ss05;
lastChange = "2023-09-29 01:33:01 +0000";
layers = (
{
layerId = m01;
shapes = (
{
closed = 1;
nodes = (
(365,0,o),
(375,55,o),
(378,86,cs),
(569,1902,ls),
(575,1960,o),
(566,2008,o),
(495,2008,cs),
(427,2008,o),
(400,1969,o),
(395,1917,cs),
(203,94,ls),
(197,41,o),
(229,0,o),
(289,0,cs)
);
},
{
closed = 1;
nodes = (
(240,20,o),
(218,47,o),
(223,91,cs),
(415,1914,ls),
(420,1961,o),
(439,1988,o),
(495,1988,cs),
(549,1988,o),
(555,1959,o),
(549,1904,cs),
(358,88,ls),
(355,58,o),
(348,20,o),
(289,20,cs)
);
},
{
closed = 1;
nodes = (
(471,1605,l),
(458,1606,l),
(480,1819,l),
(463,1821,l),
(441,1608,l),
(428,1609,l),
(443,1540,l)
);
},
{
closed = 1;
nodes = (
(511,1864,o),
(533,1886,o),
(533,1913,cs),
(533,1940,o),
(511,1962,o),
(484,1962,cs),
(457,1962,o),
(435,1940,o),
(435,1913,cs),
(435,1886,o),
(457,1864,o),
(484,1864,cs)
);
}
);
vertWidth = 0;
width = 676;
},
{
layerId = m002;
shapes = (
{
closed = 1;
nodes = (
(442,0,o),
(511,62,o),
(519,136,cs),
(697,1825,ls),
(712,1969,o),
(622,2008,o),
(539,2008,cs),
(442,2008,o),
(369,1964,o),
(359,1865,cs),
(181,170,ls),
(171,76,o),
(227,0,o),
(330,0,cs)
);
},
{
closed = 1;
nodes = (
(249,40,o),
(212,89,o),
(220,166,cs),
(399,1862,ls),
(407,1938,o),
(455,1968,o),
(539,1968,cs),
(611,1968,o),
(670,1942,o),
(658,1829,cs),
(480,139,ls),
(474,83,o),
(425,40,o),
(330,40,cs)
);
},
{
closed = 1;
nodes = (
(527,1565,l),
(514,1566,l),
(537,1779,l),
(510,1782,l),
(487,1569,l),
(474,1570,l),
(494,1501,l)
);
},
{
closed = 1;
nodes = (
(565,1825,o),
(592,1852,o),
(592,1885,cs),
(592,1918,o),
(565,1945,o),
(532,1945,cs),
(499,1945,o),
(472,1918,o),
(472,1885,cs),
(472,1852,o),
(499,1825,o),
(532,1825,cs)
);
}
);
vertWidth = 0;
width = 782;
}
);
metricLeft = I;
metricRight = I;
},
{
color = 6;
glyphname = J.ss05;
lastChange = "2023-09-29 01:33:01 +0000";
layers = (
{
layerId = m01;
shapes = (
{
closed = 1;
nodes = (
(730,0,o),
(882,180,o),
(930,638,cs),
(1063,1902,ls),
(1069,1961,o),
(1056,2008,o),
(986,2008,cs),
(921,2008,o),
(896,1968,o),
(891,1917,cs),
(758,640,ls),
(721,285,o),
(612,162,o),
(415,162,cs),
(291,162,o),
(219,232,o),
(158,310,cs),
(121,358,o),
(67,369,o),
(30,331,cs),
(-11,291,o),
(-2,241,o),
(29,202,cs),
(121,88,o),
(246,0,o),
(415,0,cs)
);
},
{
closed = 1;
nodes = (
(253,20,o),
(134,102,o),
(45,214,cs),
(18,249,o),
(11,285,o),
(44,317,cs),
(73,347,o),
(111,339,o),
(142,298,cs),
(204,219,o),
(282,142,o),
(415,142,cs),
(622,142,o),
(739,275,o),
(777,638,cs),
(911,1915,ls),
(916,1961,o),
(933,1988,o),
(986,1988,cs),
(1041,1988,o),
(1049,1958,o),
(1043,1904,cs),
(910,640,ls),
(863,189,o),
(720,20,o),
(415,20,cs)
);
},
{
closed = 1;
nodes = (
(967,1605,l),
(954,1606,l),
(976,1819,l),
(959,1821,l),
(937,1608,l),
(924,1609,l),
(939,1540,l)
);
},
{
closed = 1;
nodes = (
(1004,1864,o),
(1026,1886,o),
(1026,1913,cs),
(1026,1940,o),
(1004,1962,o),
(977,1962,cs),
(950,1962,o),
(928,1940,o),
(928,1913,cs),
(928,1886,o),
(950,1864,o),
(977,1864,cs)
);
}
);
vertWidth = 0;
width = 1170;
},
{
layerId = m002;
shapes = (
{
closed = 1;
nodes = (
(851,0,o),
(1087,170,o),
(1133,602,cs),
(1262,1825,ls),
(1277,1969,o),
(1188,2008,o),
(1105,2008,cs),
(1011,2008,o),
(935,1964,o),
(925,1866,cs),
(803,680,ls),
(769,354,o),
(691,309,o),
(536,309,cs),
(452,309,o),
(376,402,o),
(329,449,cs),
(261,516,o),
(131,504,o),
(78,431,cs),
(26,359,o),
(40,262,o),
(89,210,cs),
(142,152,o),
(267,0,o),
(547,0,cs)
);
},
{
closed = 1;
nodes = (
(286,39,o),
(172,177,o),
(118,236,cs),
(79,278,o),
(68,350,o),
(109,408,cs),
(150,464,o),
(249,473,o),
(301,421,cs),
(346,376,o),
(433,270,o),
(536,270,cs),
(706,270,o),
(806,329,o),
(842,676,cs),
(964,1861,ls),
(972,1938,o),
(1024,1968,o),
(1105,1968,cs),
(1177,1968,o),
(1235,1943,o),
(1223,1829,cs),
(1094,606,ls),
(1050,193,o),
(835,39,o),
(547,39,cs)
);
},
{
closed = 1;
nodes = (
(1091,1565,l),
(1078,1566,l),
(1101,1779,l),
(1074,1782,l),
(1051,1569,l),
(1038,1570,l),
(1058,1501,l)
);
},
{
closed = 1;
nodes = (
(1127,1825,o),
(1154,1852,o),
(1154,1885,cs),
(1154,1918,o),
(1127,1945,o),
(1094,1945,cs),
(1061,1945,o),
(1034,1918,o),
(1034,1885,cs),
(1034,1852,o),
(1061,1825,o),
(1094,1825,cs)
);
}
);
vertWidth = 0;
width = 1347;
},
{
associatedMasterId = m01;
layerId = "9959F246-042E-4193-B1B9-CF1C12FB95A6";
name = background;
shapes = (
{
closed = 1;
nodes = (
(340,244,ls),
(334,187,o),
(323,125,o),
(287,90,cs),
(266,68,o),
(232,55,o),
(191,55,cs),
(160,55,o),
(132,76,o),
(109,105,cs),
(94,125,o),
(69,134,o),
(56,122,cs),
(38,107,o),
(44,91,o),
(67,65,cs),
(96,31,o),
(139,0,o),
(195,0,cs),
(255,0,o),
(298,15,o),
(328,44,cs),
(372,86,o),
(390,156,o),
(399,244,cs),
(450,740,ls),
(453,762,o),
(448,777,o),
(424,777,cs),
(400,777,o),
(393,764,o),
(391,745,cs)
);
}
);
vertWidth = 0;
width = 594;
},
{
associatedMasterId = m002;
layerId = "134A83CF-652C-4B20-B6C4-B0C20135E8F6";
name = background;
shapes = (
{
closed = 1;
nodes = (
(333,328,ls),
(324,253,o),
(326,181,o),
(291,145,cs),
(271,122,o),
(233,112,o),
(208,112,cs),
(165,112,o),
(135,140,o),
(124,151,cs),
(100,173,o),
(56,175,o),
(34,141,cs),
(23,125,o),
(27,93,o),
(44,75,cs),
(65,52,o),
(112,-5,o),
(219,-5,cs),
(284,-5,o),
(343,24,o),
(386,70,cs),
(440,127,o),
(438,219,o),
(449,318,cs),
(491,709,ls),
(495,759,o),
(467,772,o),
(437,772,cs),
(403,772,o),
(378,757,o),
(374,723,cs)
);
}
);
vertWidth = 0;
width = 594;
}
);
metricLeft = J;
metricRight = J;
},
{
color = 6;
glyphname = K.ss05;
lastChange = "2023-09-29 01:33:01 +0000";
layers = (
{
layerId = m01;
shapes = (
{
closed = 1;
nodes = (
(365,0,o),
(372,63,o),
(376,104,cs),
(477,1040,l),
(1221,63,ls),
(1245,31,o),
(1282,0,o),
(1325,0,cs),
(1359,0,o),
(1395,21,o),
(1401,60,cs),
(1406,85,o),
(1401,112,o),
(1376,145,cs),
(665,1079,l),
(1542,1839,ls),
(1578,1870,o),
(1602,1899,o),
(1602,1930,cs),
(1602,1971,o),
(1573,2008,o),
(1528,2008,cs),
(1497,2008,o),
(1463,1999,o),
(1426,1967,cs),
(489,1155,l),
(566,1902,ls),
(572,1961,o),
(560,2008,o),
(492,2008,cs),
(426,2008,o),
(400,1969,o),
(395,1917,cs),
(205,109,ls),
(200,58,o),
(228,0,o),
(292,0,cs)
);
},
{
closed = 1;
nodes = (
(241,20,o),
(220,63,o),
(225,107,cs),
(415,1915,ls),
(420,1961,o),
(438,1988,o),
(492,1988,cs),
(544,1988,o),
(553,1958,o),
(547,1904,cs),
(467,1134,ls),
(466,1124,o),
(480,1121,o),
(487,1127,cs),
(1439,1952,ls),
(1474,1982,o),
(1501,1988,o),
(1527,1988,cs),
(1561,1988,o),
(1582,1964,o),
(1582,1932,cs),
(1582,1906,o),
(1562,1882,o),
(1529,1854,cs),
(638,1082,l),
(1360,133,ls),
(1382,104,o),
(1385,84,o),
(1381,63,cs),
(1376,34,o),
(1353,20,o),
(1325,20,cs),
(1290,20,o),
(1259,46,o),
(1237,75,cs),
(481,1066,ls),
(475,1074,o),
(460,1072,o),
(459,1063,cs),
(357,106,ls),
(353,65,o),
(348,20,o),
(292,20,cs)
);
},
{
closed = 1;
nodes = (
(471,1605,l),
(458,1606,l),
(480,1819,l),
(463,1821,l),
(441,1608,l),
(428,1609,l),
(443,1540,l)
);
},
{
closed = 1;
nodes = (
(509,1864,o),
(531,1886,o),
(531,1913,cs),
(531,1940,o),
(509,1962,o),
(482,1962,cs),
(455,1962,o),
(433,1940,o),
(433,1913,cs),
(433,1886,o),
(455,1864,o),
(482,1864,cs)
);
}
);
vertWidth = 0;
width = 1506;
},
{
layerId = m002;
shapes = (
{
closed = 1;
nodes = (
(468,0,o),
(517,69,o),
(526,153,cs),
(604,873,l),
(1204,85,ls),
(1244,32,o),
(1308,0,o),
(1372,0,cs),
(1437,0,o),
(1515,35,o),
(1527,111,cs),
(1532,153,o),
(1526,208,o),
(1490,256,cs),
(884,1079,l),
(1638,1708,ls),
(1680,1743,o),
(1718,1788,o),
(1721,1842,cs),
(1724,1923,o),
(1660,2008,o),
(1559,2008,cs),
(1506,2008,o),
(1459,1988,o),
(1411,1947,cs),
(649,1287,l),
(699,1825,ls),
(712,1960,o),
(620,2008,o),
(539,2008,cs),
(453,2008,o),
(369,1964,o),
(359,1866,cs),
(183,185,ls),
(172,84,o),
(253,0,o),
(361,0,cs)
);
},
{
closed = 1;
nodes = (
(272,40,o),
(214,101,o),
(222,181,cs),
(398,1861,ls),
(406,1937,o),
(465,1968,o),
(539,1968,cs),
(608,1968,o),
(670,1936,o),
(660,1829,cs),
(605,1247,ls),
(603,1229,o),
(630,1218,o),
(645,1231,cs),
(1436,1917,ls),
(1479,1954,o),
(1515,1968,o),
(1559,1968,cs),
(1638,1968,o),
(1684,1908,o),
(1682,1844,cs),
(1680,1805,o),
(1652,1771,o),
(1612,1737,cs),
(830,1085,l),
(1459,233,ls),
(1488,194,o),
(1493,153,o),
(1488,117,cs),
(1480,64,o),
(1427,40,o),
(1372,40,cs),
(1318,40,o),
(1268,64,o),
(1235,108,cs),
(598,945,ls),
(591,955,o),
(572,949,o),
(571,938,cs),
(487,158,ls),
(479,86,o),
(445,40,o),
(361,40,cs)
);
},
{
closed = 1;
nodes = (
(527,1565,l),
(514,1566,l),
(537,1779,l),
(510,1782,l),
(487,1569,l),
(474,1570,l),
(494,1501,l)
);
},
{
closed = 1;
nodes = (
(558,1825,o),
(585,1852,o),
(585,1885,cs),
(585,1918,o),
(558,1945,o),
(525,1945,cs),
(492,1945,o),
(465,1918,o),
(465,1885,cs),
(465,1852,o),
(492,1825,o),
(525,1825,cs)
);
}
);
vertWidth = 0;
width = 1639;
}
);
metricLeft = K;
metricRight = K;
},
{
color = 6;
glyphname = L.ss05;
lastChange = "2023-09-29 01:33:01 +0000";
layers = (
{
layerId = m01;
shapes = (
{
closed = 1;
nodes = (
(1209,0,ls),
(1273,0,o),
(1298,45,o),
(1298,90,cs),
(1298,139,o),
(1266,171,o),
(1206,171,cs),
(384,171,l),
(567,1902,ls),
(573,1961,o),
(563,2008,o),
(493,2008,cs),
(424,2008,o),
(400,1969,o),
(395,1917,cs),
(203,94,ls),
(197,41,o),
(227,0,o),
(290,0,cs)
);
},
{
closed = 1;
nodes = (
(238,20,o),
(217,48,o),
(222,91,cs),
(414,1915,ls),
(419,1961,o),
(436,1988,o),
(493,1988,cs),
(546,1988,o),
(553,1959,o),
(547,1904,cs),
(362,152,l),
(1206,152,ls),
(1257,152,o),
(1279,130,o),
(1279,90,cs),
(1279,51,o),
(1260,20,o),
(1209,20,cs),
(290,20,ls)
);
},
{
closed = 1;
nodes = (
(471,1605,l),
(458,1606,l),
(480,1819,l),
(463,1821,l),
(441,1608,l),
(428,1609,l),
(443,1540,l)
);
},
{
closed = 1;
nodes = (
(508,1864,o),
(530,1886,o),
(530,1913,cs),
(530,1940,o),
(508,1962,o),
(481,1962,cs),
(454,1962,o),
(432,1940,o),
(432,1913,cs),
(432,1886,o),
(454,1864,o),
(481,1864,cs)
);
}
);
vertWidth = 0;
width = 1446;
},
{
layerId = m002;
shapes = (
{
closed = 1;
nodes = (
(1289,0,ls),
(1391,0,o),
(1449,78,o),
(1449,160,cs),
(1449,243,o),
(1370,315,o),
(1269,315,cs),
(540,315,l),
(699,1825,ls),
(714,1969,o),
(622,2008,o),
(540,2008,cs),
(445,2008,o),
(369,1964,o),
(359,1866,cs),
(181,170,ls),
(171,76,o),
(226,0,o),
(331,0,cs)
);
},
{
closed = 1;
nodes = (
(249,40,o),
(212,89,o),
(220,166,cs),
(398,1861,ls),
(406,1938,o),
(458,1968,o),
(540,1968,cs),
(612,1968,o),
(672,1942,o),
(660,1829,cs),
(496,276,l),
(1269,276,ls),
(1352,276,o),
(1410,223,o),
(1410,160,cs),
(1410,93,o),
(1369,40,o),
(1289,40,cs),
(331,40,ls)
);
},
{
closed = 1;
nodes = (
(527,1565,l),
(514,1566,l),
(537,1779,l),
(510,1782,l),
(487,1569,l),
(474,1570,l),
(494,1501,l)
);
},
{
closed = 1;
nodes = (
(570,1825,o),
(597,1852,o),
(597,1885,cs),
(597,1918,o),
(570,1945,o),
(537,1945,cs),
(504,1945,o),
(477,1918,o),
(477,1885,cs),
(477,1852,o),
(504,1825,o),
(537,1825,cs)
);
}
);
vertWidth = 0;
width = 1600;
}
);
metricLeft = L;
metricRight = L;
},
{
color = 6;
glyphname = M.ss05;
lastChange = "2023-09-29 01:33:01 +0000";
layers = (
{
layerId = m01;
shapes = (
{
closed = 1;
nodes = (
(365,0,o),
(370,58,o),
(374,94,cs),
(532,1569,l),
(1097,66,ls),
(1109,33,o),
(1139,0,o),
(1188,0,cs),
(1236,0,o),
(1250,30,o),
(1267,59,cs),
(2156,1547,l),
(2007,93,ls),
(2003,53,o),
(2026,0,o),
(2089,0,cs),
(2164,0,o),
(2176,55,o),
(2179,86,cs),
(2370,1902,ls),
(2376,1962,o),
(2360,2008,o),
(2298,2008,cs),
(2244,2008,o),
(2227,1989,o),
(2207,1955,cs),
(1200,276,l),
(585,1921,ls),
(564,1976,o),
(546,2008,o),
(493,2008,cs),
(440,2008,o),
(402,1979,o),
(395,1917,cs),
(203,94,ls),
(197,41,o),
(226,0,o),
(290,0,cs)
);
},
{
closed = 1;
nodes = (
(237,20,o),
(218,48,o),
(223,91,cs),
(415,1915,ls),
(420,1967,o),
(448,1988,o),
(493,1988,cs),
(534,1988,o),
(546,1967,o),
(566,1914,cs),
(1196,231,l),
(2224,1944,ls),
(2243,1976,o),
(2254,1988,o),
(2298,1988,cs),
(2345,1988,o),
(2356,1958,o),
(2350,1904,cs),
(2159,88,ls),
(2156,58,o),
(2148,20,o),
(2089,20,cs),
(2039,20,o),
(2023,58,o),
(2026,91,cs),
(2181,1591,ls),
(2182,1600,o),
(2168,1606,o),
(2163,1597,cs),
(1250,70,ls),
(1232,40,o),
(1223,20,o),
(1188,20,cs),
(1149,20,o),
(1126,44,o),
(1115,73,cs),
(536,1617,ls),
(533,1626,o),
(518,1626,o),
(517,1615,cs),
(354,96,ls),
(350,59,o),
(347,20,o),
(290,20,cs)
);
},
{
closed = 1;
nodes = (
(316,42,o),
(338,64,o),
(338,91,cs),
(338,118,o),
(316,140,o),
(289,140,cs),
(262,140,o),
(240,118,o),
(240,91,cs),
(240,64,o),
(262,42,o),
(289,42,cs)
);
},
{
closed = 1;
nodes = (
(329,394,l),
(342,393,l),
(327,462,l),
(299,397,l),
(312,396,l),
(290,183,l),
(307,181,l)
);
}
);
vertWidth = 0;
width = 2477;
},
{
layerId = m002;
shapes = (
{
closed = 1;
nodes = (
(450,0,o),
(514,68,o),
(522,146,cs),
(636,1215,l),
(1033,154,ls),
(1074,43,o),
(1144,0,o),
(1261,0,cs),
(1381,0,o),
(1429,73,o),
(1468,140,cs),
(2081,1191,l),
(1970,157,ls),
(1960,68,o),
(2035,0,o),
(2143,0,cs),
(2257,0,o),
(2305,69,o),
(2313,141,cs),
(2490,1825,ls),
(2501,1933,o),
(2443,2008,o),
(2329,2008,cs),
(2220,2008,o),
(2171,1977,o),
(2119,1888,cs),
(1268,435,l),
(734,1885,ls),
(702,1973,o),
(633,2008,o),
(534,2008,cs),
(428,2008,o),
(369,1959,o),
(359,1866,cs),
(181,170,ls),
(171,74,o),
(243,0,o),
(340,0,cs)
);
},
{
closed = 1;
nodes = (
(262,40,o),
(212,91,o),
(220,166,cs),
(398,1861,ls),
(406,1937,o),
(445,1968,o),
(534,1968,cs),
(622,1968,o),
(670,1944,o),
(697,1871,cs),
(1260,344,l),
(2153,1868,ls),
(2199,1947,o),
(2232,1968,o),
(2329,1968,cs),
(2421,1968,o),
(2460,1919,o),
(2451,1829,cs),
(2274,144,ls),
(2268,86,o),
(2235,40,o),
(2143,40,cs),
(2053,40,o),
(2002,87,o),
(2009,153,cs),
(2129,1276,ls),
(2131,1296,o),
(2104,1308,o),
(2092,1288,cs),
(1435,160,ls),
(1396,93,o),
(1360,40,o),
(1261,40,cs),
(1157,40,o),
(1106,72,o),
(1070,167,cs),
(644,1307,ls),
(637,1326,o),
(608,1325,o),
(606,1302,cs),
(483,149,ls),
(476,88,o),
(431,40,o),
(340,40,cs)
);
},
{
closed = 1;
nodes = (
(379,78,o),
(406,105,o),
(406,138,cs),
(406,171,o),
(379,198,o),
(346,198,cs),
(313,198,o),
(286,171,o),
(286,138,cs),
(286,105,o),
(313,78,o),
(346,78,cs)
);
},
{
closed = 1;
nodes = (
(397,454,l),
(410,453,l),
(390,522,l),
(357,458,l),
(370,457,l),
(347,244,l),
(374,241,l)
);
}
);
vertWidth = 0;
width = 2575;
}
);
metricLeft = M;
metricRight = M;
},
{
color = 6;
glyphname = N.ss05;
lastChange = "2023-09-29 01:33:01 +0000";
layers = (
{
layerId = m01;
shapes = (
{
closed = 1;
nodes = (
(365,0,o),
(370,58,o),
(374,94,cs),
(546,1689,l),
(1438,60,ls),
(1458,24,o),
(1486,0,o),
(1531,0,cs),
(1593,0,o),
(1609,36,o),
(1614,86,cs),
(1804,1902,ls),
(1810,1961,o),
(1798,2008,o),
(1730,2008,cs),
(1661,2008,o),
(1638,1969,o),
(1632,1917,cs),
(1465,368,l),
(597,1941,ls),
(576,1978,o),
(549,2008,o),
(491,2008,cs),
(420,2008,o),
(400,1968,o),
(395,1917,cs),
(203,94,ls),
(197,41,o),
(226,0,o),
(290,0,cs)
);
},
{
closed = 1;
nodes = (
(238,20,o),
(218,48,o),
(223,91,cs),
(415,1915,ls),
(420,1962,o),
(433,1988,o),
(491,1988,cs),
(541,1988,o),
(561,1965,o),
(579,1932,cs),
(1464,328,ls),
(1470,317,o),
(1481,318,o),
(1482,332,cs),
(1651,1915,ls),
(1656,1961,o),
(1673,1988,o),
(1730,1988,cs),
(1781,1988,o),
(1790,1959,o),
(1784,1904,cs),
(1594,88,ls),
(1589,41,o),
(1578,20,o),
(1531,20,cs),
(1494,20,o),
(1472,37,o),
(1455,69,cs),
(547,1727,ls),
(540,1740,o),
(530,1735,o),
(529,1723,cs),
(355,96,ls),
(351,59,o),
(348,20,o),
(290,20,cs)
);
},
{
closed = 1;
nodes = (
(314,42,o),
(336,64,o),
(336,91,cs),
(336,118,o),
(314,140,o),
(287,140,cs),
(260,140,o),
(238,118,o),
(238,91,cs),
(238,64,o),
(260,42,o),
(287,42,cs)
);
},
{
closed = 1;
nodes = (
(329,394,l),
(342,393,l),
(327,462,l),
(299,397,l),
(312,396,l),
(290,183,l),
(307,181,l)
);
}
);
vertWidth = 0;
width = 1912;
},
{
layerId = m002;
shapes = (
{
closed = 1;
nodes = (
(451,0,o),
(516,68,o),
(524,146,cs),
(650,1347,l),
(1344,95,ls),
(1377,35,o),
(1430,0,o),
(1511,0,cs),
(1630,0,o),
(1662,72,o),
(1669,141,cs),
(1846,1825,ls),
(1857,1932,o),
(1796,2017,o),
(1683,2017,cs),
(1591,2017,o),
(1516,1963,o),
(1506,1866,cs),
(1382,705,l),
(715,1911,ls),
(676,1982,o),
(612,2008,o),
(538,2008,cs),
(431,2008,o),
(369,1959,o),
(359,1866,cs),
(182,170,ls),
(172,74,o),
(241,0,o),
(342,0,cs)
);
},
{
closed = 1;
nodes = (
(261,40,o),
(213,91,o),
(221,166,cs),
(398,1861,ls),
(406,1936,o),
(448,1968,o),
(538,1968,cs),
(603,1968,o),
(648,1950,o),
(680,1892,cs),
(1378,633,ls),
(1387,616,o),
(1413,618,o),
(1415,640,cs),
(1545,1861,ls),
(1553,1939,o),
(1607,1978,o),
(1683,1978,cs),
(1773,1978,o),
(1816,1919,o),
(1807,1829,cs),
(1630,144,ls),
(1624,84,o),
(1603,40,o),
(1511,40,cs),
(1443,40,o),
(1406,64,o),
(1378,114,cs),
(655,1419,ls),
(645,1437,o),
(620,1433,o),
(618,1412,cs),
(485,149,ls),
(479,88,o),
(433,40,o),
(342,40,cs)
);
},
{
closed = 1;
nodes = (
(379,78,o),
(406,105,o),
(406,138,cs),
(406,171,o),
(379,198,o),
(346,198,cs),
(313,198,o),
(286,171,o),
(286,138,cs),
(286,105,o),
(313,78,o),
(346,78,cs)
);
},
{
closed = 1;
nodes = (
(397,454,l),
(410,453,l),
(390,522,l),
(357,458,l),
(370,457,l),
(347,244,l),
(374,241,l)
);
}
);
vertWidth = 0;
width = 1931;
}
);
metricLeft = N;
metricRight = N;
},
{
color = 6;
glyphname = O.ss05;
lastChange = "2023-09-29 01:33:01 +0000";
layers = (
{
layerId = m01;
shapes = (
{
closed = 1;
nodes = (
(1045,-20,o),
(1363,761,o),
(1423,1341,cs),
(1462,1690,o),
(1269,2028,o),
(890,2028,cs),
(396,2028,o),
(180,1398,o),
(180,853,cs),
(180,403,o),
(279,-20,o),
(546,-20,cs)
);
},
{
closed = 1;
nodes = (
(296,0,o),
(200,405,o),
(200,853,cs),
(200,1393,o),
(411,2008,o),
(890,2008,cs),
(1256,2008,o),
(1441,1684,o),
(1403,1343,cs),
(1344,767,o),
(1031,0,o),
(546,0,cs)
);
},
{
closed = 1;
nodes = (
(948,122,o),
(1221,869,o),
(1268,1310,cs),
(1302,1637,o),
(1178,1889,o),
(875,1889,cs),
(496,1889,o),
(345,1328,o),
(332,855,cs),
(322,478,o),
(395,122,o),
(561,122,cs)
);
},
{
closed = 1;
nodes = (
(414,142,o),
(342,479,o),
(352,854,cs),
(364,1324,o),
(512,1869,o),
(875,1869,cs),
(1165,1869,o),
(1282,1631,o),
(1249,1312,cs),
(1202,875,o),
(933,142,o),
(561,142,cs)
);
},
{
closed = 1;
nodes = (
(1193,1845,l),
(1141,1886,o),
(1103,1909,o),
(1047,1935,c),
(1052,1945,l),
(983,1955,l),
(1034,1907,l),
(1040,1918,l),
(1095,1892,o),
(1131,1871,o),
(1181,1830,c)
);
},
{
closed = 1;
nodes = (
(1274,1717,o),
(1296,1739,o),
(1296,1766,cs),
(1296,1793,o),
(1274,1815,o),
(1247,1815,cs),
(1220,1815,o),
(1198,1793,o),
(1198,1766,cs),
(1198,1739,o),
(1220,1717,o),
(1247,1717,cs)
);
}
);
vertWidth = 0;
width = 1459;
},
{
layerId = m002;
shapes = (
{
closed = 1;
nodes = (
(1084,-20,o),
(1515,653,o),
(1583,1319,cs),
(1619,1687,o),
(1380,2028,o),
(941,2028,cs),
(492,2028,o),
(179,1607,o),
(179,851,cs),
(179,380,o),
(266,-20,o),
(646,-20,cs)
);
},
{
closed = 1;
nodes = (
(299,19,o),
(219,387,o),
(219,851,cs),
(219,1591,o),
(514,1989,o),
(941,1989,cs),
(1357,1989,o),
(1578,1674,o),
(1544,1322,cs),
(1477,669,o),
(1061,19,o),
(646,19,cs)
);
},
{
closed = 1;
nodes = (
(897,252,o),
(1233,865,o),
(1277,1311,cs),
(1300,1561,o),
(1210,1755,o),
(949,1755,cs),
(650,1755,o),
(483,1353,o),
(483,856,cs),
(483,583,o),
(500,252,o),
(676,252,cs)
);
},
{
closed = 1;
nodes = (
(539,291,o),
(522,586,o),
(522,856,cs),
(522,1342,o),
(678,1716,o),
(949,1716,cs),
(1184,1716,o),
(1260,1551,o),
(1238,1315,cs),
(1195,878,o),
(869,291,o),
(676,291,cs)
);
},
{
closed = 1;
nodes = (
(1236,1806,l),
(1173,1845,o),
(1105,1870,o),
(1037,1891,c),
(1043,1902,l),
(970,1898,l),
(1026,1852,l),
(1028,1864,l),
(1097,1845,o),
(1163,1822,o),
(1221,1783,c)
);
},
{
closed = 1;
nodes = (
(1338,1663,o),
(1365,1690,o),
(1365,1723,cs),
(1365,1756,o),
(1338,1783,o),
(1305,1783,cs),
(1272,1783,o),
(1245,1756,o),
(1245,1723,cs),
(1245,1690,o),
(1272,1663,o),
(1305,1663,cs)
);
}
);
vertWidth = 0;
width = 1601;
},
{
associatedMasterId = m01;
layerId = "20C156BE-152D-4B18-BA16-9023BA2DA609";
name = background;
shapes = (
{
closed = 1;
nodes = (
(399,-5,o),
(522,293,o),
(545,517,cs),
(560,651,o),
(486,772,o),
(334,772,cs),
(188,772,o),
(125,662,o),
(87,486,cs),
(77,438,o),
(70,383,o),
(70,330,cs),
(67,170,o),
(105,-5,o),
(208,-5,cs)
);
},
{
closed = 1;
nodes = (
(147,50,o),
(129,211,o),
(129,318,cs),
(131,368,o),
(134,422,o),
(143,461,cs),
(176,625,o),
(226,718,o),
(329,718,cs),
(473,718,o),
(495,607,o),
(485,505,cs),
(465,312,o),
(347,50,o),
(203,50,cs)
);
}
);
vertWidth = 0;
width = 594;
},
{
associatedMasterId = m002;
layerId = "FECD28BB-41F6-409F-998E-C3EA8BC308B1";
name = background;
shapes = (
{
closed = 1;
nodes = (
(434,-5,o),
(582,287,o),
(605,510,cs),
(619,651,o),
(513,775,o),
(361,775,cs),
(209,775,o),
(125,659,o),
(87,487,cs),
(77,440,o),
(70,386,o),
(70,336,cs),
(68,178,o),
(89,-5,o),
(232,-5,cs)
);
},
{
closed = 1;
nodes = (
(194,102,o),
(188,222,o),
(189,320,cs),
(189,366,o),
(194,413,o),
(201,449,cs),
(232,600,o),
(272,668,o),
(364,668,cs),
(487,668,o),
(492,575,o),
(485,507,cs),
(466,334,o),
(335,102,o),
(244,102,cs)
);
}
);
vertWidth = 0;
width = 594;
}
);
metricLeft = O;
metricRight = O;
},
{
color = 6;
glyphname = P.ss05;
lastChange = "2023-09-29 01:33:01 +0000";
layers = (
{
layerId = m01;
shapes = (
{
closed = 1;
nodes = (
(367,0,o),
(373,69,o),
(376,99,cs),
(472,1002,l),
(1030,1010,o),
(1470,1144,o),
(1504,1506,cs),
(1534,1829,o),
(1132,2008,o),
(492,2008,cs),
(424,2008,o),
(401,1972,o),
(395,1917,cs),
(204,106,ls),
(199,55,o),
(227,0,o),
(291,0,cs)
);
},
{
closed = 1;
nodes = (
(240,20,o),
(218,61,o),
(223,104,cs),
(414,1915,ls),
(419,1964,o),
(436,1988,o),
(493,1988,cs),
(1125,1988,o),
(1514,1817,o),
(1485,1508,cs),
(1452,1156,o),
(1016,1027,o),
(454,1022,c),
(356,101,ls),
(353,70,o),
(349,20,o),
(291,20,cs)
);
},
{
closed = 1;
nodes = (
(471,1605,l),
(458,1606,l),
(480,1819,l),
(463,1821,l),
(441,1608,l),
(428,1609,l),
(443,1540,l)
);
},
{
closed = 1;
nodes = (
(509,1864,o),
(531,1886,o),
(531,1913,cs),
(531,1940,o),
(509,1962,o),
(482,1962,cs),
(455,1962,o),
(433,1940,o),
(433,1913,cs),
(433,1886,o),
(455,1864,o),
(482,1864,cs)
);
},
{
closed = 1;
nodes = (
(971,1146,o),
(1324,1250,o),
(1354,1522,cs),
(1375,1713,o),
(1081,1892,o),
(544,1872,c),
(467,1141,l)
);
},
{
closed = 1;
nodes = (
(562,1853,l),
(1079,1868,o),
(1352,1699,o),
(1334,1524,cs),
(1307,1270,o),
(977,1169,o),
(489,1161,c)
);
}
);
vertWidth = 0;
width = 1463;
},
{
layerId = m002;
shapes = (
{
closed = 1;
nodes = (
(470,0,o),
(516,80,o),
(524,153,cs),
(604,925,l),
(1032,944,o),
(1508,973,o),
(1558,1433,cs),
(1604,1859,o),
(1161,2018,o),
(518,2008,cs),
(429,2008,o),
(369,1955,o),
(359,1859,cs),
(182,184,ls),
(172,93,o),
(240,0,o),
(352,0,cs)
);
},
{
closed = 1;
nodes = (
(262,39,o),
(213,106,o),
(221,180,cs),
(398,1854,ls),
(406,1933,o),
(446,1969,o),
(518,1969,cs),
(1152,1979,o),
(1561,1831,o),
(1519,1437,cs),
(1473,1005,o),
(1002,978,o),
(568,962,c),
(485,157,ls),
(478,94,o),
(445,39,o),
(352,39,cs)
);
},
{
closed = 1;
nodes = (
(527,1565,l),
(514,1566,l),
(537,1779,l),
(510,1782,l),
(487,1569,l),
(474,1570,l),
(494,1501,l)
);
},
{
closed = 1;
nodes = (
(569,1825,o),
(596,1852,o),
(596,1885,cs),
(596,1918,o),
(569,1945,o),
(536,1945,cs),
(503,1945,o),
(476,1918,o),
(476,1885,cs),
(476,1852,o),
(503,1825,o),
(536,1825,cs)
);
},
{
closed = 1;
nodes = (
(902,1215,o),
(1224,1213,o),
(1255,1448,cs),
(1280,1641,o),
(1121,1734,o),
(649,1738,c),
(593,1197,l)
);
},
{
closed = 1;
nodes = (
(685,1699,l),
(1113,1691,o),
(1238,1613,o),
(1216,1452,cs),
(1187,1235,o),
(801,1245,o),
(636,1239,c)
);
}
);
vertWidth = 0;
width = 1530;
},
{
associatedMasterId = m01;
layerId = "02DD8EBC-8F3A-4034-A466-F24C24D63358";
name = background;
shapes = (
{
closed = 1;
nodes = (
(329,361,o),
(512,381,o),
(531,565,cs),
(545,709,o),
(383,772,o),
(150,772,c),
(153,718,l),
(368,718,o),
(482,666,o),
(472,571,cs),
(457,436,o),
(301,416,o),
(129,416,c),
(125,361,l)
);
},
{
closed = 1;
nodes = (
(172,757,o),
(170,772,o),
(145,772,cs),
(119,772,o),
(113,759,o),
(110,740,cs),
(36,32,ls),
(33,14,o),
(44,-5,o),
(65,-5,cs),
(91,-5,o),
(94,18,o),
(95,30,cs),
(170,735,ls)
);
}
);
vertWidth = 0;
width = 594;
}
);
metricLeft = P;
metricRight = P;
},
{
color = 6;
glyphname = Q.ss05;
lastChange = "2023-09-29 01:33:01 +0000";
layers = (
{
layerId = m01;
shapes = (
{
closed = 1;
nodes = (
(1206,-86,o),
(1195,-24,o),
(1149,20,cs),
(962,199,l),
(1213,468,o),
(1382,949,o),
(1423,1341,cs),
(1462,1690,o),
(1269,2028,o),
(890,2028,cs),
(396,2028,o),
(180,1398,o),
(180,853,cs),
(180,403,o),
(279,-20,o),
(546,-20,cs),
(647,-20,o),
(743,23,o),
(832,84,c),
(1025,-100,ls),
(1070,-142,o),
(1134,-160,o),
(1170,-123,cs)
);
},
{
closed = 1;
nodes = (
(1130,-137,o),
(1079,-125,o),
(1039,-86,cs),
(834,110,l),
(744,44,o),
(648,0,o),
(546,0,cs),
(296,0,o),
(200,405,o),
(200,853,cs),
(200,1393,o),
(411,2008,o),
(890,2008,cs),
(1256,2008,o),
(1441,1684,o),
(1403,1343,cs),
(1362,946,o),
(1189,461,o),
(934,198,c),
(1136,6,ls),
(1176,-32,o),
(1182,-81,o),
(1157,-108,cs)
);
},
{
closed = 1;
nodes = (
(620,122,o),
(682,152,o),
(747,191,c),
(625,308,ls),
(575,355,o),
(564,396,o),
(592,426,cs),
(622,458,o),
(674,444,o),
(721,400,cs),
(853,275,l),
(1094,513,o),
(1234,990,o),
(1268,1310,cs),
(1302,1637,o),
(1178,1889,o),
(875,1889,cs),
(496,1889,o),
(345,1328,o),
(332,855,cs),
(322,478,o),
(405,122,o),
(551,122,cs)
);
},
{
closed = 1;
nodes = (
(424,142,o),
(342,479,o),
(352,854,cs),
(364,1324,o),
(512,1869,o),
(875,1869,cs),
(1165,1869,o),
(1282,1631,o),
(1249,1312,cs),
(1215,1000,o),
(1082,541,o),
(852,303,c),
(735,414,ls),
(684,462,o),
(614,483,o),
(577,439,cs),
(543,400,o),
(557,345,o),
(611,294,cs),
(714,195,l),
(657,165,o),
(608,142,o),
(551,142,cs)
);
},
{
closed = 1;
nodes = (
(1193,1845,l),
(1141,1886,o),
(1103,1909,o),
(1047,1935,c),
(1052,1945,l),
(983,1955,l),
(1034,1907,l),
(1040,1918,l),
(1095,1892,o),
(1131,1871,o),
(1181,1830,c)
);
},
{
closed = 1;
nodes = (
(1274,1717,o),
(1296,1739,o),
(1296,1766,cs),
(1296,1793,o),
(1274,1815,o),
(1247,1815,cs),
(1220,1815,o),
(1198,1793,o),
(1198,1766,cs),
(1198,1739,o),
(1220,1717,o),
(1247,1717,cs)
);
}
);
vertWidth = 0;
width = 1459;
},
{
layerId = m002;
shapes = (
{
closed = 1;
nodes = (
(1394,-36,o),
(1389,56,o),
(1317,126,cs),
(1158,279,l),
(1377,534,o),
(1543,926,o),
(1583,1319,cs),
(1619,1688,o),
(1341,2029,o),
(941,2029,cs),
(492,2029,o),
(179,1607,o),
(179,851,cs),
(179,380,o),
(258,-20,o),
(638,-20,cs),
(729,-20,o),
(829,17,o),
(916,68,c),
(1076,-86,ls),
(1153,-160,o),
(1268,-185,o),
(1333,-107,cs)
);
},
{
closed = 1;
nodes = (
(1255,-139,o),
(1170,-124,o),
(1102,-58,cs),
(921,117,l),
(830,59,o),
(731,19,o),
(638,19,cs),
(291,19,o),
(219,387,o),
(219,851,cs),
(219,1591,o),
(514,1990,o),
(941,1990,cs),
(1320,1990,o),
(1578,1673,o),
(1544,1322,cs),
(1503,922,o),
(1330,526,o),
(1104,277,c),
(1290,98,ls),
(1349,41,o),
(1352,-24,o),
(1303,-82,cs)
);
},
{
closed = 1;
nodes = (
(700,252,o),
(726,268,o),
(749,282,c),
(710,320,ls),
(642,386,o),
(640,444,o),
(683,495,cs),
(728,551,o),
(806,547,o),
(888,484,c),
(929,444,l),
(1092,656,o),
(1248,1017,o),
(1277,1311,cs),
(1300,1560,o),
(1232,1756,o),
(949,1756,cs),
(650,1756,o),
(483,1353,o),
(483,856,cs),
(483,583,o),
(492,252,o),
(668,252,cs)
);
},
{
closed = 1;
nodes = (
(533,288,o),
(522,586,o),
(522,856,cs),
(522,1342,o),
(678,1717,o),
(949,1717,cs),
(1203,1717,o),
(1260,1552,o),
(1238,1315,cs),
(1211,1043,o),
(1074,715,o),
(924,504,c),
(913,514,l),
(819,587,o),
(712,593,o),
(653,520,cs),
(599,457,o),
(597,370,o),
(672,304,cs),
(688,290,l),
(681,288,o),
(672,288,o),
(667,288,cs)
);
},
{
closed = 1;
nodes = (
(1236,1806,l),
(1173,1845,o),
(1105,1870,o),
(1037,1891,c),
(1043,1902,l),
(970,1898,l),
(1026,1852,l),
(1028,1864,l),
(1097,1845,o),
(1163,1822,o),
(1221,1783,c)
);
},
{
closed = 1;
nodes = (
(1338,1663,o),
(1365,1690,o),
(1365,1723,cs),
(1365,1756,o),
(1338,1783,o),
(1305,1783,cs),
(1272,1783,o),
(1245,1756,o),
(1245,1723,cs),
(1245,1690,o),
(1272,1663,o),
(1305,1663,cs)
);
}
);
vertWidth = 0;
width = 1601;
},
{
associatedMasterId = m002;
layerId = "0DB79B60-F0F0-4AE5-8CEA-03AE86B091EC";
name = background;
shapes = (
{
closed = 1;
nodes = (
(525,-20,o),
(523,11,o),
(498,36,cs),
(340,188,l),
(307,214,o),
(270,216,o),
(249,191,cs),
(230,169,o),
(230,139,o),
(260,112,cs),
(415,-36,ls),
(443,-62,o),
(482,-71,o),
(504,-45,cs)
);
},
{
closed = 1;
nodes = (
(429,-5,o),
(577,287,o),
(600,510,cs),
(614,651,o),
(508,775,o),
(356,775,cs),
(204,775,o),
(120,659,o),
(82,487,cs),
(72,440,o),
(65,386,o),
(65,336,cs),
(63,178,o),
(84,-5,o),
(227,-5,cs)
);
},
{
closed = 1;
nodes = (
(189,102,o),
(183,222,o),
(184,320,cs),
(184,366,o),
(189,413,o),
(196,449,cs),
(227,600,o),
(267,668,o),
(359,668,cs),
(482,668,o),
(487,573,o),
(480,505,cs),
(461,331,o),
(330,102,o),
(239,102,cs)
);
}
);
vertWidth = 0;
width = 594;
}
);
metricLeft = Q;
metricRight = Q;
},
{
color = 6;
glyphname = R.ss05;
lastChange = "2023-09-29 01:33:01 +0000";
layers = (
{
layerId = m01;
shapes = (
{
closed = 1;
nodes = (
(366,0,o),
(373,57,o),
(378,104,cs),
(472,1002,l),
(1141,63,ls),
(1171,20,o),
(1215,0,o),
(1244,0,cs),
(1280,0,o),
(1313,24,o),
(1321,54,cs),
(1327,79,o),
(1320,117,o),
(1284,168,cs),
(673,1028,l),
(1130,1092,o),
(1458,1292,o),
(1481,1563,cs),
(1507,1872,o),
(1150,2008,o),
(492,2008,cs),
(418,2008,o),
(400,1968,o),
(395,1917,cs),
(205,111,ls),
(199,56,o),
(227,0,o),
(291,0,cs)
);
},
{
closed = 1;
nodes = (
(240,20,o),
(220,60,o),
(225,109,cs),
(414,1915,ls),
(419,1962,o),
(431,1988,o),
(492,1988,cs),
(1145,1988,o),
(1486,1858,o),
(1461,1565,cs),
(1438,1298,o),
(1106,1102,o),
(637,1043,c),
(1268,155,ls),
(1300,110,o),
(1306,80,o),
(1302,59,cs),
(1295,37,o),
(1272,20,o),
(1244,20,cs),
(1221,20,o),
(1185,37,o),
(1157,76,cs),
(458,1053,l),
(358,106,ls),
(353,60,o),
(348,20,o),
(291,20,cs)
);
},
{
closed = 1;
nodes = (
(471,1605,l),
(458,1606,l),
(480,1819,l),
(463,1821,l),
(441,1608,l),
(428,1609,l),
(443,1540,l)
);
},
{
closed = 1;
nodes = (
(509,1864,o),
(531,1886,o),
(531,1913,cs),
(531,1940,o),
(509,1962,o),
(482,1962,cs),
(455,1962,o),
(433,1940,o),
(433,1913,cs),
(433,1886,o),
(455,1864,o),
(482,1864,cs)
);
},
{
closed = 1;
nodes = (
(940,1160,o),
(1302,1352,o),
(1328,1578,cs),
(1348,1753,o),
(1109,1873,o),
(543,1871,c),
(468,1141,l)
);
},
{
closed = 1;
nodes = (
(561,1851,l),
(1106,1850,o),
(1325,1738,o),
(1307,1580,cs),
(1284,1370,o),
(946,1186,o),
(490,1162,c)
);
}
);
vertWidth = 0;
width = 1419;
},
{
layerId = m002;
shapes = (
{
closed = 1;
nodes = (
(448,0,o),
(512,63,o),
(524,179,cs),
(592,847,l),
(1133,80,ls),
(1183,9,o),
(1247,0,o),
(1289,0,cs),
(1351,0,o),
(1418,32,o),
(1445,91,cs),
(1465,134,o),
(1469,198,o),
(1437,245,cs),
(926,984,l),
(1290,1068,o),
(1595,1161,o),
(1619,1471,cs),
(1653,1921,o),
(1239,2008,o),
(539,2008,cs),
(437,2008,o),
(370,1963,o),
(360,1866,cs),
(184,203,ls),
(173,96,o),
(217,0,o),
(331,0,cs)
);
},
{
closed = 1;
nodes = (
(244,40,o),
(213,105,o),
(223,199,cs),
(399,1861,ls),
(407,1939,o),
(451,1968,o),
(539,1968,cs),
(1232,1968,o),
(1611,1888,o),
(1580,1473,cs),
(1557,1170,o),
(1244,1086,o),
(858,1009,c),
(1406,222,ls),
(1430,188,o),
(1426,143,o),
(1409,108,cs),
(1389,63,o),
(1340,40,o),
(1289,40,cs),
(1250,40,o),
(1205,48,o),
(1165,104,cs),
(563,948,l),
(485,183,ls),
(475,83,o),
(429,40,o),
(331,40,cs)
);
},
{
closed = 1;
nodes = (
(527,1565,l),
(514,1566,l),
(537,1779,l),
(510,1782,l),
(487,1569,l),
(474,1570,l),
(494,1501,l)
);
},
{
closed = 1;
nodes = (
(569,1825,o),
(596,1852,o),
(596,1885,cs),
(596,1918,o),
(569,1945,o),
(536,1945,cs),
(503,1945,o),
(476,1918,o),
(476,1885,cs),
(476,1852,o),
(503,1825,o),
(536,1825,cs)
);
},
{
closed = 1;
nodes = (
(1023,1214,o),
(1288,1287,o),
(1316,1492,cs),
(1344,1691,o),
(1180,1772,o),
(653,1752,c),
(590,1184,l)
);
},
{
closed = 1;
nodes = (
(688,1714,l),
(1173,1729,o),
(1302,1661,o),
(1278,1497,cs),
(1253,1320,o),
(1027,1265,o),
(634,1227,c)
);
}
);
vertWidth = 0;
width = 1601;
},
{
associatedMasterId = m01;
layerId = "10B39192-80BD-4D86-8859-A41096DFFBAE";
name = background;
shapes = (
{
closed = 1;
nodes = (
(342,361,o),
(535,381,o),
(554,565,cs),
(568,709,o),
(400,784,o),
(151,772,c),
(154,718,l),
(375,729,o),
(505,665,o),
(494,571,cs),
(480,437,o),
(312,416,o),
(121,416,c),
(116,361,l)
);
},
{
closed = 1;
nodes = (
(115,379,l),
(436,23,ls),
(449,7,o),
(459,0,o),
(468,0,cs),
(480,0,o),
(492,8,o),
(494,18,cs),
(497,27,o),
(499,40,o),
(491,50,cs),
(195,379,l)
);
},
{
closed = 1;
nodes = (
(173,757,o),
(171,772,o),
(146,772,cs),
(120,772,o),
(114,759,o),
(112,740,cs),
(38,39,ls),
(36,19,o),
(45,0,o),
(67,0,cs),
(93,0,o),
(95,19,o),
(97,37,cs),
(171,735,ls)
);
}
);
vertWidth = 0;
width = 594;
}
);
metricLeft = R;
metricRight = R;
},
{
color = 6;
glyphname = S.ss05;
lastChange = "2023-09-29 01:34:45 +0000";
layers = (
{
layerId = m01;
shapes = (
{
closed = 1;
nodes = (
(893,-20,o),
(1159,153,o),
(1195,503,cs),
(1226,805,o),
(1035,1007,o),
(788,1146,cs),
(539,1290,o),
(387,1407,o),
(405,1574,cs),
(422,1745,o),
(586,1866,o),
(873,1866,cs),
(1025,1866,o),
(1115,1788,o),
(1153,1681,cs),
(1170,1634,o),
(1220,1614,o),
(1265,1628,cs),
(1314,1643,o),
(1321,1698,o),
(1300,1757,cs),
(1248,1904,o),
(1111,2028,o),
(866,2028,cs),
(469,2028,o),
(264,1821,o),
(238,1589,cs),
(214,1339,o),
(420,1159,o),
(662,1021,cs),
(931,868,o),
(1044,728,o),
(1026,529,cs),
(1001,266,o),
(793,142,o),
(583,142,cs),
(392,142,o),
(282,224,o),
(260,316,cs),
(246,373,o),
(196,394,o),
(148,380,cs),
(94,365,o),
(89,309,o),
(102,257,cs),
(142,96,o),
(319,-20,o),
(534,-20,cs)
);
},
{
closed = 1;
nodes = (
(326,0,o),
(159,109,o),
(122,262,cs),
(109,310,o),
(113,350,o),
(153,361,cs),
(194,373,o),
(230,358,o),
(241,312,cs),
(266,211,o),
(385,122,o),
(583,122,cs),
(800,122,o),
(1019,252,o),
(1046,527,cs),
(1065,735,o),
(945,883,o),
(672,1038,cs),
(432,1174,o),
(235,1348,o),
(257,1587,cs),
(283,1810,o),
(478,2008,o),
(866,2008,cs),
(1102,2008,o),
(1233,1892,o),
(1282,1750,cs),
(1302,1698,o),
(1295,1658,o),
(1259,1647,cs),
(1222,1635,o),
(1185,1650,o),
(1172,1687,cs),
(1132,1801,o),
(1033,1886,o),
(873,1886,cs),
(579,1886,o),
(404,1757,o),
(385,1576,cs),
(366,1398,o),
(528,1274,o),
(778,1129,cs),
(1023,991,o),
(1206,798,o),
(1175,505,cs),
(1140,165,o),
(886,0,o),
(534,0,cs)
);
},
{
closed = 1;
nodes = (
(1256,1662,o),
(1278,1684,o),
(1278,1711,cs),
(1278,1738,o),
(1256,1760,o),
(1229,1760,cs),
(1202,1760,o),
(1180,1738,o),
(1180,1711,cs),
(1180,1684,o),
(1202,1662,o),
(1229,1662,cs)
);
},
{
closed = 1;
nodes = (
(1198,1802,l),
(1161,1858,o),
(1127,1893,o),
(1067,1917,c),
(1073,1927,l),
(1003,1934,l),
(1056,1888,l),
(1062,1899,l),
(1121,1877,o),
(1150,1843,o),
(1184,1792,c)
);
}
);
vertWidth = 0;
width = 1319;
},
{
layerId = m002;
shapes = (
{
closed = 1;
nodes = (
(1025,-40,o),
(1371,161,o),
(1411,528,cs),
(1450,894,o),
(1212,1088,o),
(1003,1212,cs),
(817,1322,o),
(614,1445,o),
(628,1557,cs),
(642,1661,o),
(753,1738,o),
(933,1738,cs),
(1103,1738,o),
(1167,1683,o),
(1190,1622,cs),
(1226,1522,o),
(1316,1484,o),
(1415,1516,cs),
(1499,1545,o),
(1532,1616,o),
(1509,1700,cs),
(1446,1929,o),
(1286,2047,o),
(978,2047,cs),
(552,2047,o),
(310,1865,o),
(278,1570,cs),
(246,1265,o),
(591,1056,o),
(788,944,cs),
(998,826,o),
(1099,702,o),
(1084,542,cs),
(1069,402,o),
(928,289,o),
(719,289,cs),
(534,289,o),
(491,345,o),
(465,402,cs),
(423,505,o),
(309,536,o),
(228,508,cs),
(153,485,o),
(95,410,o),
(118,324,cs),
(175,108,o),
(375,-40,o),
(721,-40,cs)
);
},
{
closed = 1;
nodes = (
(387,-1,o),
(207,136,o),
(156,334,cs),
(139,399,o),
(179,452,o),
(240,471,cs),
(308,494,o),
(395,470,o),
(429,387,cs),
(462,314,o),
(523,250,o),
(719,250,cs),
(940,250,o),
(1106,375,o),
(1123,539,cs),
(1139,716,o),
(1026,856,o),
(807,978,cs),
(611,1089,o),
(288,1287,o),
(317,1565,cs),
(346,1839,o),
(566,2008,o),
(978,2008,cs),
(1273,2008,o),
(1413,1902,o),
(1471,1690,cs),
(1490,1622,o),
(1468,1575,o),
(1403,1553,cs),
(1321,1527,o),
(1256,1554,o),
(1226,1635,cs),
(1197,1713,o),
(1115,1777,o),
(933,1777,cs),
(742,1777,o),
(606,1690,o),
(589,1562,cs),
(572,1423,o),
(797,1288,o),
(983,1178,cs),
(1189,1056,o),
(1409,876,o),
(1372,532,cs),
(1335,189,o),
(1014,-1,o),
(721,-1,cs)
);
},
{
closed = 1;
nodes = (
(1391,1590,o),
(1418,1617,o),
(1418,1650,cs),
(1418,1683,o),
(1391,1710,o),
(1358,1710,cs),
(1325,1710,o),
(1298,1683,o),
(1298,1650,cs),
(1298,1617,o),
(1325,1590,o),
(1358,1590,cs)
);
},
{
closed = 1;
nodes = (
(1322,1750,l),
(1264,1833,o),
(1213,1855,o),
(1148,1880,c),
(1152,1892,l),
(1081,1896,l),
(1133,1844,l),
(1136,1857,l),
(1203,1830,o),
(1249,1812,o),
(1303,1733,c)
);
}
);
vertWidth = 0;
width = 1542;
},
{
associatedMasterId = m002;
layerId = "978B32C5-E304-42DF-BBEA-C5F78DFF1767";
name = background;
shapes = (
{
closed = 1;
nodes = (
(204,112,o),
(184,122,o),
(177,147,cs),
(168,182,o),
(127,190,o),
(102,183,cs),
(72,176,o),
(62,150,o),
(70,121,cs),
(90,40,o),
(146,0,o),
(234,0,cs),
(397,0,o),
(524,61,o),
(541,207,cs),
(554,339,o),
(453,405,o),
(375,457,cs),
(312,500,o),
(221,548,o),
(219,581,cs),
(215,626,o),
(290,666,o),
(383,666,cs),
(435,666,o),
(455,658,o),
(461,631,cs),
(469,595,o),
(514,587,o),
(539,594,cs),
(569,604,o),
(577,628,o),
(571,657,cs),
(549,744,o),
(488,778,o),
(371,778,cs),
(207,778,o),
(96,687,o),
(103,576,cs),
(112,472,o),
(234,418,o),
(302,372,cs),
(381,316,o),
(431,270,o),
(426,219,cs),
(419,145,o),
(362,112,o),
(278,112,cs)
);
}
);
vertWidth = 0;
width = 594;
}
);
metricLeft = S;
metricRight = S;
},
{
color = 6;
glyphname = T.ss05;
lastChange = "2023-09-29 01:33:01 +0000";
layers = (
{
layerId = m01;
shapes = (
{
closed = 1;
nodes = (
(647,0,o),
(670,62,o),
(675,112,cs),
(854,1837,l),
(1293,1837,ls),
(1363,1837,o),
(1378,1883,o),
(1378,1924,cs),
(1378,1963,o),
(1354,2008,o),
(1286,2008,cs),
(263,2008,ls),
(194,2008,o),
(176,1962,o),
(176,1924,cs),
(176,1881,o),
(205,1837,o),
(273,1837,cs),
(682,1837,l),
(501,124,ls),
(494,60,o),
(512,0,o),
(577,0,cs)
);
},
{
closed = 1;
nodes = (
(528,20,o),
(515,63,o),
(521,122,cs),
(704,1856,l),
(273,1856,ls),
(217,1856,o),
(196,1888,o),
(196,1924,cs),
(196,1957,o),
(208,1988,o),
(263,1988,cs),
(1286,1988,ls),
(1341,1988,o),
(1358,1957,o),
(1358,1924,cs),
(1358,1887,o),
(1348,1856,o),
(1293,1856,cs),
(836,1856,l),
(655,114,ls),
(650,67,o),
(632,20,o),
(577,20,cs)
);
},
{
closed = 1;
nodes = (
(767,1606,l),
(754,1607,l),
(776,1820,l),
(759,1822,l),
(737,1609,l),
(724,1610,l),
(739,1541,l)
);
},
{
closed = 1;
nodes = (
(800,1864,o),
(822,1886,o),
(822,1913,cs),
(822,1940,o),
(800,1962,o),
(773,1962,cs),
(746,1962,o),
(724,1940,o),
(724,1913,cs),
(724,1886,o),
(746,1864,o),
(773,1864,cs)
);
}
);
vertWidth = 0;
width = 1263;
},
{
layerId = m002;
shapes = (
{
closed = 1;
nodes = (
(726,0,o),
(780,78,o),
(787,149,cs),
(950,1697,l),
(1312,1697,ls),
(1422,1697,o),
(1475,1768,o),
(1475,1849,cs),
(1475,1940,o),
(1394,2008,o),
(1293,2008,cs),
(278,2008,ls),
(174,2008,o),
(121,1937,o),
(118,1849,cs),
(116,1766,o),
(191,1697,o),
(298,1697,cs),
(606,1697,l),
(447,170,ls),
(437,74,o),
(509,0,o),
(615,0,cs)
);
},
{
closed = 1;
nodes = (
(529,39,o),
(478,90,o),
(486,166,cs),
(649,1736,l),
(298,1736,ls),
(209,1736,o),
(155,1785,o),
(157,1848,cs),
(160,1921,o),
(196,1969,o),
(278,1969,cs),
(1293,1969,ls),
(1377,1969,o),
(1436,1919,o),
(1436,1849,cs),
(1436,1784,o),
(1400,1736,o),
(1312,1736,cs),
(915,1736,l),
(748,152,ls),
(742,93,o),
(703,39,o),
(615,39,cs)
);
},
{
closed = 1;
nodes = (
(791,1567,l),
(778,1568,l),
(801,1781,l),
(774,1784,l),
(751,1571,l),
(738,1572,l),
(758,1503,l)
);
},
{
closed = 1;
nodes = (
(831,1825,o),
(858,1852,o),
(858,1885,cs),
(858,1918,o),
(831,1945,o),
(798,1945,cs),
(765,1945,o),
(738,1918,o),
(738,1885,cs),
(738,1852,o),
(765,1825,o),
(798,1825,cs)
);
}
);
vertWidth = 0;
width = 1319;
}
);
metricLeft = T;
metricRight = T;
},
